NotoSerifTamilSlanted-LightItalic.ufo
<glyph name="exclam" format="2">
  <advance width="254"/>
  <unicode hex="0021"/>
  <outline>
    <contour>
      <point x="89" y="167" type="line"/>
      <point x="113" y="167" type="line"/>
      <point x="234" y="714" type="line"/>
      <point x="204" y="714" type="line"/>
    </contour>
    <contour>
      <point x="65" y="-9" type="curve" smooth="yes"/>
      <point x="83" y="-9"/>
      <point x="98" y="9"/>
      <point x="98" y="42" type="curve" smooth="yes"/>
      <point x="98" y="61"/>
      <point x="87" y="69"/>
      <point x="74" y="69" type="curve" smooth="yes"/>
      <point x="54" y="69"/>
      <point x="39" y="49"/>
      <point x="39" y="20" type="curve" smooth="yes"/>
      <point x="39" y="0"/>
      <point x="49" y="-9"/>
    </contour>
  </outline>
</glyph>
<glyph name="quotedbl" format="2">
  <advance width="280"/>
  <unicode hex="0022"/>
  <outline>
    <contour>
      <point x="99" y="499" type="line"/>
      <point x="119" y="499" type="line"/>
      <point x="170" y="714" type="line"/>
      <point x="140" y="714" type="line"/>
    </contour>
    <contour>
      <point x="229" y="499" type="line"/>
      <point x="249" y="499" type="line"/>
      <point x="300" y="714" type="line"/>
      <point x="270" y="714" type="line"/>
    </contour>
  </outline>
</glyph>
<glyph name="numbersign" format="2">
  <advance width="559"/>
  <unicode hex="0023"/>
  <outline>
    <contour>
      <point x="73" y="0" type="line"/>
      <point x="101" y="0" type="line"/>
      <point x="165" y="219" type="line"/>
      <point x="357" y="219" type="line"/>
      <point x="293" y="0" type="line"/>
      <point x="321" y="0" type="line"/>
      <point x="385" y="219" type="line"/>
      <point x="501" y="219" type="line"/>
      <point x="506" y="244" type="line"/>
      <point x="392" y="244" type="line"/>
      <point x="462" y="483" type="line"/>
      <point x="578" y="483" type="line"/>
      <point x="583" y="508" type="line"/>
      <point x="470" y="508" type="line"/>
      <point x="530" y="714" type="line"/>
      <point x="502" y="714" type="line"/>
      <point x="442" y="508" type="line"/>
      <point x="250" y="508" type="line"/>
      <point x="310" y="714" type="line"/>
      <point x="282" y="714" type="line"/>
      <point x="222" y="508" type="line"/>
      <point x="103" y="508" type="line"/>
      <point x="98" y="483" type="line"/>
      <point x="214" y="483" type="line"/>
      <point x="144" y="244" type="line"/>
      <point x="26" y="244" type="line"/>
      <point x="21" y="219" type="line"/>
      <point x="137" y="219" type="line"/>
    </contour>
    <contour>
      <point x="172" y="244" type="line"/>
      <point x="242" y="483" type="line"/>
      <point x="434" y="483" type="line"/>
      <point x="364" y="244" type="line"/>
    </contour>
  </outline>
</glyph>
<glyph name="percent" format="2">
  <advance width="840"/>
  <unicode hex="0025"/>
  <outline>
    <contour>
      <point x="170" y="0" type="line"/>
      <point x="198" y="0" type="line"/>
      <point x="686" y="714" type="line"/>
      <point x="658" y="714" type="line"/>
    </contour>
    <contour>
      <point x="182" y="283" type="curve" smooth="yes"/>
      <point x="304" y="283"/>
      <point x="357" y="453"/>
      <point x="357" y="560" type="curve" smooth="yes"/>
      <point x="357" y="656"/>
      <point x="322" y="721"/>
      <point x="249" y="721" type="curve" smooth="yes"/>
      <point x="124" y="721"/>
      <point x="68" y="551"/>
      <point x="68" y="447" type="curve" smooth="yes"/>
      <point x="68" y="339"/>
      <point x="111" y="283"/>
    </contour>
    <contour>
      <point x="182" y="307" type="curve" smooth="yes"/>
      <point x="126" y="307"/>
      <point x="95" y="353"/>
      <point x="95" y="447" type="curve" smooth="yes"/>
      <point x="95" y="532"/>
      <point x="143" y="697"/>
      <point x="249" y="697" type="curve" smooth="yes"/>
      <point x="297" y="697"/>
      <point x="330" y="652"/>
      <point x="330" y="560" type="curve" smooth="yes"/>
      <point x="330" y="472"/>
      <point x="285" y="307"/>
    </contour>
    <contour>
      <point x="615" y="-6" type="curve" smooth="yes"/>
      <point x="735" y="-6"/>
      <point x="788" y="164"/>
      <point x="788" y="271" type="curve" smooth="yes"/>
      <point x="788" y="367"/>
      <point x="753" y="432"/>
      <point x="680" y="432" type="curve" smooth="yes"/>
      <point x="555" y="432"/>
      <point x="499" y="262"/>
      <point x="499" y="158" type="curve" smooth="yes"/>
      <point x="499" y="53"/>
      <point x="540" y="-6"/>
    </contour>
    <contour>
      <point x="615" y="18" type="curve" smooth="yes"/>
      <point x="557" y="18"/>
      <point x="526" y="64"/>
      <point x="526" y="158" type="curve" smooth="yes"/>
      <point x="526" y="243"/>
      <point x="569" y="408"/>
      <point x="680" y="408" type="curve" smooth="yes"/>
      <point x="728" y="408"/>
      <point x="761" y="363"/>
      <point x="761" y="271" type="curve" smooth="yes"/>
      <point x="761" y="183"/>
      <point x="716" y="18"/>
    </contour>
  </outline>
</glyph>
<glyph name="quotesingle" format="2">
  <advance width="131"/>
  <unicode hex="0027"/>
  <outline>
    <contour>
      <point x="93" y="530" type="line"/>
      <point x="113" y="530" type="line"/>
      <point x="157" y="714" type="line"/>
      <point x="127" y="714" type="line"/>
    </contour>
  </outline>
</glyph>
<glyph name="parenright" format="2">
  <advance width="277"/>
  <unicode hex="0029"/>
  <outline>
    <contour>
      <point x="-58" y="-114" type="line"/>
      <point x="156" y="-26"/>
      <point x="241" y="227"/>
      <point x="241" y="431" type="curve" smooth="yes"/>
      <point x="241" y="577"/>
      <point x="207" y="688"/>
      <point x="129" y="744" type="curve"/>
      <point x="123" y="719" type="line"/>
      <point x="185" y="667"/>
      <point x="213" y="549"/>
      <point x="213" y="430" type="curve" smooth="yes"/>
      <point x="213" y="237"/>
      <point x="127" y="-2"/>
      <point x="-52" y="-89" type="curve"/>
    </contour>
  </outline>
</glyph>
<glyph name="asterisk" format="2">
  <advance width="386"/>
  <unicode hex="002A"/>
  <outline>
    <contour>
      <point x="240" y="377" type="line"/>
      <point x="263" y="552" type="line"/>
      <point x="377" y="441" type="line"/>
      <point x="401" y="474" type="line"/>
      <point x="263" y="568" type="line"/>
      <point x="428" y="597" type="line"/>
      <point x="419" y="640" type="line"/>
      <point x="269" y="582" type="line"/>
      <point x="317" y="751" type="line"/>
      <point x="275" y="760" type="line"/>
      <point x="253" y="586" type="line"/>
      <point x="140" y="701" type="line"/>
      <point x="113" y="665" type="line"/>
      <point x="250" y="570" type="line"/>
      <point x="86" y="540" type="line"/>
      <point x="97" y="499" type="line"/>
      <point x="245" y="556" type="line"/>
      <point x="196" y="387" type="line"/>
    </contour>
  </outline>
</glyph>
<glyph name="hyphen" format="2">
  <advance width="310"/>
  <unicode hex="002D"/>
  <outline>
    <contour>
      <point x="23" y="266" type="line"/>
      <point x="283" y="266" type="line"/>
      <point x="288" y="292" type="line"/>
      <point x="28" y="292" type="line"/>
    </contour>
  </outline>
</glyph>
<glyph name="period" format="2">
  <advance width="181"/>
  <unicode hex="002E"/>
  <outline>
    <contour>
      <point x="30" y="-5" type="curve" smooth="yes"/>
      <point x="46" y="-5"/>
      <point x="63" y="9"/>
      <point x="63" y="46" type="curve" smooth="yes"/>
      <point x="63" y="65"/>
      <point x="52" y="73"/>
      <point x="39" y="73" type="curve" smooth="yes"/>
      <point x="20" y="73"/>
      <point x="4" y="55"/>
      <point x="4" y="24" type="curve" smooth="yes"/>
      <point x="4" y="4"/>
      <point x="14" y="-5"/>
    </contour>
  </outline>
</glyph>
<glyph name="one" format="2">
  <advance width="511"/>
  <unicode hex="0031"/>
  <outline>
    <contour>
      <point x="40" y="0" type="line"/>
      <point x="351" y="0" type="line"/>
      <point x="356" y="20" type="line"/>
      <point x="266" y="20" type="line" smooth="yes"/>
      <point x="228" y="20"/>
      <point x="221" y="24"/>
      <point x="221" y="41" type="curve" smooth="yes"/>
      <point x="221" y="53"/>
      <point x="223" y="65"/>
      <point x="226" y="80" type="curve" smooth="yes"/>
      <point x="361" y="718" type="line"/>
      <point x="353" y="718" type="line"/>
      <point x="289" y="676" type="line" smooth="yes"/>
      <point x="213" y="626"/>
      <point x="179" y="610"/>
      <point x="133" y="600" type="curve"/>
      <point x="133" y="589"/>
      <point x="136" y="581"/>
      <point x="158" y="581" type="curve" smooth="yes"/>
      <point x="190" y="581"/>
      <point x="242" y="614"/>
      <point x="327" y="679" type="curve"/>
      <point x="328" y="679" type="line"/>
      <point x="321" y="651"/>
      <point x="309" y="601"/>
      <point x="284" y="482" type="curve" smooth="yes"/>
      <point x="198" y="80" type="line" smooth="yes"/>
      <point x="186" y="23"/>
      <point x="179" y="20"/>
      <point x="120" y="20" type="curve" smooth="yes"/>
      <point x="45" y="20" type="line"/>
    </contour>
  </outline>
</glyph>
<glyph name="three" format="2">
  <advance width="511"/>
  <unicode hex="0033"/>
  <outline>
    <contour>
      <point x="187" y="-10" type="curve" smooth="yes"/>
      <point x="328" y="-10"/>
      <point x="411" y="70"/>
      <point x="411" y="225" type="curve" smooth="yes"/>
      <point x="411" y="313"/>
      <point x="346" y="369"/>
      <point x="280" y="375" type="curve"/>
      <point x="402" y="388"/>
      <point x="462" y="469"/>
      <point x="462" y="571" type="curve" smooth="yes"/>
      <point x="462" y="662"/>
      <point x="394" y="724"/>
      <point x="300" y="724" type="curve" smooth="yes"/>
      <point x="187" y="724"/>
      <point x="119" y="647"/>
      <point x="119" y="573" type="curve" smooth="yes"/>
      <point x="119" y="550"/>
      <point x="132" y="539"/>
      <point x="145" y="539" type="curve"/>
      <point x="145" y="621"/>
      <point x="183" y="699"/>
      <point x="299" y="699" type="curve" smooth="yes"/>
      <point x="384" y="699"/>
      <point x="434" y="643"/>
      <point x="434" y="570" type="curve" smooth="yes"/>
      <point x="434" y="452"/>
      <point x="342" y="389"/>
      <point x="229" y="389" type="curve" smooth="yes"/>
      <point x="197" y="389" type="line"/>
      <point x="189" y="364" type="line"/>
      <point x="230" y="364" type="line" smooth="yes"/>
      <point x="326" y="364"/>
      <point x="383" y="303"/>
      <point x="383" y="224" type="curve" smooth="yes"/>
      <point x="383" y="82"/>
      <point x="306" y="15"/>
      <point x="189" y="15" type="curve" smooth="yes"/>
      <point x="82" y="15"/>
      <point x="34" y="60"/>
      <point x="34" y="135" type="curve"/>
      <point x="17" y="135"/>
      <point x="9" y="122"/>
      <point x="9" y="108" type="curve" smooth="yes"/>
      <point x="9" y="48"/>
      <point x="62" y="-10"/>
    </contour>
  </outline>
</glyph>
<glyph name="five" format="2">
  <advance width="511"/>
  <unicode hex="0035"/>
  <outline>
    <contour>
      <point x="198" y="-10" type="curve" smooth="yes"/>
      <point x="345" y="-10"/>
      <point x="428" y="97"/>
      <point x="428" y="237" type="curve" smooth="yes"/>
      <point x="428" y="354"/>
      <point x="352" y="419"/>
      <point x="247" y="419" type="curve" smooth="yes"/>
      <point x="208" y="419"/>
      <point x="176" y="410"/>
      <point x="156" y="403" type="curve"/>
      <point x="244" y="689" type="line"/>
      <point x="415" y="689" type="line" smooth="yes"/>
      <point x="454" y="689"/>
      <point x="457" y="686"/>
      <point x="457" y="667" type="curve" smooth="yes"/>
      <point x="457" y="659"/>
      <point x="455" y="639"/>
      <point x="451" y="604" type="curve"/>
      <point x="471" y="604" type="line"/>
      <point x="496" y="714" type="line"/>
      <point x="225" y="714" type="line"/>
      <point x="123" y="383" type="line"/>
      <point x="133" y="372" type="line"/>
      <point x="165" y="383"/>
      <point x="190" y="394"/>
      <point x="245" y="394" type="curve" smooth="yes"/>
      <point x="344" y="394"/>
      <point x="400" y="328"/>
      <point x="400" y="237" type="curve" smooth="yes"/>
      <point x="400" y="95"/>
      <point x="311" y="15"/>
      <point x="197" y="15" type="curve" smooth="yes"/>
      <point x="103" y="15"/>
      <point x="55" y="75"/>
      <point x="54" y="148" type="curve"/>
      <point x="37" y="148"/>
      <point x="29" y="138"/>
      <point x="29" y="121" type="curve" smooth="yes"/>
      <point x="29" y="69"/>
      <point x="80" y="-10"/>
    </contour>
  </outline>
</glyph>
<glyph name="eight" format="2">
  <advance width="511"/>
  <unicode hex="0038"/>
  <outline>
    <contour>
      <point x="230" y="-10" type="curve" smooth="yes"/>
      <point x="344" y="-10"/>
      <point x="449" y="49"/>
      <point x="449" y="183" type="curve" smooth="yes"/>
      <point x="449" y="273"/>
      <point x="402" y="329"/>
      <point x="296" y="378" type="curve"/>
      <point x="423" y="417"/>
      <point x="500" y="477"/>
      <point x="500" y="578" type="curve" smooth="yes"/>
      <point x="500" y="659"/>
      <point x="438" y="724"/>
      <point x="323" y="724" type="curve" smooth="yes"/>
      <point x="189" y="724"/>
      <point x="118" y="638"/>
      <point x="118" y="550" type="curve" smooth="yes"/>
      <point x="118" y="478"/>
      <point x="155" y="431"/>
      <point x="240" y="383" type="curve"/>
      <point x="118" y="340"/>
      <point x="23" y="264"/>
      <point x="23" y="152" type="curve" smooth="yes"/>
      <point x="23" y="59"/>
      <point x="94" y="-10"/>
    </contour>
    <contour>
      <point x="230" y="15" type="curve" smooth="yes"/>
      <point x="111" y="15"/>
      <point x="51" y="71"/>
      <point x="51" y="153" type="curve" smooth="yes"/>
      <point x="51" y="256"/>
      <point x="146" y="332"/>
      <point x="266" y="368" type="curve"/>
      <point x="377" y="318"/>
      <point x="421" y="272"/>
      <point x="421" y="181" type="curve" smooth="yes"/>
      <point x="421" y="71"/>
      <point x="343" y="15"/>
    </contour>
    <contour>
      <point x="270" y="393" type="curve"/>
      <point x="179" y="440"/>
      <point x="146" y="483"/>
      <point x="146" y="550" type="curve" smooth="yes"/>
      <point x="146" y="633"/>
      <point x="217" y="699"/>
      <point x="322" y="699" type="curve" smooth="yes"/>
      <point x="428" y="699"/>
      <point x="472" y="643"/>
      <point x="472" y="578" type="curve" smooth="yes"/>
      <point x="472" y="488"/>
      <point x="411" y="437"/>
    </contour>
  </outline>
</glyph>
<glyph name="nine" format="2">
  <advance width="511"/>
  <unicode hex="0039"/>
  <outline>
    <contour>
      <point x="197" y="-10" type="curve" smooth="yes"/>
      <point x="369" y="-10"/>
      <point x="480" y="265"/>
      <point x="480" y="512" type="curve" smooth="yes"/>
      <point x="480" y="645"/>
      <point x="408" y="724"/>
      <point x="306" y="724" type="curve" smooth="yes"/>
      <point x="176" y="724"/>
      <point x="81" y="628"/>
      <point x="81" y="461" type="curve" smooth="yes"/>
      <point x="81" y="364"/>
      <point x="144" y="290"/>
      <point x="254" y="290" type="curve" smooth="yes"/>
      <point x="324" y="290"/>
      <point x="399" y="332"/>
      <point x="438" y="375" type="curve"/>
      <point x="407" y="160"/>
      <point x="302" y="15"/>
      <point x="197" y="15" type="curve" smooth="yes"/>
      <point x="110" y="15"/>
      <point x="86" y="52"/>
      <point x="86" y="121" type="curve"/>
      <point x="67" y="121"/>
      <point x="59" y="109"/>
      <point x="59" y="90" type="curve" smooth="yes"/>
      <point x="59" y="45"/>
      <point x="87" y="-10"/>
    </contour>
    <contour>
      <point x="254" y="315" type="curve" smooth="yes"/>
      <point x="161" y="315"/>
      <point x="109" y="382"/>
      <point x="109" y="461" type="curve" smooth="yes"/>
      <point x="109" y="611"/>
      <point x="191" y="699"/>
      <point x="306" y="699" type="curve" smooth="yes"/>
      <point x="386" y="699"/>
      <point x="452" y="636"/>
      <point x="452" y="512" type="curve" smooth="yes"/>
      <point x="452" y="492"/>
      <point x="451" y="454"/>
      <point x="445" y="415" type="curve"/>
      <point x="407" y="370"/>
      <point x="336" y="315"/>
    </contour>
  </outline>
</glyph>
<glyph name="colon" format="2">
  <advance width="195"/>
  <unicode hex="003A"/>
  <outline>
    <contour>
      <point x="141" y="463" type="curve" smooth="yes"/>
      <point x="157" y="463"/>
      <point x="174" y="477"/>
      <point x="174" y="514" type="curve" smooth="yes"/>
      <point x="174" y="533"/>
      <point x="163" y="541"/>
      <point x="150" y="541" type="curve" smooth="yes"/>
      <point x="131" y="541"/>
      <point x="115" y="523"/>
      <point x="115" y="492" type="curve" smooth="yes"/>
      <point x="115" y="472"/>
      <point x="125" y="463"/>
    </contour>
    <contour>
      <point x="45" y="-5" type="curve" smooth="yes"/>
      <point x="61" y="-5"/>
      <point x="78" y="9"/>
      <point x="78" y="46" type="curve" smooth="yes"/>
      <point x="78" y="65"/>
      <point x="67" y="73"/>
      <point x="54" y="73" type="curve" smooth="yes"/>
      <point x="35" y="73"/>
      <point x="19" y="55"/>
      <point x="19" y="24" type="curve" smooth="yes"/>
      <point x="19" y="4"/>
      <point x="29" y="-5"/>
    </contour>
  </outline>
</glyph>
<glyph name="semicolon" format="2">
  <advance width="195"/>
  <unicode hex="003B"/>
  <outline>
    <contour>
      <point x="-47" y="-140" type="line"/>
      <point x="46" y="-116"/>
      <point x="66" y="-53"/>
      <point x="66" y="15" type="curve" smooth="yes"/>
      <point x="66" y="51"/>
      <point x="52" y="73"/>
      <point x="32" y="73" type="curve" smooth="yes"/>
      <point x="12" y="73"/>
      <point x="2" y="59"/>
      <point x="2" y="42" type="curve" smooth="yes"/>
      <point x="2" y="11"/>
      <point x="37" y="12"/>
      <point x="37" y="-22" type="curve" smooth="yes"/>
      <point x="37" y="-62"/>
      <point x="12" y="-102"/>
      <point x="-50" y="-120" type="curve"/>
    </contour>
    <contour>
      <point x="141" y="463" type="curve" smooth="yes"/>
      <point x="157" y="463"/>
      <point x="174" y="477"/>
      <point x="174" y="514" type="curve" smooth="yes"/>
      <point x="174" y="533"/>
      <point x="163" y="541"/>
      <point x="150" y="541" type="curve" smooth="yes"/>
      <point x="131" y="541"/>
      <point x="115" y="523"/>
      <point x="115" y="492" type="curve" smooth="yes"/>
      <point x="115" y="472"/>
      <point x="125" y="463"/>
    </contour>
  </outline>
</glyph>
<glyph name="equal" format="2">
  <advance width="559"/>
  <unicode hex="003D"/>
  <outline>
    <contour>
      <point x="67" y="451" type="line"/>
      <point x="490" y="451" type="line"/>
      <point x="490" y="479" type="line"/>
      <point x="67" y="479" type="line"/>
    </contour>
    <contour>
      <point x="67" y="235" type="line"/>
      <point x="490" y="235" type="line"/>
      <point x="490" y="263" type="line"/>
      <point x="67" y="263" type="line"/>
    </contour>
  </outline>
</glyph>
<glyph name="question" format="2">
  <advance width="437"/>
  <unicode hex="003F"/>
  <outline>
    <contour>
      <point x="148" y="166" type="line"/>
      <point x="172" y="166" type="line"/>
      <point x="204" y="322" type="line"/>
      <point x="351" y="381"/>
      <point x="441" y="452"/>
      <point x="441" y="576" type="curve" smooth="yes"/>
      <point x="441" y="665"/>
      <point x="378" y="724"/>
      <point x="287" y="724" type="curve" smooth="yes"/>
      <point x="167" y="724"/>
      <point x="113" y="651"/>
      <point x="113" y="579" type="curve" smooth="yes"/>
      <point x="113" y="563"/>
      <point x="119" y="553"/>
      <point x="132" y="553" type="curve"/>
      <point x="140" y="633"/>
      <point x="176" y="699"/>
      <point x="287" y="699" type="curve" smooth="yes"/>
      <point x="359" y="699"/>
      <point x="413" y="651"/>
      <point x="413" y="576" type="curve" smooth="yes"/>
      <point x="413" y="469"/>
      <point x="334" y="398"/>
      <point x="179" y="339" type="curve"/>
    </contour>
    <contour>
      <point x="136" y="-5" type="curve" smooth="yes"/>
      <point x="152" y="-5"/>
      <point x="169" y="9"/>
      <point x="169" y="46" type="curve" smooth="yes"/>
      <point x="169" y="65"/>
      <point x="158" y="73"/>
      <point x="145" y="73" type="curve" smooth="yes"/>
      <point x="126" y="73"/>
      <point x="110" y="55"/>
      <point x="110" y="24" type="curve" smooth="yes"/>
      <point x="110" y="4"/>
      <point x="120" y="-5"/>
    </contour>
  </outline>
</glyph>
<glyph name="backslash" format="2">
  <advance width="288"/>
  <unicode hex="005C"/>
  <outline>
    <contour>
      <point x="171" y="-121" type="line"/>
      <point x="198" y="-121" type="line"/>
      <point x="154" y="760" type="line"/>
      <point x="127" y="760" type="line"/>
    </contour>
  </outline>
</glyph>
<glyph name="bracketright" format="2">
  <advance width="290"/>
  <unicode hex="005D"/>
  <outline>
    <contour>
      <point x="-33" y="-128" type="line"/>
      <point x="122" y="-128" type="line"/>
      <point x="310" y="760" type="line"/>
      <point x="155" y="760" type="line"/>
      <point x="150" y="740" type="line"/>
      <point x="223" y="740" type="line" smooth="yes"/>
      <point x="269" y="740"/>
      <point x="273" y="736"/>
      <point x="273" y="721" type="curve" smooth="yes"/>
      <point x="273" y="711"/>
      <point x="270" y="695"/>
      <point x="266" y="676" type="curve" smooth="yes"/>
      <point x="113" y="-42" type="line" smooth="yes"/>
      <point x="100" y="-105"/>
      <point x="96" y="-108"/>
      <point x="39" y="-108" type="curve" smooth="yes"/>
      <point x="-28" y="-108" type="line"/>
    </contour>
  </outline>
</glyph>
<glyph name="braceright" format="2">
  <advance width="410"/>
  <unicode hex="007D"/>
  <outline>
    <contour>
      <point x="-16" y="-132" type="line"/>
      <point x="11" y="-132" type="line" smooth="yes"/>
      <point x="102" y="-132"/>
      <point x="128" y="-105"/>
      <point x="152" y="8" type="curve" smooth="yes"/>
      <point x="189" y="183" type="line" smooth="yes"/>
      <point x="208" y="273"/>
      <point x="255" y="296"/>
      <point x="336" y="301" type="curve"/>
      <point x="341" y="326" type="line"/>
      <point x="262" y="330"/>
      <point x="239" y="350"/>
      <point x="239" y="399" type="curve" smooth="yes"/>
      <point x="239" y="419"/>
      <point x="244" y="441"/>
      <point x="249" y="463" type="curve" smooth="yes"/>
      <point x="281" y="611" type="line" smooth="yes"/>
      <point x="285" y="631"/>
      <point x="288" y="651"/>
      <point x="288" y="669" type="curve" smooth="yes"/>
      <point x="288" y="730"/>
      <point x="258" y="760"/>
      <point x="202" y="760" type="curve" smooth="yes"/>
      <point x="158" y="760" type="line"/>
      <point x="153" y="735" type="line"/>
      <point x="198" y="735" type="line" smooth="yes"/>
      <point x="238" y="735"/>
      <point x="260" y="719"/>
      <point x="260" y="669" type="curve" smooth="yes"/>
      <point x="260" y="651"/>
      <point x="257" y="630"/>
      <point x="253" y="611" type="curve" smooth="yes"/>
      <point x="221" y="463" type="line" smooth="yes"/>
      <point x="216" y="440"/>
      <point x="213" y="420"/>
      <point x="213" y="398" type="curve" smooth="yes"/>
      <point x="213" y="356"/>
      <point x="234" y="320"/>
      <point x="288" y="316" type="curve"/>
      <point x="288" y="313" type="line"/>
      <point x="211" y="306"/>
      <point x="179" y="260"/>
      <point x="163" y="186" type="curve" smooth="yes"/>
      <point x="126" y="12" type="line" smooth="yes"/>
      <point x="104" y="-90"/>
      <point x="88" y="-107"/>
      <point x="14" y="-107" type="curve" smooth="yes"/>
      <point x="-11" y="-107" type="line"/>
    </contour>
  </outline>
</glyph>
<glyph name="twosuperior" format="2">
  <advance width="380"/>
  <unicode hex="00B2"/>
  <outline>
    <contour>
      <point x="68" y="387" type="line"/>
      <point x="352" y="387" type="line"/>
      <point x="372" y="480" type="line"/>
      <point x="350" y="480" type="line"/>
      <point x="347" y="469" type="line" smooth="yes"/>
      <point x="333" y="417"/>
      <point x="327" y="412"/>
      <point x="271" y="412" type="curve" smooth="yes"/>
      <point x="119" y="412" type="line"/>
      <point x="225" y="499" type="line" smooth="yes"/>
      <point x="352" y="603"/>
      <point x="391" y="646"/>
      <point x="391" y="724" type="curve" smooth="yes"/>
      <point x="391" y="784"/>
      <point x="353" y="825"/>
      <point x="277" y="825" type="curve" smooth="yes"/>
      <point x="184" y="825"/>
      <point x="142" y="750"/>
      <point x="142" y="710" type="curve" smooth="yes"/>
      <point x="142" y="690"/>
      <point x="150" y="682"/>
      <point x="168" y="682" type="curve"/>
      <point x="168" y="741"/>
      <point x="199" y="800"/>
      <point x="277" y="800" type="curve" smooth="yes"/>
      <point x="332" y="800"/>
      <point x="363" y="773"/>
      <point x="363" y="724" type="curve" smooth="yes"/>
      <point x="363" y="661"/>
      <point x="341" y="628"/>
      <point x="209" y="518" type="curve" smooth="yes"/>
      <point x="72" y="404" type="line"/>
    </contour>
  </outline>
</glyph>
<glyph name="threesuperior" format="2">
  <advance width="380"/>
  <unicode hex="00B3"/>
  <outline>
    <contour>
      <point x="209" y="380" type="curve" smooth="yes"/>
      <point x="315" y="380"/>
      <point x="385" y="448"/>
      <point x="385" y="522" type="curve" smooth="yes"/>
      <point x="385" y="570"/>
      <point x="356" y="600"/>
      <point x="311" y="613" type="curve"/>
      <point x="311" y="616" type="line"/>
      <point x="367" y="627"/>
      <point x="410" y="679"/>
      <point x="410" y="731" type="curve" smooth="yes"/>
      <point x="410" y="783"/>
      <point x="366" y="824"/>
      <point x="290" y="824" type="curve" smooth="yes"/>
      <point x="198" y="824"/>
      <point x="146" y="765"/>
      <point x="146" y="722" type="curve" smooth="yes"/>
      <point x="146" y="702"/>
      <point x="158" y="699"/>
      <point x="166" y="699" type="curve"/>
      <point x="177" y="763"/>
      <point x="222" y="799"/>
      <point x="289" y="799" type="curve" smooth="yes"/>
      <point x="342" y="799"/>
      <point x="381" y="776"/>
      <point x="381" y="728" type="curve" smooth="yes"/>
      <point x="381" y="674"/>
      <point x="332" y="626"/>
      <point x="243" y="626" type="curve" smooth="yes"/>
      <point x="204" y="626" type="line"/>
      <point x="199" y="601" type="line"/>
      <point x="232" y="601" type="line" smooth="yes"/>
      <point x="321" y="601"/>
      <point x="357" y="570"/>
      <point x="357" y="521" type="curve" smooth="yes"/>
      <point x="357" y="462"/>
      <point x="303" y="405"/>
      <point x="213" y="405" type="curve" smooth="yes"/>
      <point x="144" y="405"/>
      <point x="106" y="438"/>
      <point x="121" y="508" type="curve"/>
      <point x="99" y="508"/>
      <point x="89" y="483"/>
      <point x="89" y="460" type="curve" smooth="yes"/>
      <point x="89" y="412"/>
      <point x="137" y="380"/>
    </contour>
  </outline>
</glyph>
<glyph name="divide" format="2">
  <advance width="559"/>
  <unicode hex="00F7"/>
  <outline>
    <contour>
      <point x="65" y="343" type="line"/>
      <point x="494" y="343" type="line"/>
      <point x="494" y="371" type="line"/>
      <point x="65" y="371" type="line"/>
    </contour>
    <contour>
      <point x="280" y="144" type="curve" smooth="yes"/>
      <point x="302" y="144"/>
      <point x="321" y="155"/>
      <point x="321" y="186" type="curve" smooth="yes"/>
      <point x="321" y="219"/>
      <point x="302" y="229"/>
      <point x="280" y="229" type="curve" smooth="yes"/>
      <point x="257" y="229"/>
      <point x="239" y="219"/>
      <point x="239" y="186" type="curve" smooth="yes"/>
      <point x="239" y="155"/>
      <point x="257" y="144"/>
    </contour>
    <contour>
      <point x="280" y="486" type="curve" smooth="yes"/>
      <point x="302" y="486"/>
      <point x="321" y="497"/>
      <point x="321" y="529" type="curve" smooth="yes"/>
      <point x="321" y="561"/>
      <point x="302" y="571"/>
      <point x="280" y="571" type="curve" smooth="yes"/>
      <point x="257" y="571"/>
      <point x="239" y="561"/>
      <point x="239" y="529" type="curve" smooth="yes"/>
      <point x="239" y="497"/>
      <point x="257" y="486"/>
    </contour>
  </outline>
</glyph>
<glyph name="udatta-deva" format="2">
  <unicode hex="0951"/>
  <anchor x="56" y="542" name="_vedic"/>
  <outline>
    <contour>
      <point x="121" y="907" type="line"/>
      <point x="147" y="907" type="line"/>
      <point x="186" y="1091" type="line"/>
      <point x="160" y="1091" type="line"/>
    </contour>
  </outline>
</glyph>
<glyph name="anudatta-deva" format="2">
  <unicode hex="0952"/>
  <anchor x="-59" y="0" name="_bottom"/>
  <outline>
    <contour>
      <point x="-334" y="-477" type="line"/>
      <point x="13" y="-477" type="line"/>
      <point x="18" y="-453" type="line"/>
      <point x="-329" y="-453" type="line"/>
    </contour>
  </outline>
</glyph>
<glyph name="danda-deva" format="2">
  <advance width="281"/>
  <unicode hex="0964"/>
  <outline>
    <contour>
      <point x="69" y="0" type="line"/>
      <point x="97" y="0" type="line"/>
      <point x="212" y="542" type="line"/>
      <point x="184" y="542" type="line"/>
    </contour>
  </outline>
</glyph>
<glyph name="dbldanda-deva" format="2">
  <advance width="500"/>
  <unicode hex="0965"/>
  <outline>
    <contour>
      <point x="287" y="0" type="line"/>
      <point x="316" y="0" type="line"/>
      <point x="431" y="542" type="line"/>
      <point x="402" y="542" type="line"/>
    </contour>
    <contour>
      <point x="69" y="0" type="line"/>
      <point x="97" y="0" type="line"/>
      <point x="212" y="542" type="line"/>
      <point x="184" y="542" type="line"/>
    </contour>
  </outline>
</glyph>
<glyph name="anusvara-tamil" format="2">
  <unicode hex="0B82"/>
  <note>
uni0B82
</note>
  <anchor x="56" y="542" name="_top"/>
  <outline>
    <contour>
      <point x="101" y="650" type="curve" smooth="yes"/>
      <point x="157" y="650"/>
      <point x="196" y="692"/>
      <point x="196" y="746" type="curve" smooth="yes"/>
      <point x="196" y="799"/>
      <point x="157" y="841"/>
      <point x="101" y="841" type="curve" smooth="yes"/>
      <point x="45" y="841"/>
      <point x="6" y="799"/>
      <point x="6" y="746" type="curve" smooth="yes"/>
      <point x="6" y="692"/>
      <point x="45" y="650"/>
    </contour>
    <contour>
      <point x="101" y="674" type="curve" smooth="yes"/>
      <point x="60" y="674"/>
      <point x="33" y="705"/>
      <point x="33" y="746" type="curve" smooth="yes"/>
      <point x="33" y="786"/>
      <point x="60" y="817"/>
      <point x="101" y="817" type="curve" smooth="yes"/>
      <point x="142" y="817"/>
      <point x="169" y="786"/>
      <point x="169" y="746" type="curve" smooth="yes"/>
      <point x="169" y="705"/>
      <point x="142" y="674"/>
    </contour>
  </outline>
</glyph>
<glyph name="visarga-tamil" format="2">
  <advance width="846"/>
  <unicode hex="0B83"/>
  <note>
uni0B83
</note>
  <outline>
    <contour>
      <point x="163" y="0" type="curve" smooth="yes"/>
      <point x="271" y="0"/>
      <point x="346" y="98"/>
      <point x="346" y="222" type="curve" smooth="yes"/>
      <point x="346" y="306"/>
      <point x="299" y="362"/>
      <point x="217" y="362" type="curve" smooth="yes"/>
      <point x="110" y="362"/>
      <point x="40" y="254"/>
      <point x="40" y="141" type="curve" smooth="yes"/>
      <point x="40" y="57"/>
      <point x="84" y="0"/>
    </contour>
    <contour>
      <point x="164" y="26" type="curve" smooth="yes"/>
      <point x="103" y="26"/>
      <point x="67" y="70"/>
      <point x="67" y="143" type="curve" smooth="yes"/>
      <point x="67" y="238"/>
      <point x="125" y="337"/>
      <point x="215" y="337" type="curve" smooth="yes"/>
      <point x="281" y="337"/>
      <point x="319" y="288"/>
      <point x="319" y="221" type="curve" smooth="yes"/>
      <point x="319" y="116"/>
      <point x="257" y="26"/>
    </contour>
    <contour>
      <point x="582" y="0" type="curve" smooth="yes"/>
      <point x="690" y="0"/>
      <point x="765" y="98"/>
      <point x="765" y="222" type="curve" smooth="yes"/>
      <point x="765" y="306"/>
      <point x="718" y="362"/>
      <point x="636" y="362" type="curve" smooth="yes"/>
      <point x="529" y="362"/>
      <point x="459" y="254"/>
      <point x="459" y="141" type="curve" smooth="yes"/>
      <point x="459" y="57"/>
      <point x="503" y="0"/>
    </contour>
    <contour>
      <point x="583" y="26" type="curve" smooth="yes"/>
      <point x="522" y="26"/>
      <point x="486" y="70"/>
      <point x="486" y="143" type="curve" smooth="yes"/>
      <point x="486" y="238"/>
      <point x="544" y="337"/>
      <point x="634" y="337" type="curve" smooth="yes"/>
      <point x="700" y="337"/>
      <point x="738" y="288"/>
      <point x="738" y="221" type="curve" smooth="yes"/>
      <point x="738" y="116"/>
      <point x="676" y="26"/>
    </contour>
    <contour>
      <point x="446" y="404" type="curve" smooth="yes"/>
      <point x="554" y="404"/>
      <point x="629" y="502"/>
      <point x="629" y="626" type="curve" smooth="yes"/>
      <point x="629" y="710"/>
      <point x="582" y="766"/>
      <point x="500" y="766" type="curve" smooth="yes"/>
      <point x="393" y="766"/>
      <point x="323" y="658"/>
      <point x="323" y="545" type="curve" smooth="yes"/>
      <point x="323" y="461"/>
      <point x="367" y="404"/>
    </contour>
    <contour>
      <point x="447" y="430" type="curve" smooth="yes"/>
      <point x="386" y="430"/>
      <point x="350" y="474"/>
      <point x="350" y="547" type="curve" smooth="yes"/>
      <point x="350" y="642"/>
      <point x="408" y="741"/>
      <point x="498" y="741" type="curve" smooth="yes"/>
      <point x="564" y="741"/>
      <point x="602" y="692"/>
      <point x="602" y="625" type="curve" smooth="yes"/>
      <point x="602" y="520"/>
      <point x="540" y="430"/>
    </contour>
  </outline>
</glyph>
<glyph name="a-tamil" format="2">
  <advance width="1267"/>
  <unicode hex="0B85"/>
  <note>
uni0B85
</note>
  <anchor x="557" y="0" name="bottom"/>
  <anchor x="362" y="-95" name="nukta"/>
  <anchor x="676" y="542" name="top"/>
  <anchor x="676" y="542" name="vedic"/>
  <outline>
    <contour>
      <point x="1018" y="-163" type="line"/>
      <point x="1047" y="-163" type="line"/>
      <point x="1197" y="544" type="line"/>
      <point x="1168" y="544" type="line"/>
      <point x="1087" y="161" type="line"/>
      <point x="83" y="161" type="line" smooth="yes"/>
      <point x="36" y="161"/>
      <point x="9" y="137"/>
      <point x="9" y="96" type="curve" smooth="yes"/>
      <point x="9" y="16"/>
      <point x="160" y="-93"/>
      <point x="384" y="-93" type="curve" smooth="yes"/>
      <point x="669" y="-93"/>
      <point x="906" y="32"/>
      <point x="906" y="299" type="curve" smooth="yes"/>
      <point x="906" y="468"/>
      <point x="795" y="553"/>
      <point x="639" y="553" type="curve" smooth="yes"/>
      <point x="512" y="553"/>
      <point x="413" y="483"/>
      <point x="413" y="375" type="curve" smooth="yes"/>
      <point x="413" y="311"/>
      <point x="461" y="268"/>
      <point x="528" y="268" type="curve" smooth="yes"/>
      <point x="613" y="268"/>
      <point x="669" y="319"/>
      <point x="669" y="411" type="curve" smooth="yes"/>
      <point x="669" y="461"/>
      <point x="642" y="512"/>
      <point x="594" y="537" type="curve"/>
      <point x="563" y="532" type="line"/>
      <point x="620" y="500"/>
      <point x="641" y="452"/>
      <point x="641" y="409" type="curve" smooth="yes"/>
      <point x="641" y="337"/>
      <point x="599" y="293"/>
      <point x="530" y="293" type="curve" smooth="yes"/>
      <point x="479" y="293"/>
      <point x="441" y="325"/>
      <point x="441" y="380" type="curve" smooth="yes"/>
      <point x="441" y="470"/>
      <point x="528" y="529"/>
      <point x="636" y="529" type="curve" smooth="yes"/>
      <point x="773" y="529"/>
      <point x="875" y="449"/>
      <point x="875" y="294" type="curve" smooth="yes"/>
      <point x="875" y="46"/>
      <point x="638" y="-67"/>
      <point x="385" y="-67" type="curve" smooth="yes"/>
      <point x="191" y="-67"/>
      <point x="36" y="25"/>
      <point x="36" y="98" type="curve" smooth="yes"/>
      <point x="36" y="125"/>
      <point x="56" y="138"/>
      <point x="82" y="138" type="curve" smooth="yes"/>
      <point x="1082" y="138" type="line"/>
    </contour>
  </outline>
</glyph>
<glyph name="aa-tamil" format="2">
  <advance width="1360"/>
  <unicode hex="0B86"/>
  <note>
uni0B86
</note>
  <anchor x="606" y="0" name="bottom"/>
  <anchor x="363" y="-95" name="nukta"/>
  <anchor x="724" y="542" name="top"/>
  <anchor x="725" y="542" name="vedic"/>
  <outline>
    <contour>
      <point x="830" y="-418" type="curve" smooth="yes"/>
      <point x="1028" y="-418"/>
      <point x="1247" y="-281"/>
      <point x="1247" y="-98" type="curve" smooth="yes"/>
      <point x="1247" y="-31"/>
      <point x="1208" y="1"/>
      <point x="1159" y="1" type="curve" smooth="yes"/>
      <point x="1106" y="1"/>
      <point x="1062" y="-40"/>
      <point x="1039" y="-115" type="curve"/>
      <point x="1054" y="-125" type="line"/>
      <point x="1070" y="-61"/>
      <point x="1111" y="-26"/>
      <point x="1156" y="-26" type="curve" smooth="yes"/>
      <point x="1190" y="-26"/>
      <point x="1217" y="-47"/>
      <point x="1217" y="-98" type="curve" smooth="yes"/>
      <point x="1217" y="-264"/>
      <point x="1008" y="-391"/>
      <point x="831" y="-391" type="curve" smooth="yes"/>
      <point x="744" y="-391"/>
      <point x="689" y="-360"/>
      <point x="689" y="-295" type="curve" smooth="yes"/>
      <point x="689" y="-241"/>
      <point x="728" y="-205"/>
      <point x="794" y="-186" type="curve"/>
      <point x="788" y="-160" type="line"/>
      <point x="707" y="-184"/>
      <point x="661" y="-227"/>
      <point x="661" y="-296" type="curve" smooth="yes"/>
      <point x="661" y="-371"/>
      <point x="722" y="-418"/>
    </contour>
    <component base="a-tamil"/>
  </outline>
</glyph>
<glyph name="i-tamil" format="2">
  <advance width="955"/>
  <unicode hex="0B87"/>
  <note>
uni0B87
</note>
  <anchor x="408" y="0" name="bottom"/>
  <anchor x="370" y="-248" name="nukta"/>
  <anchor x="531" y="792" name="top"/>
  <anchor x="515" y="542" name="vedic"/>
  <outline>
    <contour>
      <point x="123" y="-278" type="curve" smooth="yes"/>
      <point x="403" y="-278"/>
      <point x="716" y="48"/>
      <point x="716" y="344" type="curve" smooth="yes"/>
      <point x="716" y="476"/>
      <point x="633" y="551"/>
      <point x="500" y="551" type="curve" smooth="yes"/>
      <point x="380" y="551"/>
      <point x="289" y="479"/>
      <point x="289" y="377" type="curve" smooth="yes"/>
      <point x="289" y="314"/>
      <point x="334" y="266"/>
      <point x="402" y="266" type="curve" smooth="yes"/>
      <point x="483" y="266"/>
      <point x="541" y="317"/>
      <point x="541" y="407" type="curve" smooth="yes"/>
      <point x="541" y="459"/>
      <point x="513" y="512"/>
      <point x="473" y="535" type="curve"/>
      <point x="442" y="530" type="line"/>
      <point x="491" y="500"/>
      <point x="514" y="452"/>
      <point x="514" y="407" type="curve" smooth="yes"/>
      <point x="514" y="335"/>
      <point x="466" y="291"/>
      <point x="402" y="291" type="curve" smooth="yes"/>
      <point x="353" y="291"/>
      <point x="318" y="328"/>
      <point x="318" y="378" type="curve" smooth="yes"/>
      <point x="318" y="466"/>
      <point x="393" y="527"/>
      <point x="498" y="527" type="curve" smooth="yes"/>
      <point x="615" y="527"/>
      <point x="688" y="459"/>
      <point x="688" y="340" type="curve" smooth="yes"/>
      <point x="688" y="72"/>
      <point x="391" y="-252"/>
      <point x="129" y="-252" type="curve" smooth="yes"/>
      <point x="52" y="-252"/>
      <point x="7" y="-213"/>
      <point x="7" y="-154" type="curve" smooth="yes"/>
      <point x="7" y="-16"/>
      <point x="209" y="80"/>
      <point x="415" y="80" type="curve" smooth="yes"/>
      <point x="590" y="80"/>
      <point x="760" y="-2"/>
      <point x="760" y="-127" type="curve" smooth="yes"/>
      <point x="760" y="-209"/>
      <point x="708" y="-252"/>
      <point x="616" y="-252" type="curve" smooth="yes"/>
      <point x="417" y="-252"/>
      <point x="125" y="48"/>
      <point x="125" y="333" type="curve" smooth="yes"/>
      <point x="125" y="572"/>
      <point x="271" y="761"/>
      <point x="529" y="761" type="curve" smooth="yes"/>
      <point x="743" y="761"/>
      <point x="870" y="624"/>
      <point x="870" y="425" type="curve" smooth="yes"/>
      <point x="870" y="390"/>
      <point x="866" y="353"/>
      <point x="858" y="315" type="curve" smooth="yes"/>
      <point x="814" y="108" type="line"/>
      <point x="838" y="108" type="line"/>
      <point x="882" y="315" type="line" smooth="yes"/>
      <point x="891" y="358"/>
      <point x="896" y="399"/>
      <point x="896" y="438" type="curve" smooth="yes"/>
      <point x="896" y="651"/>
      <point x="760" y="792"/>
      <point x="531" y="792" type="curve" smooth="yes"/>
      <point x="260" y="792"/>
      <point x="97" y="591"/>
      <point x="97" y="336" type="curve" smooth="yes"/>
      <point x="97" y="41"/>
      <point x="397" y="-278"/>
      <point x="616" y="-278" type="curve" smooth="yes"/>
      <point x="722" y="-278"/>
      <point x="789" y="-227"/>
      <point x="789" y="-123" type="curve" smooth="yes"/>
      <point x="789" y="16"/>
      <point x="611" y="105"/>
      <point x="416" y="105" type="curve" smooth="yes"/>
      <point x="216" y="105"/>
      <point x="-23" y="9"/>
      <point x="-23" y="-159" type="curve" smooth="yes"/>
      <point x="-23" y="-230"/>
      <point x="36" y="-278"/>
    </contour>
  </outline>
</glyph>
<glyph name="ii-tamil" format="2">
  <advance width="739"/>
  <unicode hex="0B88"/>
  <note>
uni0B88
</note>
  <anchor x="338" y="0" name="bottom"/>
  <anchor x="339" y="0" name="nukta"/>
  <anchor x="456" y="542" name="top"/>
  <anchor x="456" y="542" name="vedic"/>
  <outline>
    <contour>
      <point x="71" y="0" type="line"/>
      <point x="96" y="0" type="line"/>
      <point x="206" y="519" type="line"/>
      <point x="511" y="519" type="line"/>
      <point x="400" y="0" type="line"/>
      <point x="429" y="0" type="line"/>
      <point x="539" y="519" type="line"/>
      <point x="742" y="519" type="line"/>
      <point x="747" y="542" type="line"/>
      <point x="186" y="542" type="line"/>
    </contour>
    <contour>
      <point x="300" y="227" type="curve" smooth="yes"/>
      <point x="319" y="227"/>
      <point x="336" y="243"/>
      <point x="336" y="261" type="curve" smooth="yes"/>
      <point x="336" y="279"/>
      <point x="319" y="295"/>
      <point x="300" y="295" type="curve" smooth="yes"/>
      <point x="281" y="295"/>
      <point x="265" y="279"/>
      <point x="265" y="261" type="curve" smooth="yes"/>
      <point x="265" y="243"/>
      <point x="281" y="227"/>
    </contour>
    <contour>
      <point x="638" y="227" type="curve" smooth="yes"/>
      <point x="657" y="227"/>
      <point x="674" y="243"/>
      <point x="674" y="261" type="curve" smooth="yes"/>
      <point x="674" y="279"/>
      <point x="657" y="295"/>
      <point x="638" y="295" type="curve" smooth="yes"/>
      <point x="619" y="295"/>
      <point x="603" y="279"/>
      <point x="603" y="261" type="curve" smooth="yes"/>
      <point x="603" y="243"/>
      <point x="619" y="227"/>
    </contour>
  </outline>
</glyph>
<glyph name="u-tamil" format="2">
  <advance width="1037"/>
  <unicode hex="0B89"/>
  <note>
uni0B89
</note>
  <anchor x="481" y="0" name="bottom"/>
  <anchor x="481" y="0" name="nukta"/>
  <anchor x="598" y="542" name="top"/>
  <anchor x="599" y="542" name="vedic"/>
  <outline>
    <contour>
      <point x="102" y="0" type="curve" smooth="yes"/>
      <point x="952" y="0" type="line"/>
      <point x="956" y="23" type="line"/>
      <point x="104" y="23" type="line" smooth="yes"/>
      <point x="63" y="23"/>
      <point x="42" y="50"/>
      <point x="42" y="80" type="curve" smooth="yes"/>
      <point x="42" y="122"/>
      <point x="74" y="146"/>
      <point x="126" y="146" type="curve" smooth="yes"/>
      <point x="367" y="146" type="line" smooth="yes"/>
      <point x="529" y="146"/>
      <point x="647" y="212"/>
      <point x="647" y="364" type="curve" smooth="yes"/>
      <point x="647" y="494"/>
      <point x="544" y="551"/>
      <point x="417" y="551" type="curve" smooth="yes"/>
      <point x="292" y="551"/>
      <point x="175" y="477"/>
      <point x="175" y="376" type="curve" smooth="yes"/>
      <point x="175" y="315"/>
      <point x="218" y="266"/>
      <point x="291" y="266" type="curve" smooth="yes"/>
      <point x="370" y="266"/>
      <point x="435" y="311"/>
      <point x="435" y="398" type="curve" smooth="yes"/>
      <point x="435" y="457"/>
      <point x="410" y="496"/>
      <point x="369" y="535" type="curve"/>
      <point x="339" y="530" type="line"/>
      <point x="389" y="483"/>
      <point x="408" y="448"/>
      <point x="408" y="395" type="curve" smooth="yes"/>
      <point x="408" y="327"/>
      <point x="349" y="291"/>
      <point x="292" y="291" type="curve" smooth="yes"/>
      <point x="234" y="291"/>
      <point x="203" y="331"/>
      <point x="203" y="379" type="curve" smooth="yes"/>
      <point x="203" y="464"/>
      <point x="307" y="527"/>
      <point x="414" y="527" type="curve" smooth="yes"/>
      <point x="523" y="527"/>
      <point x="618" y="481"/>
      <point x="618" y="362" type="curve" smooth="yes"/>
      <point x="618" y="231"/>
      <point x="511" y="170"/>
      <point x="365" y="170" type="curve" smooth="yes"/>
      <point x="131" y="170" type="line" smooth="yes"/>
      <point x="63" y="170"/>
      <point x="15" y="142"/>
      <point x="15" y="77" type="curve" smooth="yes"/>
      <point x="15" y="38"/>
      <point x="45" y="0"/>
    </contour>
  </outline>
</glyph>
<glyph name="uu-tamil" format="2">
  <advance width="1613"/>
  <unicode hex="0B8A"/>
  <note>
uni0B8A
</note>
  <anchor x="782" y="0" name="bottom"/>
  <anchor x="783" y="0" name="nukta"/>
  <anchor x="900" y="542" name="top"/>
  <anchor x="900" y="542" name="vedic"/>
  <outline>
    <contour>
      <point x="102" y="0" type="curve" smooth="yes"/>
      <point x="1541" y="0" type="line"/>
      <point x="1545" y="23" type="line"/>
      <point x="104" y="23" type="line" smooth="yes"/>
      <point x="63" y="23"/>
      <point x="42" y="50"/>
      <point x="42" y="80" type="curve" smooth="yes"/>
      <point x="42" y="122"/>
      <point x="74" y="146"/>
      <point x="126" y="146" type="curve" smooth="yes"/>
      <point x="367" y="146" type="line" smooth="yes"/>
      <point x="529" y="146"/>
      <point x="647" y="212"/>
      <point x="647" y="364" type="curve" smooth="yes"/>
      <point x="647" y="494"/>
      <point x="544" y="551"/>
      <point x="417" y="551" type="curve" smooth="yes"/>
      <point x="292" y="551"/>
      <point x="175" y="477"/>
      <point x="175" y="376" type="curve" smooth="yes"/>
      <point x="175" y="315"/>
      <point x="218" y="266"/>
      <point x="291" y="266" type="curve" smooth="yes"/>
      <point x="370" y="266"/>
      <point x="435" y="311"/>
      <point x="435" y="398" type="curve" smooth="yes"/>
      <point x="435" y="457"/>
      <point x="410" y="496"/>
      <point x="369" y="535" type="curve"/>
      <point x="339" y="530" type="line"/>
      <point x="389" y="483"/>
      <point x="408" y="448"/>
      <point x="408" y="395" type="curve" smooth="yes"/>
      <point x="408" y="327"/>
      <point x="349" y="291"/>
      <point x="292" y="291" type="curve" smooth="yes"/>
      <point x="234" y="291"/>
      <point x="203" y="331"/>
      <point x="203" y="379" type="curve" smooth="yes"/>
      <point x="203" y="464"/>
      <point x="307" y="527"/>
      <point x="414" y="527" type="curve" smooth="yes"/>
      <point x="523" y="527"/>
      <point x="618" y="481"/>
      <point x="618" y="362" type="curve" smooth="yes"/>
      <point x="618" y="231"/>
      <point x="511" y="170"/>
      <point x="365" y="170" type="curve" smooth="yes"/>
      <point x="131" y="170" type="line" smooth="yes"/>
      <point x="63" y="170"/>
      <point x="15" y="142"/>
      <point x="15" y="77" type="curve" smooth="yes"/>
      <point x="15" y="38"/>
      <point x="45" y="0"/>
    </contour>
    <contour>
      <point x="882" y="104" type="curve" smooth="yes"/>
      <point x="961" y="104"/>
      <point x="1031" y="153"/>
      <point x="1031" y="251" type="curve" smooth="yes"/>
      <point x="1031" y="324"/>
      <point x="980" y="372"/>
      <point x="912" y="372" type="curve" smooth="yes"/>
      <point x="834" y="372"/>
      <point x="777" y="308"/>
      <point x="748" y="234" type="curve"/>
      <point x="757" y="210" type="line"/>
      <point x="790" y="287"/>
      <point x="838" y="347"/>
      <point x="906" y="347" type="curve" smooth="yes"/>
      <point x="964" y="347"/>
      <point x="1003" y="311"/>
      <point x="1003" y="249" type="curve" smooth="yes"/>
      <point x="1003" y="168"/>
      <point x="942" y="129"/>
      <point x="883" y="129" type="curve" smooth="yes"/>
      <point x="810" y="129"/>
      <point x="753" y="188"/>
      <point x="754" y="283" type="curve" smooth="yes"/>
      <point x="755" y="388"/>
      <point x="844" y="527"/>
      <point x="999" y="527" type="curve" smooth="yes"/>
      <point x="1103" y="527"/>
      <point x="1214" y="467"/>
      <point x="1182" y="318" type="curve"/>
      <point x="1204" y="319" type="line"/>
      <point x="1239" y="483"/>
      <point x="1123" y="551"/>
      <point x="1000" y="551" type="curve" smooth="yes"/>
      <point x="826" y="551"/>
      <point x="726" y="397"/>
      <point x="726" y="281" type="curve" smooth="yes"/>
      <point x="726" y="176"/>
      <point x="795" y="104"/>
    </contour>
    <contour>
      <point x="1137" y="107" type="line"/>
      <point x="1164" y="107" type="line"/>
      <point x="1252" y="519" type="line"/>
      <point x="1480" y="519" type="line"/>
      <point x="1393" y="107" type="line"/>
      <point x="1421" y="107" type="line"/>
      <point x="1508" y="519" type="line"/>
      <point x="1651" y="519" type="line"/>
      <point x="1656" y="542" type="line"/>
      <point x="1229" y="542" type="line"/>
      <point x="1201" y="413" type="line"/>
      <point x="1197" y="392" type="line"/>
    </contour>
  </outline>
</glyph>
<glyph name="ee-tamil" format="2">
  <advance width="822"/>
  <unicode hex="0B8F"/>
  <note>
uni0B8F
</note>
  <anchor x="379" y="0" name="bottom"/>
  <anchor x="339" y="-195" name="nukta"/>
  <anchor x="496" y="542" name="top"/>
  <anchor x="497" y="542" name="vedic"/>
  <outline>
    <contour>
      <point x="342" y="-208" type="line"/>
      <point x="577" y="-3" type="line"/>
      <point x="688" y="519" type="line"/>
      <point x="849" y="519" type="line"/>
      <point x="854" y="542" type="line"/>
      <point x="423" y="542" type="line" smooth="yes"/>
      <point x="171" y="542"/>
      <point x="53" y="390"/>
      <point x="53" y="210" type="curve" smooth="yes"/>
      <point x="53" y="73"/>
      <point x="125" y="-4"/>
      <point x="225" y="-4" type="curve" smooth="yes"/>
      <point x="313" y="-4"/>
      <point x="380" y="57"/>
      <point x="380" y="155" type="curve" smooth="yes"/>
      <point x="380" y="228"/>
      <point x="333" y="283"/>
      <point x="257" y="283" type="curve" smooth="yes"/>
      <point x="163" y="283"/>
      <point x="106" y="208"/>
      <point x="76" y="133" type="curve"/>
      <point x="87" y="108" type="line"/>
      <point x="123" y="188"/>
      <point x="168" y="258"/>
      <point x="250" y="258" type="curve" smooth="yes"/>
      <point x="320" y="258"/>
      <point x="351" y="213"/>
      <point x="351" y="153" type="curve" smooth="yes"/>
      <point x="351" y="72"/>
      <point x="295" y="21"/>
      <point x="227" y="21" type="curve" smooth="yes"/>
      <point x="139" y="21"/>
      <point x="80" y="88"/>
      <point x="80" y="212" type="curve" smooth="yes"/>
      <point x="80" y="379"/>
      <point x="193" y="519"/>
      <point x="420" y="519" type="curve" smooth="yes"/>
      <point x="659" y="519" type="line"/>
      <point x="551" y="10" type="line"/>
      <point x="325" y="-188" type="line"/>
    </contour>
  </outline>
</glyph>
<glyph name="o-tamil" format="2">
  <advance width="950"/>
  <unicode hex="0B92"/>
  <note>
uni0B92
</note>
  <anchor x="412" y="0" name="bottom"/>
  <anchor x="339" y="-335" name="nukta"/>
  <anchor x="508" y="542" name="top"/>
  <anchor x="507" y="542" name="vedic"/>
  <outline>
    <contour>
      <point x="239" y="-311" type="curve" smooth="yes"/>
      <point x="400" y="-311"/>
      <point x="458" y="-132"/>
      <point x="640" y="-132" type="curve" smooth="yes"/>
      <point x="670" y="-132" type="line"/>
      <point x="675" y="-108" type="line"/>
      <point x="634" y="-108" type="line" smooth="yes"/>
      <point x="528" y="-108"/>
      <point x="478" y="-41"/>
      <point x="478" y="39" type="curve" smooth="yes"/>
      <point x="478" y="106"/>
      <point x="513" y="182"/>
      <point x="579" y="236" type="curve"/>
      <point x="584" y="232" type="line"/>
      <point x="556" y="192"/>
      <point x="541" y="148"/>
      <point x="541" y="108" type="curve" smooth="yes"/>
      <point x="541" y="46"/>
      <point x="578" y="-5"/>
      <point x="656" y="-5" type="curve" smooth="yes"/>
      <point x="780" y="-5"/>
      <point x="871" y="95"/>
      <point x="871" y="241" type="curve" smooth="yes"/>
      <point x="871" y="438"/>
      <point x="709" y="551"/>
      <point x="483" y="551" type="curve" smooth="yes"/>
      <point x="219" y="551"/>
      <point x="49" y="377"/>
      <point x="49" y="207" type="curve" smooth="yes"/>
      <point x="49" y="70"/>
      <point x="113" y="-4"/>
      <point x="213" y="-4" type="curve" smooth="yes"/>
      <point x="301" y="-4"/>
      <point x="376" y="55"/>
      <point x="376" y="155" type="curve" smooth="yes"/>
      <point x="376" y="229"/>
      <point x="329" y="283"/>
      <point x="253" y="283" type="curve" smooth="yes"/>
      <point x="159" y="283"/>
      <point x="102" y="208"/>
      <point x="72" y="133" type="curve"/>
      <point x="83" y="108" type="line"/>
      <point x="119" y="188"/>
      <point x="164" y="258"/>
      <point x="246" y="258" type="curve" smooth="yes"/>
      <point x="316" y="258"/>
      <point x="347" y="213"/>
      <point x="347" y="153" type="curve" smooth="yes"/>
      <point x="347" y="72"/>
      <point x="283" y="21"/>
      <point x="215" y="21" type="curve" smooth="yes"/>
      <point x="127" y="21"/>
      <point x="76" y="85"/>
      <point x="76" y="209" type="curve" smooth="yes"/>
      <point x="76" y="366"/>
      <point x="242" y="527"/>
      <point x="482" y="527" type="curve" smooth="yes"/>
      <point x="692" y="527"/>
      <point x="842" y="423"/>
      <point x="842" y="237" type="curve" smooth="yes"/>
      <point x="842" y="114"/>
      <point x="767" y="21"/>
      <point x="658" y="21" type="curve" smooth="yes"/>
      <point x="594" y="21"/>
      <point x="566" y="61"/>
      <point x="566" y="112" type="curve" smooth="yes"/>
      <point x="566" y="157"/>
      <point x="587" y="211"/>
      <point x="626" y="256" type="curve"/>
      <point x="599" y="281" type="line"/>
      <point x="500" y="207"/>
      <point x="450" y="113"/>
      <point x="450" y="33" type="curve" smooth="yes"/>
      <point x="450" y="-36"/>
      <point x="487" y="-94"/>
      <point x="564" y="-118" type="curve"/>
      <point x="563" y="-122" type="line"/>
      <point x="411" y="-154"/>
      <point x="371" y="-283"/>
      <point x="238" y="-283" type="curve" smooth="yes"/>
      <point x="173" y="-283"/>
      <point x="143" y="-240"/>
      <point x="143" y="-193" type="curve" smooth="yes"/>
      <point x="143" y="-145"/>
      <point x="172" y="-115"/>
      <point x="222" y="-78" type="curve"/>
      <point x="207" y="-57" type="line"/>
      <point x="151" y="-99"/>
      <point x="115" y="-130"/>
      <point x="115" y="-194" type="curve" smooth="yes"/>
      <point x="115" y="-256"/>
      <point x="156" y="-311"/>
    </contour>
  </outline>
</glyph>
<glyph name="oo-tamil" format="2">
  <advance width="950"/>
  <unicode hex="0B93"/>
  <note>
uni0B93
</note>
  <anchor x="411" y="0" name="bottom"/>
  <anchor x="346" y="-296" name="nukta"/>
  <anchor x="508" y="542" name="top"/>
  <anchor x="507" y="542" name="vedic"/>
  <outline>
    <contour>
      <point x="230" y="-316" type="curve" smooth="yes"/>
      <point x="381" y="-316"/>
      <point x="458" y="-132"/>
      <point x="640" y="-132" type="curve" smooth="yes"/>
      <point x="660" y="-132" type="line"/>
      <point x="665" y="-108" type="line"/>
      <point x="634" y="-108" type="line" smooth="yes"/>
      <point x="528" y="-108"/>
      <point x="478" y="-41"/>
      <point x="478" y="39" type="curve" smooth="yes"/>
      <point x="478" y="106"/>
      <point x="513" y="182"/>
      <point x="579" y="236" type="curve"/>
      <point x="584" y="232" type="line"/>
      <point x="556" y="192"/>
      <point x="541" y="148"/>
      <point x="541" y="108" type="curve" smooth="yes"/>
      <point x="541" y="46"/>
      <point x="578" y="-5"/>
      <point x="656" y="-5" type="curve" smooth="yes"/>
      <point x="780" y="-5"/>
      <point x="871" y="95"/>
      <point x="871" y="241" type="curve" smooth="yes"/>
      <point x="871" y="438"/>
      <point x="709" y="551"/>
      <point x="483" y="551" type="curve" smooth="yes"/>
      <point x="219" y="551"/>
      <point x="49" y="377"/>
      <point x="49" y="207" type="curve" smooth="yes"/>
      <point x="49" y="70"/>
      <point x="113" y="-4"/>
      <point x="213" y="-4" type="curve" smooth="yes"/>
      <point x="301" y="-4"/>
      <point x="376" y="55"/>
      <point x="376" y="155" type="curve" smooth="yes"/>
      <point x="376" y="229"/>
      <point x="329" y="283"/>
      <point x="253" y="283" type="curve" smooth="yes"/>
      <point x="159" y="283"/>
      <point x="102" y="208"/>
      <point x="72" y="133" type="curve"/>
      <point x="83" y="108" type="line"/>
      <point x="119" y="188"/>
      <point x="164" y="258"/>
      <point x="246" y="258" type="curve" smooth="yes"/>
      <point x="316" y="258"/>
      <point x="347" y="213"/>
      <point x="347" y="153" type="curve" smooth="yes"/>
      <point x="347" y="72"/>
      <point x="283" y="21"/>
      <point x="215" y="21" type="curve" smooth="yes"/>
      <point x="127" y="21"/>
      <point x="76" y="85"/>
      <point x="76" y="209" type="curve" smooth="yes"/>
      <point x="76" y="366"/>
      <point x="242" y="527"/>
      <point x="482" y="527" type="curve" smooth="yes"/>
      <point x="692" y="527"/>
      <point x="842" y="423"/>
      <point x="842" y="237" type="curve" smooth="yes"/>
      <point x="842" y="114"/>
      <point x="767" y="21"/>
      <point x="658" y="21" type="curve" smooth="yes"/>
      <point x="594" y="21"/>
      <point x="566" y="61"/>
      <point x="566" y="112" type="curve" smooth="yes"/>
      <point x="566" y="157"/>
      <point x="587" y="211"/>
      <point x="626" y="256" type="curve"/>
      <point x="599" y="281" type="line"/>
      <point x="500" y="207"/>
      <point x="450" y="113"/>
      <point x="450" y="33" type="curve" smooth="yes"/>
      <point x="450" y="-36"/>
      <point x="487" y="-94"/>
      <point x="564" y="-118" type="curve"/>
      <point x="563" y="-122" type="line"/>
      <point x="411" y="-154"/>
      <point x="352" y="-288"/>
      <point x="229" y="-288" type="curve" smooth="yes"/>
      <point x="169" y="-288"/>
      <point x="130" y="-253"/>
      <point x="130" y="-198" type="curve" smooth="yes"/>
      <point x="130" y="-141"/>
      <point x="170" y="-102"/>
      <point x="223" y="-102" type="curve" smooth="yes"/>
      <point x="258" y="-102"/>
      <point x="283" y="-122"/>
      <point x="288" y="-144" type="curve"/>
      <point x="305" y="-135"/>
      <point x="317" y="-124"/>
      <point x="317" y="-103" type="curve" smooth="yes"/>
      <point x="317" y="-80"/>
      <point x="286" y="-63"/>
      <point x="243" y="-63" type="curve" smooth="yes"/>
      <point x="158" y="-63"/>
      <point x="102" y="-131"/>
      <point x="102" y="-201" type="curve" smooth="yes"/>
      <point x="102" y="-270"/>
      <point x="156" y="-316"/>
    </contour>
  </outline>
</glyph>
<glyph name="ka-tamil" format="2">
  <advance width="768"/>
  <unicode hex="0B95"/>
  <note>
uni0B95
</note>
  <anchor x="343" y="0" name="bottom"/>
  <anchor x="553" y="542" name="imatra"/>
  <anchor x="348" y="0" name="nukta"/>
  <anchor x="455" y="542" name="top"/>
  <anchor x="459" y="542" name="vedic"/>
  <outline>
    <contour>
      <point x="195" y="-4" type="curve" smooth="yes"/>
      <point x="302" y="-4"/>
      <point x="366" y="56"/>
      <point x="394" y="182" type="curve" smooth="yes"/>
      <point x="415" y="275" type="line"/>
      <point x="511" y="275" type="line" smooth="yes"/>
      <point x="613" y="275"/>
      <point x="653" y="226"/>
      <point x="653" y="155" type="curve" smooth="yes"/>
      <point x="653" y="73"/>
      <point x="582" y="21"/>
      <point x="500" y="21" type="curve" smooth="yes"/>
      <point x="452" y="21" type="line"/>
      <point x="448" y="-2" type="line"/>
      <point x="501" y="-2" type="line" smooth="yes"/>
      <point x="601" y="-2"/>
      <point x="681" y="56"/>
      <point x="681" y="160" type="curve" smooth="yes"/>
      <point x="681" y="244"/>
      <point x="628" y="299"/>
      <point x="515" y="299" type="curve" smooth="yes"/>
      <point x="420" y="299" type="line"/>
      <point x="467" y="519" type="line"/>
      <point x="651" y="519" type="line"/>
      <point x="656" y="542" type="line"/>
      <point x="221" y="542" type="line"/>
      <point x="166" y="284" type="line"/>
      <point x="191" y="284" type="line"/>
      <point x="241" y="519" type="line"/>
      <point x="439" y="519" type="line"/>
      <point x="392" y="299" type="line"/>
      <point x="236" y="299" type="line" smooth="yes"/>
      <point x="118" y="299"/>
      <point x="38" y="232"/>
      <point x="38" y="135" type="curve" smooth="yes"/>
      <point x="38" y="52"/>
      <point x="99" y="-4"/>
    </contour>
    <contour>
      <point x="196" y="21" type="curve" smooth="yes"/>
      <point x="119" y="21"/>
      <point x="72" y="65"/>
      <point x="72" y="139" type="curve" smooth="yes"/>
      <point x="72" y="215"/>
      <point x="128" y="275"/>
      <point x="234" y="275" type="curve" smooth="yes"/>
      <point x="387" y="275" type="line"/>
      <point x="366" y="179" type="line" smooth="yes"/>
      <point x="345" y="81"/>
      <point x="287" y="21"/>
    </contour>
  </outline>
</glyph>
<glyph name="nga-tamil" format="2">
  <advance width="1009"/>
  <unicode hex="0B99"/>
  <note>
uni0B99
</note>
  <anchor x="452" y="0" name="bottom"/>
  <anchor x="619" y="542" name="imatra"/>
  <anchor x="452" y="0" name="nukta"/>
  <anchor x="569" y="542" name="top"/>
  <anchor x="564" y="542" name="vedic"/>
  <outline>
    <contour>
      <point x="71" y="0" type="line"/>
      <point x="96" y="0" type="line"/>
      <point x="206" y="519" type="line"/>
      <point x="433" y="519" type="line"/>
      <point x="362" y="188" type="line"/>
      <point x="391" y="188" type="line"/>
      <point x="394" y="203" type="line" smooth="yes"/>
      <point x="405" y="254"/>
      <point x="453" y="332"/>
      <point x="541" y="332" type="curve" smooth="yes"/>
      <point x="606" y="332"/>
      <point x="641" y="292"/>
      <point x="641" y="231" type="curve" smooth="yes"/>
      <point x="641" y="110"/>
      <point x="517" y="23"/>
      <point x="407" y="23" type="curve" smooth="yes"/>
      <point x="327" y="23" type="line"/>
      <point x="322" y="0" type="line"/>
      <point x="823" y="0" type="line"/>
      <point x="938" y="542" type="line"/>
      <point x="910" y="542" type="line"/>
      <point x="800" y="23" type="line"/>
      <point x="503" y="23" type="line"/>
      <point x="597" y="56"/>
      <point x="672" y="133"/>
      <point x="672" y="232" type="curve" smooth="yes"/>
      <point x="672" y="311"/>
      <point x="621" y="355"/>
      <point x="547" y="355" type="curve" smooth="yes"/>
      <point x="474" y="355"/>
      <point x="433" y="313"/>
      <point x="412" y="282" type="curve"/>
      <point x="461" y="519" type="line"/>
      <point x="649" y="519" type="line"/>
      <point x="654" y="542" type="line"/>
      <point x="186" y="542" type="line"/>
    </contour>
  </outline>
</glyph>
<glyph name="ca-tamil" format="2">
  <advance width="661"/>
  <unicode hex="0B9A"/>
  <note>
uni0B9A
</note>
  <anchor x="292" y="0" name="bottom"/>
  <anchor x="600" y="542" name="imatra"/>
  <anchor x="294" y="0" name="nukta"/>
  <anchor x="452" y="542" name="top"/>
  <anchor x="415" y="542" name="vedic"/>
  <outline>
    <contour>
      <point x="195" y="-4" type="curve" smooth="yes"/>
      <point x="302" y="-4"/>
      <point x="366" y="56"/>
      <point x="394" y="182" type="curve" smooth="yes"/>
      <point x="415" y="275" type="line"/>
      <point x="590" y="275" type="line"/>
      <point x="594" y="299" type="line"/>
      <point x="420" y="299" type="line"/>
      <point x="467" y="519" type="line"/>
      <point x="641" y="519" type="line"/>
      <point x="646" y="542" type="line"/>
      <point x="221" y="542" type="line"/>
      <point x="166" y="284" type="line"/>
      <point x="191" y="284" type="line"/>
      <point x="241" y="519" type="line"/>
      <point x="439" y="519" type="line"/>
      <point x="392" y="299" type="line"/>
      <point x="236" y="299" type="line" smooth="yes"/>
      <point x="118" y="299"/>
      <point x="38" y="232"/>
      <point x="38" y="135" type="curve" smooth="yes"/>
      <point x="38" y="52"/>
      <point x="99" y="-4"/>
    </contour>
    <contour>
      <point x="196" y="21" type="curve" smooth="yes"/>
      <point x="119" y="21"/>
      <point x="72" y="65"/>
      <point x="72" y="139" type="curve" smooth="yes"/>
      <point x="72" y="215"/>
      <point x="128" y="275"/>
      <point x="234" y="275" type="curve" smooth="yes"/>
      <point x="387" y="275" type="line"/>
      <point x="366" y="179" type="line" smooth="yes"/>
      <point x="345" y="81"/>
      <point x="287" y="21"/>
    </contour>
  </outline>
</glyph>
<glyph name="nya-tamil" format="2">
  <advance width="1188"/>
  <unicode hex="0B9E"/>
  <note>
uni0B9E
</note>
  <anchor x="575" y="0" name="bottom"/>
  <anchor x="1016" y="542" name="imatra"/>
  <anchor x="520" y="-315" name="nukta"/>
  <anchor x="722" y="542" name="top"/>
  <anchor x="655" y="542" name="vedic"/>
  <outline>
    <contour>
      <point x="520" y="-315" type="curve" smooth="yes"/>
      <point x="846" y="-315"/>
      <point x="1102" y="-122"/>
      <point x="1102" y="164" type="curve" smooth="yes"/>
      <point x="1102" y="271"/>
      <point x="1047" y="328"/>
      <point x="964" y="328" type="curve" smooth="yes"/>
      <point x="878" y="328"/>
      <point x="823" y="266"/>
      <point x="803" y="172" type="curve" smooth="yes"/>
      <point x="800" y="158" type="line"/>
      <point x="818" y="158" type="line"/>
      <point x="821" y="172" type="line" smooth="yes"/>
      <point x="837" y="245"/>
      <point x="880" y="304"/>
      <point x="959" y="304" type="curve" smooth="yes"/>
      <point x="1028" y="304"/>
      <point x="1072" y="256"/>
      <point x="1072" y="164" type="curve" smooth="yes"/>
      <point x="1072" y="-107"/>
      <point x="822" y="-289"/>
      <point x="518" y="-289" type="curve" smooth="yes"/>
      <point x="255" y="-289"/>
      <point x="71" y="-118"/>
      <point x="71" y="137" type="curve" smooth="yes"/>
      <point x="71" y="341"/>
      <point x="160" y="490"/>
      <point x="334" y="634" type="curve"/>
      <point x="317" y="654" type="line"/>
      <point x="138" y="507"/>
      <point x="41" y="346"/>
      <point x="41" y="134" type="curve" smooth="yes"/>
      <point x="41" y="-133"/>
      <point x="239" y="-315"/>
    </contour>
    <component base="e-tamil" xOffset="210"/>
  </outline>
</glyph>
<glyph name="tta-tamil" format="2">
  <advance width="859"/>
  <unicode hex="0B9F"/>
  <note>
uni0B9F
</note>
  <anchor x="430" y="0" name="bottom"/>
  <anchor x="430" y="0" name="nukta"/>
  <anchor x="516" y="542" name="top"/>
  <anchor x="517" y="542" name="vedic"/>
  <outline>
    <contour>
      <point x="71" y="0" type="line"/>
      <point x="780" y="0" type="line"/>
      <point x="785" y="23" type="line"/>
      <point x="104" y="23" type="line"/>
      <point x="214" y="542" type="line"/>
      <point x="186" y="542" type="line"/>
    </contour>
  </outline>
</glyph>
<glyph name="nna-tamil" format="2">
  <advance width="1595"/>
  <unicode hex="0BA3"/>
  <note>
uni0BA3
</note>
  <anchor x="795" y="0" name="bottom"/>
  <anchor x="1539" y="542" name="imatra"/>
  <anchor x="795" y="0" name="nukta"/>
  <anchor x="873" y="542" name="top"/>
  <anchor x="876" y="542" name="vedic"/>
  <outline>
    <contour>
      <point x="603" y="-5" type="curve" smooth="yes"/>
      <point x="695" y="-5"/>
      <point x="781" y="61"/>
      <point x="781" y="217" type="curve" smooth="yes"/>
      <point x="781" y="410"/>
      <point x="633" y="551"/>
      <point x="429" y="551" type="curve" smooth="yes"/>
      <point x="192" y="551"/>
      <point x="51" y="380"/>
      <point x="51" y="210" type="curve" smooth="yes"/>
      <point x="51" y="73"/>
      <point x="124" y="-4"/>
      <point x="224" y="-4" type="curve" smooth="yes"/>
      <point x="312" y="-4"/>
      <point x="378" y="55"/>
      <point x="378" y="155" type="curve" smooth="yes"/>
      <point x="378" y="229"/>
      <point x="331" y="283"/>
      <point x="255" y="283" type="curve" smooth="yes"/>
      <point x="161" y="283"/>
      <point x="104" y="208"/>
      <point x="74" y="133" type="curve"/>
      <point x="85" y="108" type="line"/>
      <point x="121" y="188"/>
      <point x="166" y="258"/>
      <point x="248" y="258" type="curve" smooth="yes"/>
      <point x="318" y="258"/>
      <point x="349" y="213"/>
      <point x="349" y="153" type="curve" smooth="yes"/>
      <point x="349" y="72"/>
      <point x="294" y="21"/>
      <point x="226" y="21" type="curve" smooth="yes"/>
      <point x="138" y="21"/>
      <point x="78" y="88"/>
      <point x="78" y="212" type="curve" smooth="yes"/>
      <point x="78" y="369"/>
      <point x="215" y="527"/>
      <point x="428" y="527" type="curve" smooth="yes"/>
      <point x="620" y="527"/>
      <point x="752" y="395"/>
      <point x="752" y="213" type="curve" smooth="yes"/>
      <point x="752" y="76"/>
      <point x="673" y="21"/>
      <point x="604" y="21" type="curve" smooth="yes"/>
      <point x="537" y="21"/>
      <point x="503" y="77"/>
      <point x="503" y="167" type="curve" smooth="yes"/>
      <point x="503" y="334"/>
      <point x="664" y="527"/>
      <point x="874" y="527" type="curve" smooth="yes"/>
      <point x="1071" y="527"/>
      <point x="1170" y="393"/>
      <point x="1170" y="217" type="curve" smooth="yes"/>
      <point x="1170" y="80"/>
      <point x="1090" y="21"/>
      <point x="1021" y="21" type="curve" smooth="yes"/>
      <point x="951" y="21"/>
      <point x="921" y="74"/>
      <point x="921" y="164" type="curve" smooth="yes"/>
      <point x="921" y="331"/>
      <point x="1100" y="519"/>
      <point x="1308" y="519" type="curve" smooth="yes"/>
      <point x="1622" y="519" type="line"/>
      <point x="1627" y="542" type="line"/>
      <point x="1311" y="542" type="line" smooth="yes"/>
      <point x="1080" y="542"/>
      <point x="894" y="343"/>
      <point x="894" y="156" type="curve" smooth="yes"/>
      <point x="894" y="57"/>
      <point x="934" y="-5"/>
      <point x="1020" y="-5" type="curve" smooth="yes"/>
      <point x="1113" y="-5"/>
      <point x="1199" y="65"/>
      <point x="1199" y="221" type="curve" smooth="yes"/>
      <point x="1199" y="409"/>
      <point x="1088" y="551"/>
      <point x="875" y="551" type="curve" smooth="yes"/>
      <point x="645" y="551"/>
      <point x="476" y="344"/>
      <point x="476" y="159" type="curve" smooth="yes"/>
      <point x="476" y="60"/>
      <point x="520" y="-5"/>
    </contour>
    <contour>
      <point x="1327" y="0" type="line"/>
      <point x="1354" y="0" type="line"/>
      <point x="1467" y="528" type="line"/>
      <point x="1439" y="528" type="line"/>
    </contour>
  </outline>
</glyph>
<glyph name="ta-tamil" format="2">
  <advance width="770"/>
  <unicode hex="0BA4"/>
  <note>
uni0BA4
</note>
  <anchor x="305" y="0" name="bottom"/>
  <anchor x="595" y="542" name="imatra"/>
  <anchor x="278" y="-131" name="nukta"/>
  <anchor x="445" y="542" name="top"/>
  <anchor x="428" y="542" name="vedic"/>
  <outline>
    <contour>
      <point x="43" y="-203" type="curve"/>
      <point x="51" y="-167"/>
      <point x="78" y="-130"/>
      <point x="135" y="-130" type="curve" smooth="yes"/>
      <point x="358" y="-130" type="line" smooth="yes"/>
      <point x="540" y="-130"/>
      <point x="672" y="-46"/>
      <point x="672" y="122" type="curve" smooth="yes"/>
      <point x="672" y="244"/>
      <point x="593" y="299"/>
      <point x="477" y="299" type="curve" smooth="yes"/>
      <point x="422" y="299" type="line"/>
      <point x="469" y="519" type="line"/>
      <point x="645" y="519" type="line"/>
      <point x="650" y="542" type="line"/>
      <point x="223" y="542" type="line"/>
      <point x="168" y="284" type="line"/>
      <point x="193" y="284" type="line"/>
      <point x="243" y="519" type="line"/>
      <point x="441" y="519" type="line"/>
      <point x="394" y="299" type="line"/>
      <point x="238" y="299" type="line" smooth="yes"/>
      <point x="120" y="299"/>
      <point x="40" y="232"/>
      <point x="40" y="135" type="curve" smooth="yes"/>
      <point x="40" y="52"/>
      <point x="101" y="-4"/>
      <point x="197" y="-4" type="curve" smooth="yes"/>
      <point x="304" y="-4"/>
      <point x="368" y="56"/>
      <point x="396" y="182" type="curve" smooth="yes"/>
      <point x="417" y="275" type="line"/>
      <point x="473" y="275" type="line" smooth="yes"/>
      <point x="575" y="275"/>
      <point x="644" y="229"/>
      <point x="644" y="121" type="curve" smooth="yes"/>
      <point x="644" y="-30"/>
      <point x="516" y="-107"/>
      <point x="359" y="-107" type="curve" smooth="yes"/>
      <point x="105" y="-107" type="line" smooth="yes"/>
      <point x="48" y="-107"/>
      <point x="7" y="-131"/>
      <point x="7" y="-167" type="curve" smooth="yes"/>
      <point x="7" y="-189"/>
      <point x="19" y="-203"/>
    </contour>
    <contour>
      <point x="198" y="21" type="curve" smooth="yes"/>
      <point x="121" y="21"/>
      <point x="74" y="65"/>
      <point x="74" y="139" type="curve" smooth="yes"/>
      <point x="74" y="215"/>
      <point x="130" y="275"/>
      <point x="236" y="275" type="curve" smooth="yes"/>
      <point x="389" y="275" type="line"/>
      <point x="368" y="179" type="line" smooth="yes"/>
      <point x="347" y="81"/>
      <point x="289" y="21"/>
    </contour>
  </outline>
</glyph>
<glyph name="na-tamil" format="2">
  <advance width="771"/>
  <unicode hex="0BA8"/>
  <note>
uni0BA8
</note>
  <anchor x="331" y="0" name="bottom"/>
  <anchor x="580" y="542" name="imatra"/>
  <anchor x="307" y="-171" name="nukta"/>
  <anchor x="471" y="542" name="top"/>
  <anchor x="461" y="542" name="vedic"/>
  <outline>
    <contour>
      <point x="48" y="-203" type="curve"/>
      <point x="56" y="-167"/>
      <point x="83" y="-130"/>
      <point x="140" y="-130" type="curve" smooth="yes"/>
      <point x="336" y="-130" type="line" smooth="yes"/>
      <point x="537" y="-130"/>
      <point x="690" y="-18"/>
      <point x="690" y="178" type="curve" smooth="yes"/>
      <point x="690" y="273"/>
      <point x="638" y="328"/>
      <point x="556" y="328" type="curve" smooth="yes"/>
      <point x="481" y="328"/>
      <point x="440" y="282"/>
      <point x="419" y="250" type="curve"/>
      <point x="477" y="519" type="line"/>
      <point x="639" y="519" type="line"/>
      <point x="644" y="542" type="line"/>
      <point x="186" y="542" type="line"/>
      <point x="71" y="0" type="line"/>
      <point x="96" y="0" type="line"/>
      <point x="206" y="519" type="line"/>
      <point x="449" y="519" type="line"/>
      <point x="338" y="0" type="line"/>
      <point x="367" y="0" type="line"/>
      <point x="402" y="168" type="line" smooth="yes"/>
      <point x="413" y="221"/>
      <point x="465" y="304"/>
      <point x="551" y="304" type="curve" smooth="yes"/>
      <point x="619" y="304"/>
      <point x="658" y="260"/>
      <point x="658" y="178" type="curve" smooth="yes"/>
      <point x="658" y="-4"/>
      <point x="519" y="-107"/>
      <point x="338" y="-107" type="curve" smooth="yes"/>
      <point x="110" y="-107" type="line" smooth="yes"/>
      <point x="53" y="-107"/>
      <point x="12" y="-131"/>
      <point x="12" y="-167" type="curve" smooth="yes"/>
      <point x="12" y="-189"/>
      <point x="24" y="-203"/>
    </contour>
  </outline>
</glyph>
<glyph name="nnna-tamil" format="2">
  <advance width="1197"/>
  <unicode hex="0BA9"/>
  <note>
uni0BA9
</note>
  <anchor x="566" y="0" name="bottom"/>
  <anchor x="1141" y="542" name="imatra"/>
  <anchor x="568" y="0" name="nukta"/>
  <anchor x="678" y="542" name="top"/>
  <anchor x="677" y="542" name="vedic"/>
  <outline>
    <contour>
      <point x="224" y="-4" type="curve" smooth="yes"/>
      <point x="312" y="-4"/>
      <point x="378" y="55"/>
      <point x="378" y="155" type="curve" smooth="yes"/>
      <point x="378" y="229"/>
      <point x="331" y="283"/>
      <point x="255" y="283" type="curve" smooth="yes"/>
      <point x="161" y="283"/>
      <point x="104" y="208"/>
      <point x="74" y="133" type="curve"/>
      <point x="85" y="108" type="line"/>
      <point x="121" y="188"/>
      <point x="166" y="258"/>
      <point x="248" y="258" type="curve" smooth="yes"/>
      <point x="318" y="258"/>
      <point x="349" y="213"/>
      <point x="349" y="153" type="curve" smooth="yes"/>
      <point x="349" y="72"/>
      <point x="294" y="21"/>
      <point x="226" y="21" type="curve" smooth="yes"/>
      <point x="138" y="21"/>
      <point x="78" y="88"/>
      <point x="78" y="212" type="curve" smooth="yes"/>
      <point x="78" y="369"/>
      <point x="211" y="527"/>
      <point x="421" y="527" type="curve" smooth="yes"/>
      <point x="628" y="527"/>
      <point x="752" y="399"/>
      <point x="752" y="217" type="curve" smooth="yes"/>
      <point x="752" y="80"/>
      <point x="670" y="21"/>
      <point x="603" y="21" type="curve" smooth="yes"/>
      <point x="532" y="21"/>
      <point x="503" y="74"/>
      <point x="503" y="164" type="curve" smooth="yes"/>
      <point x="503" y="331"/>
      <point x="701" y="519"/>
      <point x="909" y="519" type="curve" smooth="yes"/>
      <point x="1224" y="519" type="line"/>
      <point x="1229" y="542" type="line"/>
      <point x="912" y="542" type="line" smooth="yes"/>
      <point x="674" y="542"/>
      <point x="476" y="343"/>
      <point x="476" y="156" type="curve" smooth="yes"/>
      <point x="476" y="57"/>
      <point x="515" y="-5"/>
      <point x="602" y="-5" type="curve" smooth="yes"/>
      <point x="693" y="-5"/>
      <point x="781" y="65"/>
      <point x="781" y="221" type="curve" smooth="yes"/>
      <point x="781" y="415"/>
      <point x="643" y="551"/>
      <point x="422" y="551" type="curve" smooth="yes"/>
      <point x="187" y="551"/>
      <point x="51" y="380"/>
      <point x="51" y="210" type="curve" smooth="yes"/>
      <point x="51" y="73"/>
      <point x="124" y="-4"/>
    </contour>
    <contour>
      <point x="929" y="0" type="line"/>
      <point x="956" y="0" type="line"/>
      <point x="1069" y="528" type="line"/>
      <point x="1041" y="528" type="line"/>
    </contour>
  </outline>
</glyph>
<glyph name="pa-tamil" format="2">
  <advance width="870"/>
  <unicode hex="0BAA"/>
  <note>
uni0BAA
</note>
  <anchor x="382" y="0" name="bottom"/>
  <anchor x="788" y="542" name="imatra"/>
  <anchor x="382" y="0" name="nukta"/>
  <anchor x="483" y="542" name="top"/>
  <anchor x="480" y="542" name="vedic"/>
  <outline>
    <contour>
      <point x="71" y="0" type="line"/>
      <point x="684" y="0" type="line"/>
      <point x="799" y="542" type="line"/>
      <point x="771" y="542" type="line"/>
      <point x="660" y="23" type="line"/>
      <point x="104" y="23" type="line"/>
      <point x="214" y="542" type="line"/>
      <point x="186" y="542" type="line"/>
    </contour>
  </outline>
</glyph>
<glyph name="ma-tamil" format="2">
  <advance width="885"/>
  <unicode hex="0BAE"/>
  <note>
uni0BAE
</note>
  <anchor x="395" y="0" name="bottom"/>
  <anchor x="866" y="542" name="imatra"/>
  <anchor x="396" y="0" name="nukta"/>
  <anchor x="532" y="542" name="top"/>
  <anchor x="531" y="542" name="vedic"/>
  <outline>
    <contour>
      <point x="71" y="0" type="line"/>
      <point x="598" y="0" type="line" smooth="yes"/>
      <point x="736" y="0"/>
      <point x="811" y="131"/>
      <point x="811" y="304" type="curve" smooth="yes"/>
      <point x="811" y="459"/>
      <point x="748" y="551"/>
      <point x="638" y="551" type="curve" smooth="yes"/>
      <point x="537" y="551"/>
      <point x="497" y="486"/>
      <point x="474" y="378" type="curve" smooth="yes"/>
      <point x="399" y="23" type="line"/>
      <point x="104" y="23" type="line"/>
      <point x="214" y="542" type="line"/>
      <point x="186" y="542" type="line"/>
    </contour>
    <contour>
      <point x="427" y="23" type="line"/>
      <point x="503" y="378" type="line" smooth="yes"/>
      <point x="524" y="476"/>
      <point x="554" y="527"/>
      <point x="638" y="527" type="curve" smooth="yes"/>
      <point x="728" y="527"/>
      <point x="782" y="443"/>
      <point x="782" y="302" type="curve" smooth="yes"/>
      <point x="782" y="150"/>
      <point x="715" y="23"/>
      <point x="599" y="23" type="curve" smooth="yes"/>
    </contour>
  </outline>
</glyph>
<glyph name="ya-tamil" format="2">
  <advance width="923"/>
  <unicode hex="0BAF"/>
  <note>
uni0BAF
</note>
  <anchor x="417" y="0" name="bottom"/>
  <anchor x="842" y="542" name="imatra"/>
  <anchor x="417" y="0" name="nukta"/>
  <anchor x="524" y="542" name="top"/>
  <anchor x="521" y="542" name="vedic"/>
  <outline>
    <contour>
      <point x="200" y="-5" type="curve" smooth="yes"/>
      <point x="258" y="-5"/>
      <point x="298" y="23"/>
      <point x="330" y="67" type="curve"/>
      <point x="316" y="0" type="line"/>
      <point x="737" y="0" type="line"/>
      <point x="852" y="542" type="line"/>
      <point x="823" y="542" type="line"/>
      <point x="712" y="23" type="line"/>
      <point x="347" y="23" type="line"/>
      <point x="457" y="542" type="line"/>
      <point x="429" y="542" type="line"/>
      <point x="344" y="141" type="line" smooth="yes"/>
      <point x="331" y="80"/>
      <point x="273" y="21"/>
      <point x="205" y="21" type="curve" smooth="yes"/>
      <point x="142" y="21"/>
      <point x="109" y="68"/>
      <point x="124" y="140" type="curve" smooth="yes"/>
      <point x="209" y="542" type="line"/>
      <point x="181" y="542" type="line"/>
      <point x="96" y="145" type="line" smooth="yes"/>
      <point x="76" y="51"/>
      <point x="127" y="-5"/>
    </contour>
  </outline>
</glyph>
<glyph name="la-tamil" format="2">
  <advance width="989"/>
  <unicode hex="0BB2"/>
  <note>
uni0BB2
</note>
  <anchor x="439" y="0" name="bottom"/>
  <anchor x="439" y="0" name="nukta"/>
  <anchor x="568" y="542" name="top"/>
  <anchor x="555" y="542" name="vedic"/>
  <outline>
    <contour>
      <point x="225" y="-4" type="curve" smooth="yes"/>
      <point x="313" y="-4"/>
      <point x="379" y="55"/>
      <point x="379" y="155" type="curve" smooth="yes"/>
      <point x="379" y="229"/>
      <point x="332" y="283"/>
      <point x="256" y="283" type="curve" smooth="yes"/>
      <point x="162" y="283"/>
      <point x="105" y="208"/>
      <point x="75" y="133" type="curve"/>
      <point x="86" y="108" type="line"/>
      <point x="122" y="188"/>
      <point x="167" y="258"/>
      <point x="249" y="258" type="curve" smooth="yes"/>
      <point x="319" y="258"/>
      <point x="350" y="213"/>
      <point x="350" y="153" type="curve" smooth="yes"/>
      <point x="350" y="72"/>
      <point x="295" y="21"/>
      <point x="227" y="21" type="curve" smooth="yes"/>
      <point x="139" y="21"/>
      <point x="79" y="88"/>
      <point x="79" y="212" type="curve" smooth="yes"/>
      <point x="79" y="369"/>
      <point x="202" y="527"/>
      <point x="386" y="527" type="curve" smooth="yes"/>
      <point x="525" y="527"/>
      <point x="589" y="434"/>
      <point x="561" y="303" type="curve" smooth="yes"/>
      <point x="533" y="170" type="line" smooth="yes"/>
      <point x="512" y="70"/>
      <point x="556" y="-4"/>
      <point x="658" y="-4" type="curve" smooth="yes"/>
      <point x="814" y="-4"/>
      <point x="934" y="148"/>
      <point x="934" y="345" type="curve" smooth="yes"/>
      <point x="934" y="425"/>
      <point x="915" y="487"/>
      <point x="875" y="547" type="curve"/>
      <point x="849" y="530" type="line"/>
      <point x="884" y="479"/>
      <point x="905" y="410"/>
      <point x="905" y="344" type="curve" smooth="yes"/>
      <point x="905" y="168"/>
      <point x="797" y="20"/>
      <point x="659" y="20" type="curve" smooth="yes"/>
      <point x="576" y="20"/>
      <point x="542" y="79"/>
      <point x="561" y="168" type="curve" smooth="yes"/>
      <point x="589" y="301" type="line" smooth="yes"/>
      <point x="620" y="446"/>
      <point x="550" y="551"/>
      <point x="387" y="551" type="curve" smooth="yes"/>
      <point x="178" y="551"/>
      <point x="52" y="380"/>
      <point x="52" y="210" type="curve" smooth="yes"/>
      <point x="52" y="73"/>
      <point x="125" y="-4"/>
    </contour>
  </outline>
</glyph>
<glyph name="va-tamil" format="2">
  <advance width="1124"/>
  <unicode hex="0BB5"/>
  <note>
uni0BB5
</note>
  <anchor x="500" y="0" name="bottom"/>
  <anchor x="1032" y="542" name="imatra"/>
  <anchor x="500" y="0" name="nukta"/>
  <anchor x="601" y="542" name="top"/>
  <anchor x="597" y="542" name="vedic"/>
  <outline>
    <contour>
      <point x="223" y="-4" type="curve" smooth="yes"/>
      <point x="311" y="-4"/>
      <point x="377" y="55"/>
      <point x="377" y="155" type="curve" smooth="yes"/>
      <point x="377" y="229"/>
      <point x="330" y="283"/>
      <point x="254" y="283" type="curve" smooth="yes"/>
      <point x="160" y="283"/>
      <point x="103" y="208"/>
      <point x="73" y="133" type="curve"/>
      <point x="84" y="108" type="line"/>
      <point x="120" y="188"/>
      <point x="165" y="258"/>
      <point x="247" y="258" type="curve" smooth="yes"/>
      <point x="317" y="258"/>
      <point x="348" y="213"/>
      <point x="348" y="153" type="curve" smooth="yes"/>
      <point x="348" y="72"/>
      <point x="293" y="21"/>
      <point x="225" y="21" type="curve" smooth="yes"/>
      <point x="137" y="21"/>
      <point x="77" y="88"/>
      <point x="77" y="212" type="curve" smooth="yes"/>
      <point x="77" y="369"/>
      <point x="229" y="527"/>
      <point x="417" y="527" type="curve" smooth="yes"/>
      <point x="551" y="527"/>
      <point x="671" y="453"/>
      <point x="671" y="301" type="curve" smooth="yes"/>
      <point x="671" y="172"/>
      <point x="594" y="86"/>
      <point x="521" y="19" type="curve"/>
      <point x="527" y="0" type="line"/>
      <point x="938" y="0" type="line"/>
      <point x="1053" y="542" type="line"/>
      <point x="1025" y="542" type="line"/>
      <point x="914" y="23" type="line"/>
      <point x="559" y="23" type="line"/>
      <point x="623" y="80"/>
      <point x="699" y="168"/>
      <point x="699" y="304" type="curve" smooth="yes"/>
      <point x="699" y="470"/>
      <point x="574" y="551"/>
      <point x="418" y="551" type="curve" smooth="yes"/>
      <point x="205" y="551"/>
      <point x="50" y="380"/>
      <point x="50" y="210" type="curve" smooth="yes"/>
      <point x="50" y="73"/>
      <point x="123" y="-4"/>
    </contour>
  </outline>
</glyph>
<glyph name="sha-tamil" format="2">
  <advance width="1106"/>
  <unicode hex="0BB6"/>
  <note>
uni0BB6
</note>
  <anchor x="511" y="0" name="bottom"/>
  <anchor x="919" y="542" name="imatra"/>
  <anchor x="511" y="0" name="nukta"/>
  <anchor x="629" y="542" name="top"/>
  <anchor x="636" y="542" name="vedic"/>
  <outline>
    <contour>
      <point x="252" y="-9" type="curve" smooth="yes"/>
      <point x="344" y="-9"/>
      <point x="425" y="33"/>
      <point x="455" y="173" type="curve" smooth="yes"/>
      <point x="529" y="519" type="line"/>
      <point x="712" y="519" type="line"/>
      <point x="640" y="181" type="line" smooth="yes"/>
      <point x="616" y="69"/>
      <point x="639" y="-9"/>
      <point x="743" y="-9" type="curve" smooth="yes"/>
      <point x="919" y="-9"/>
      <point x="1055" y="210"/>
      <point x="1055" y="400" type="curve" smooth="yes"/>
      <point x="1055" y="499"/>
      <point x="1013" y="542"/>
      <point x="921" y="542" type="curve" smooth="yes"/>
      <point x="508" y="542" type="line"/>
      <point x="430" y="178" type="line" smooth="yes"/>
      <point x="403" y="52"/>
      <point x="331" y="15"/>
      <point x="252" y="15" type="curve" smooth="yes"/>
      <point x="151" y="15"/>
      <point x="114" y="97"/>
      <point x="137" y="203" type="curve" smooth="yes"/>
      <point x="209" y="542" type="line"/>
      <point x="181" y="542" type="line"/>
      <point x="109" y="203" type="line" smooth="yes"/>
      <point x="83" y="87"/>
      <point x="132" y="-9"/>
    </contour>
    <contour>
      <point x="744" y="15" type="curve" smooth="yes"/>
      <point x="659" y="15"/>
      <point x="646" y="83"/>
      <point x="667" y="177" type="curve" smooth="yes"/>
      <point x="739" y="519" type="line"/>
      <point x="914" y="519" type="line" smooth="yes"/>
      <point x="989" y="519"/>
      <point x="1028" y="488"/>
      <point x="1028" y="400" type="curve" smooth="yes"/>
      <point x="1028" y="230"/>
      <point x="903" y="15"/>
    </contour>
  </outline>
</glyph>
<glyph name="sa-tamil" format="2">
  <advance width="1222"/>
  <unicode hex="0BB8"/>
  <note>
uni0BB8
</note>
  <anchor x="577" y="0" name="bottom"/>
  <anchor x="577" y="0" name="nukta"/>
  <anchor x="684" y="542" name="top"/>
  <anchor x="671" y="542" name="vedic"/>
  <outline>
    <contour>
      <point x="501" y="0" type="line"/>
      <point x="528" y="0" type="line"/>
      <point x="615" y="406" type="line" smooth="yes"/>
      <point x="631" y="481"/>
      <point x="667" y="527"/>
      <point x="731" y="527" type="curve" smooth="yes"/>
      <point x="799" y="527"/>
      <point x="831" y="474"/>
      <point x="817" y="410" type="curve" smooth="yes"/>
      <point x="766" y="170" type="line" smooth="yes"/>
      <point x="745" y="70"/>
      <point x="789" y="-4"/>
      <point x="891" y="-4" type="curve" smooth="yes"/>
      <point x="1047" y="-4"/>
      <point x="1167" y="148"/>
      <point x="1167" y="345" type="curve" smooth="yes"/>
      <point x="1167" y="425"/>
      <point x="1148" y="487"/>
      <point x="1108" y="547" type="curve"/>
      <point x="1082" y="530" type="line"/>
      <point x="1117" y="479"/>
      <point x="1138" y="410"/>
      <point x="1138" y="344" type="curve" smooth="yes"/>
      <point x="1138" y="168"/>
      <point x="1030" y="20"/>
      <point x="892" y="20" type="curve" smooth="yes"/>
      <point x="809" y="20"/>
      <point x="775" y="79"/>
      <point x="794" y="168" type="curve" smooth="yes"/>
      <point x="844" y="405" type="line" smooth="yes"/>
      <point x="862" y="489"/>
      <point x="817" y="551"/>
      <point x="733" y="551" type="curve" smooth="yes"/>
      <point x="652" y="551"/>
      <point x="606" y="489"/>
      <point x="590" y="412" type="curve" smooth="yes"/>
      <point x="581" y="368" type="line"/>
      <point x="579" y="368" type="line"/>
    </contour>
    <contour>
      <point x="225" y="-4" type="curve" smooth="yes"/>
      <point x="313" y="-4"/>
      <point x="379" y="55"/>
      <point x="379" y="155" type="curve" smooth="yes"/>
      <point x="379" y="229"/>
      <point x="332" y="283"/>
      <point x="256" y="283" type="curve" smooth="yes"/>
      <point x="162" y="283"/>
      <point x="105" y="208"/>
      <point x="75" y="133" type="curve"/>
      <point x="86" y="108" type="line"/>
      <point x="122" y="188"/>
      <point x="167" y="258"/>
      <point x="249" y="258" type="curve" smooth="yes"/>
      <point x="319" y="258"/>
      <point x="350" y="213"/>
      <point x="350" y="153" type="curve" smooth="yes"/>
      <point x="350" y="72"/>
      <point x="295" y="21"/>
      <point x="227" y="21" type="curve" smooth="yes"/>
      <point x="139" y="21"/>
      <point x="79" y="88"/>
      <point x="79" y="212" type="curve" smooth="yes"/>
      <point x="79" y="366"/>
      <point x="199" y="527"/>
      <point x="385" y="527" type="curve" smooth="yes"/>
      <point x="507" y="527"/>
      <point x="596" y="445"/>
      <point x="565" y="303" type="curve"/>
      <point x="591" y="301" type="line"/>
      <point x="627" y="467"/>
      <point x="524" y="551"/>
      <point x="386" y="551" type="curve" smooth="yes"/>
      <point x="175" y="551"/>
      <point x="52" y="377"/>
      <point x="52" y="210" type="curve" smooth="yes"/>
      <point x="52" y="73"/>
      <point x="125" y="-4"/>
    </contour>
  </outline>
</glyph>
<glyph name="ha-tamil" format="2">
  <advance width="1560"/>
  <unicode hex="0BB9"/>
  <note>
uni0BB9
</note>
  <anchor x="740" y="0" name="bottom"/>
  <anchor x="710" y="-139" name="nukta"/>
  <anchor x="857" y="542" name="top"/>
  <anchor x="853" y="542" name="vedic"/>
  <outline>
    <contour>
      <point x="55" y="-210" type="curve"/>
      <point x="63" y="-174"/>
      <point x="90" y="-138"/>
      <point x="147" y="-138" type="curve" smooth="yes"/>
      <point x="984" y="-138" type="line" smooth="yes"/>
      <point x="1279" y="-138"/>
      <point x="1491" y="20"/>
      <point x="1491" y="329" type="curve" smooth="yes"/>
      <point x="1491" y="471"/>
      <point x="1422" y="551"/>
      <point x="1312" y="551" type="curve" smooth="yes"/>
      <point x="1218" y="551"/>
      <point x="1171" y="492"/>
      <point x="1149" y="452" type="curve"/>
      <point x="1142" y="493"/>
      <point x="1108" y="551"/>
      <point x="1028" y="551" type="curve" smooth="yes"/>
      <point x="944" y="551"/>
      <point x="890" y="490"/>
      <point x="872" y="403" type="curve" smooth="yes"/>
      <point x="792" y="23" type="line"/>
      <point x="560" y="23" type="line"/>
      <point x="624" y="80"/>
      <point x="700" y="161"/>
      <point x="700" y="297" type="curve" smooth="yes"/>
      <point x="700" y="463"/>
      <point x="565" y="551"/>
      <point x="409" y="551" type="curve" smooth="yes"/>
      <point x="196" y="551"/>
      <point x="51" y="380"/>
      <point x="51" y="210" type="curve" smooth="yes"/>
      <point x="51" y="73"/>
      <point x="124" y="-4"/>
      <point x="224" y="-4" type="curve" smooth="yes"/>
      <point x="312" y="-4"/>
      <point x="378" y="55"/>
      <point x="378" y="155" type="curve" smooth="yes"/>
      <point x="378" y="229"/>
      <point x="331" y="283"/>
      <point x="255" y="283" type="curve" smooth="yes"/>
      <point x="161" y="283"/>
      <point x="104" y="208"/>
      <point x="74" y="133" type="curve"/>
      <point x="85" y="108" type="line"/>
      <point x="121" y="188"/>
      <point x="166" y="258"/>
      <point x="248" y="258" type="curve" smooth="yes"/>
      <point x="318" y="258"/>
      <point x="349" y="213"/>
      <point x="349" y="153" type="curve" smooth="yes"/>
      <point x="349" y="72"/>
      <point x="294" y="21"/>
      <point x="226" y="21" type="curve" smooth="yes"/>
      <point x="138" y="21"/>
      <point x="78" y="88"/>
      <point x="78" y="212" type="curve" smooth="yes"/>
      <point x="78" y="369"/>
      <point x="220" y="527"/>
      <point x="408" y="527" type="curve" smooth="yes"/>
      <point x="542" y="527"/>
      <point x="672" y="446"/>
      <point x="672" y="294" type="curve" smooth="yes"/>
      <point x="672" y="165"/>
      <point x="595" y="86"/>
      <point x="522" y="19" type="curve"/>
      <point x="528" y="0" type="line"/>
      <point x="811" y="0" type="line"/>
      <point x="898" y="405" type="line" smooth="yes"/>
      <point x="912" y="471"/>
      <point x="956" y="527"/>
      <point x="1028" y="527" type="curve" smooth="yes"/>
      <point x="1096" y="527"/>
      <point x="1139" y="470"/>
      <point x="1123" y="394" type="curve" smooth="yes"/>
      <point x="1039" y="0" type="line"/>
      <point x="1067" y="0" type="line"/>
      <point x="1151" y="393" type="line" smooth="yes"/>
      <point x="1168" y="471"/>
      <point x="1228" y="527"/>
      <point x="1310" y="527" type="curve" smooth="yes"/>
      <point x="1391" y="527"/>
      <point x="1463" y="466"/>
      <point x="1463" y="328" type="curve" smooth="yes"/>
      <point x="1463" y="32"/>
      <point x="1258" y="-112"/>
      <point x="977" y="-112" type="curve" smooth="yes"/>
      <point x="117" y="-112" type="line" smooth="yes"/>
      <point x="60" y="-112"/>
      <point x="19" y="-138"/>
      <point x="19" y="-174" type="curve" smooth="yes"/>
      <point x="19" y="-196"/>
      <point x="31" y="-210"/>
    </contour>
  </outline>
</glyph>
<glyph name="aaMatra-tamil" format="2">
  <advance width="696"/>
  <unicode hex="0BBE"/>
  <note>
uni0BBE
</note>
  <anchor x="324" y="0" name="bottom"/>
  <anchor x="323" y="0" name="nukta"/>
  <anchor x="432" y="542" name="top"/>
  <anchor x="432" y="542" name="vedic"/>
  <outline>
    <contour>
      <point x="71" y="0" type="line"/>
      <point x="96" y="0" type="line"/>
      <point x="206" y="519" type="line"/>
      <point x="492" y="519" type="line"/>
      <point x="381" y="0" type="line"/>
      <point x="410" y="0" type="line"/>
      <point x="520" y="519" type="line"/>
      <point x="723" y="519" type="line"/>
      <point x="728" y="542" type="line"/>
      <point x="186" y="542" type="line"/>
    </contour>
  </outline>
</glyph>
<glyph name="iMatra-tamil" format="2">
  <advance width="229"/>
  <unicode hex="0BBF"/>
  <note>
uni0BBF
</note>
  <anchor x="-16" y="800" name="top"/>
  <outline>
    <contour>
      <point x="37" y="0" type="line"/>
      <point x="66" y="0" type="line"/>
      <point x="179" y="531" type="line" smooth="yes"/>
      <point x="215" y="698"/>
      <point x="130" y="800"/>
      <point x="-16" y="800" type="curve" smooth="yes"/>
      <point x="-139" y="800"/>
      <point x="-217" y="724"/>
      <point x="-217" y="633" type="curve" smooth="yes"/>
      <point x="-217" y="566"/>
      <point x="-167" y="519"/>
      <point x="-111" y="519" type="curve" smooth="yes"/>
      <point x="-103" y="519" type="line"/>
      <point x="-99" y="542" type="line"/>
      <point x="-103" y="542" type="line" smooth="yes"/>
      <point x="-153" y="542"/>
      <point x="-190" y="579"/>
      <point x="-190" y="630" type="curve" smooth="yes"/>
      <point x="-190" y="710"/>
      <point x="-118" y="770"/>
      <point x="-20" y="770" type="curve" smooth="yes"/>
      <point x="114" y="770"/>
      <point x="181" y="678"/>
      <point x="149" y="527" type="curve" smooth="yes"/>
    </contour>
  </outline>
</glyph>
<glyph name="iiMatra-tamil" format="2">
  <unicode hex="0BC0"/>
  <note>
uni0BC0
</note>
  <anchor x="56" y="542" name="_imatra"/>
  <outline>
    <contour>
      <point x="37" y="521" type="curve" smooth="yes"/>
      <point x="52" y="521" type="line"/>
      <point x="56" y="542" type="line"/>
      <point x="42" y="542" type="line" smooth="yes"/>
      <point x="-35" y="542"/>
      <point x="-76" y="590"/>
      <point x="-76" y="668" type="curve" smooth="yes"/>
      <point x="-76" y="768"/>
      <point x="2" y="850"/>
      <point x="122" y="850" type="curve" smooth="yes"/>
      <point x="193" y="850"/>
      <point x="257" y="817"/>
      <point x="257" y="744" type="curve" smooth="yes"/>
      <point x="257" y="687"/>
      <point x="217" y="645"/>
      <point x="156" y="645" type="curve" smooth="yes"/>
      <point x="95" y="645"/>
      <point x="66" y="682"/>
      <point x="66" y="733" type="curve" smooth="yes"/>
      <point x="66" y="769"/>
      <point x="81" y="813"/>
      <point x="110" y="855" type="curve"/>
      <point x="90" y="859" type="line"/>
      <point x="56" y="815"/>
      <point x="40" y="768"/>
      <point x="40" y="728" type="curve" smooth="yes"/>
      <point x="40" y="667"/>
      <point x="78" y="622"/>
      <point x="154" y="622" type="curve" smooth="yes"/>
      <point x="231" y="622"/>
      <point x="285" y="670"/>
      <point x="285" y="748" type="curve" smooth="yes"/>
      <point x="285" y="830"/>
      <point x="212" y="872"/>
      <point x="123" y="872" type="curve" smooth="yes"/>
      <point x="-13" y="872"/>
      <point x="-106" y="779"/>
      <point x="-106" y="667" type="curve" smooth="yes"/>
      <point x="-106" y="580"/>
      <point x="-51" y="521"/>
    </contour>
  </outline>
</glyph>
<glyph name="uMatra-tamil" format="2">
  <advance width="536"/>
  <unicode hex="0BC1"/>
  <note>
uni0BC1
</note>
  <outline>
    <contour>
      <point x="347" y="229" type="curve" smooth="yes"/>
      <point x="437" y="229"/>
      <point x="501" y="284"/>
      <point x="523" y="390" type="curve" smooth="yes"/>
      <point x="555" y="542" type="line"/>
      <point x="-173" y="542" type="line"/>
      <point x="-155" y="519" type="line"/>
      <point x="522" y="519" type="line"/>
      <point x="494" y="389" type="line" smooth="yes"/>
      <point x="476" y="307"/>
      <point x="424" y="255"/>
      <point x="348" y="255" type="curve" smooth="yes"/>
      <point x="259" y="255"/>
      <point x="220" y="323"/>
      <point x="242" y="425" type="curve" smooth="yes"/>
      <point x="264" y="529" type="line"/>
      <point x="239" y="529" type="line"/>
      <point x="217" y="426" type="line" smooth="yes"/>
      <point x="192" y="310"/>
      <point x="241" y="229"/>
    </contour>
  </outline>
</glyph>
<glyph name="uuMatra-tamil" format="2">
  <advance width="854"/>
  <unicode hex="0BC2"/>
  <note>
uni0BC2
</note>
  <outline>
    <contour>
      <point x="382" y="1" type="curve" smooth="yes"/>
      <point x="648" y="1"/>
      <point x="836" y="210"/>
      <point x="836" y="471" type="curve" smooth="yes"/>
      <point x="836" y="684"/>
      <point x="713" y="780"/>
      <point x="548" y="780" type="curve" smooth="yes"/>
      <point x="361" y="780"/>
      <point x="267" y="660"/>
      <point x="239" y="529" type="curve" smooth="yes"/>
      <point x="217" y="426" type="line" smooth="yes"/>
      <point x="192" y="310"/>
      <point x="241" y="229"/>
      <point x="347" y="229" type="curve" smooth="yes"/>
      <point x="437" y="229"/>
      <point x="501" y="284"/>
      <point x="523" y="390" type="curve" smooth="yes"/>
      <point x="555" y="542" type="line"/>
      <point x="-177" y="542" type="line"/>
      <point x="-160" y="519" type="line"/>
      <point x="522" y="519" type="line"/>
      <point x="494" y="389" type="line" smooth="yes"/>
      <point x="476" y="307"/>
      <point x="424" y="255"/>
      <point x="348" y="255" type="curve" smooth="yes"/>
      <point x="259" y="255"/>
      <point x="220" y="323"/>
      <point x="242" y="425" type="curve" smooth="yes"/>
      <point x="264" y="529" type="line" smooth="yes"/>
      <point x="289" y="646"/>
      <point x="378" y="756"/>
      <point x="545" y="756" type="curve" smooth="yes"/>
      <point x="698" y="756"/>
      <point x="808" y="670"/>
      <point x="808" y="469" type="curve" smooth="yes"/>
      <point x="808" y="231"/>
      <point x="628" y="25"/>
      <point x="383" y="25" type="curve" smooth="yes"/>
      <point x="248" y="25"/>
      <point x="164" y="67"/>
      <point x="98" y="153" type="curve"/>
      <point x="74" y="135" type="line"/>
      <point x="144" y="47"/>
      <point x="230" y="1"/>
    </contour>
  </outline>
</glyph>
<glyph name="eMatra-tamil" format="2">
  <advance width="795"/>
  <unicode hex="0BC6"/>
  <note>
uni0BC6
</note>
  <outline>
    <contour>
      <point x="253" y="-4" type="curve" smooth="yes"/>
      <point x="344" y="-4"/>
      <point x="412" y="57"/>
      <point x="412" y="155" type="curve" smooth="yes"/>
      <point x="412" y="229"/>
      <point x="363" y="290"/>
      <point x="280" y="290" type="curve" smooth="yes"/>
      <point x="186" y="290"/>
      <point x="130" y="215"/>
      <point x="100" y="140" type="curve"/>
      <point x="111" y="115" type="line"/>
      <point x="147" y="195"/>
      <point x="191" y="265"/>
      <point x="273" y="265" type="curve" smooth="yes"/>
      <point x="349" y="265"/>
      <point x="383" y="213"/>
      <point x="383" y="153" type="curve" smooth="yes"/>
      <point x="383" y="72"/>
      <point x="326" y="21"/>
      <point x="255" y="21" type="curve" smooth="yes"/>
      <point x="164" y="21"/>
      <point x="96" y="101"/>
      <point x="96" y="265" type="curve" smooth="yes"/>
      <point x="96" y="511"/>
      <point x="252" y="770"/>
      <point x="494" y="770" type="curve" smooth="yes"/>
      <point x="630" y="770"/>
      <point x="715" y="692"/>
      <point x="715" y="558" type="curve" smooth="yes"/>
      <point x="715" y="533"/>
      <point x="712" y="507"/>
      <point x="706" y="478" type="curve" smooth="yes"/>
      <point x="603" y="0" type="line"/>
      <point x="631" y="0" type="line"/>
      <point x="736" y="487" type="line" smooth="yes"/>
      <point x="742" y="515"/>
      <point x="745" y="541"/>
      <point x="745" y="566" type="curve" smooth="yes"/>
      <point x="745" y="710"/>
      <point x="647" y="800"/>
      <point x="497" y="800" type="curve" smooth="yes"/>
      <point x="235" y="800"/>
      <point x="69" y="532"/>
      <point x="69" y="263" type="curve" smooth="yes"/>
      <point x="69" y="86"/>
      <point x="150" y="-4"/>
    </contour>
  </outline>
</glyph>
<glyph name="eeMatra-tamil" format="2">
  <advance width="582"/>
  <unicode hex="0BC7"/>
  <note>
uni0BC7
</note>
  <outline>
    <contour>
      <point x="330" y="-4" type="curve" smooth="yes"/>
      <point x="429" y="-4"/>
      <point x="498" y="56"/>
      <point x="498" y="156" type="curve" smooth="yes"/>
      <point x="498" y="236"/>
      <point x="445" y="283"/>
      <point x="374" y="283" type="curve" smooth="yes"/>
      <point x="267" y="283"/>
      <point x="202" y="196"/>
      <point x="171" y="79" type="curve"/>
      <point x="188" y="60" type="line"/>
      <point x="220" y="176"/>
      <point x="278" y="258"/>
      <point x="373" y="258" type="curve" smooth="yes"/>
      <point x="431" y="258"/>
      <point x="470" y="216"/>
      <point x="470" y="154" type="curve" smooth="yes"/>
      <point x="470" y="72"/>
      <point x="411" y="21"/>
      <point x="333" y="21" type="curve" smooth="yes"/>
      <point x="205" y="21"/>
      <point x="107" y="150"/>
      <point x="107" y="324" type="curve" smooth="yes"/>
      <point x="107" y="530"/>
      <point x="270" y="775"/>
      <point x="459" y="775" type="curve" smooth="yes"/>
      <point x="535" y="775"/>
      <point x="579" y="737"/>
      <point x="579" y="664" type="curve" smooth="yes"/>
      <point x="579" y="584"/>
      <point x="526" y="538"/>
      <point x="459" y="538" type="curve" smooth="yes"/>
      <point x="371" y="538"/>
      <point x="338" y="627"/>
      <point x="352" y="764" type="curve"/>
      <point x="330" y="751" type="line"/>
      <point x="313" y="612"/>
      <point x="354" y="513"/>
      <point x="460" y="513" type="curve" smooth="yes"/>
      <point x="538" y="513"/>
      <point x="606" y="569"/>
      <point x="606" y="665" type="curve" smooth="yes"/>
      <point x="606" y="750"/>
      <point x="553" y="800"/>
      <point x="463" y="800" type="curve" smooth="yes"/>
      <point x="252" y="800"/>
      <point x="79" y="545"/>
      <point x="79" y="321" type="curve" smooth="yes"/>
      <point x="79" y="139"/>
      <point x="187" y="-4"/>
    </contour>
  </outline>
</glyph>
<glyph name="aiMatra-tamil" format="2">
  <advance width="1200"/>
  <unicode hex="0BC8"/>
  <note>
uni0BC8
</note>
  <outline>
    <contour>
      <point x="944" y="-7" type="line"/>
      <point x="1064" y="69"/>
      <point x="1133" y="166"/>
      <point x="1133" y="301" type="curve" smooth="yes"/>
      <point x="1133" y="454"/>
      <point x="1029" y="551"/>
      <point x="865" y="551" type="curve" smooth="yes"/>
      <point x="640" y="551"/>
      <point x="475" y="334"/>
      <point x="475" y="159" type="curve" smooth="yes"/>
      <point x="475" y="60"/>
      <point x="516" y="-5"/>
      <point x="600" y="-5" type="curve" smooth="yes"/>
      <point x="691" y="-5"/>
      <point x="788" y="76"/>
      <point x="788" y="232" type="curve" smooth="yes"/>
      <point x="788" y="425"/>
      <point x="664" y="551"/>
      <point x="448" y="551" type="curve" smooth="yes"/>
      <point x="209" y="551"/>
      <point x="50" y="370"/>
      <point x="50" y="211" type="curve" smooth="yes"/>
      <point x="50" y="69"/>
      <point x="117" y="-4"/>
      <point x="216" y="-4" type="curve" smooth="yes"/>
      <point x="304" y="-4"/>
      <point x="377" y="55"/>
      <point x="377" y="155" type="curve" smooth="yes"/>
      <point x="377" y="229"/>
      <point x="330" y="283"/>
      <point x="254" y="283" type="curve" smooth="yes"/>
      <point x="160" y="283"/>
      <point x="103" y="208"/>
      <point x="73" y="133" type="curve"/>
      <point x="84" y="108" type="line"/>
      <point x="120" y="188"/>
      <point x="165" y="258"/>
      <point x="247" y="258" type="curve" smooth="yes"/>
      <point x="317" y="258"/>
      <point x="348" y="213"/>
      <point x="348" y="153" type="curve" smooth="yes"/>
      <point x="348" y="72"/>
      <point x="286" y="21"/>
      <point x="218" y="21" type="curve" smooth="yes"/>
      <point x="131" y="21"/>
      <point x="77" y="84"/>
      <point x="77" y="213" type="curve" smooth="yes"/>
      <point x="77" y="359"/>
      <point x="232" y="527"/>
      <point x="447" y="527" type="curve" smooth="yes"/>
      <point x="648" y="527"/>
      <point x="759" y="410"/>
      <point x="759" y="228" type="curve" smooth="yes"/>
      <point x="759" y="91"/>
      <point x="669" y="21"/>
      <point x="601" y="21" type="curve" smooth="yes"/>
      <point x="533" y="21"/>
      <point x="502" y="77"/>
      <point x="502" y="167" type="curve" smooth="yes"/>
      <point x="502" y="324"/>
      <point x="659" y="527"/>
      <point x="864" y="527" type="curve" smooth="yes"/>
      <point x="1008" y="527"/>
      <point x="1104" y="438"/>
      <point x="1104" y="297" type="curve" smooth="yes"/>
      <point x="1104" y="179"/>
      <point x="1032" y="81"/>
      <point x="928" y="15" type="curve"/>
    </contour>
  </outline>
</glyph>
<glyph name="halant-tamil" format="2">
  <unicode hex="0BCD"/>
  <note>
uni0BCD
</note>
  <anchor x="56" y="542" name="_top"/>
  <anchor x="75" y="626" name="top"/>
  <outline>
    <contour>
      <point x="85" y="635" type="curve" smooth="yes"/>
      <point x="106" y="635"/>
      <point x="123" y="652"/>
      <point x="123" y="672" type="curve" smooth="yes"/>
      <point x="123" y="692"/>
      <point x="106" y="709"/>
      <point x="85" y="709" type="curve" smooth="yes"/>
      <point x="64" y="709"/>
      <point x="47" y="692"/>
      <point x="47" y="672" type="curve" smooth="yes"/>
      <point x="47" y="652"/>
      <point x="64" y="635"/>
    </contour>
  </outline>
</glyph>
<glyph name="om-tamil" format="2">
  <advance width="951"/>
  <unicode hex="0BD0"/>
  <note>
uni0BD0
</note>
  <outline>
    <contour>
      <point x="178" y="-369" type="curve" smooth="yes"/>
      <point x="374" y="-369"/>
      <point x="459" y="-132"/>
      <point x="641" y="-132" type="curve" smooth="yes"/>
      <point x="671" y="-132" type="line"/>
      <point x="676" y="-108" type="line"/>
      <point x="635" y="-108" type="line" smooth="yes"/>
      <point x="440" y="-108"/>
      <point x="435" y="118"/>
      <point x="580" y="236" type="curve"/>
      <point x="585" y="232" type="line"/>
      <point x="512" y="130"/>
      <point x="529" y="-5"/>
      <point x="657" y="-5" type="curve" smooth="yes"/>
      <point x="781" y="-5"/>
      <point x="872" y="95"/>
      <point x="872" y="241" type="curve" smooth="yes"/>
      <point x="872" y="442"/>
      <point x="710" y="551"/>
      <point x="484" y="551" type="curve" smooth="yes"/>
      <point x="220" y="551"/>
      <point x="50" y="372"/>
      <point x="50" y="215" type="curve" smooth="yes"/>
      <point x="50" y="78"/>
      <point x="118" y="4"/>
      <point x="217" y="4" type="curve" smooth="yes"/>
      <point x="303" y="4"/>
      <point x="383" y="61"/>
      <point x="383" y="164" type="curve" smooth="yes"/>
      <point x="383" y="240"/>
      <point x="336" y="291"/>
      <point x="257" y="291" type="curve" smooth="yes"/>
      <point x="163" y="291"/>
      <point x="99" y="217"/>
      <point x="69" y="142" type="curve"/>
      <point x="80" y="117" type="line"/>
      <point x="116" y="197"/>
      <point x="168" y="266"/>
      <point x="250" y="266" type="curve" smooth="yes"/>
      <point x="323" y="266"/>
      <point x="354" y="224"/>
      <point x="354" y="162" type="curve" smooth="yes"/>
      <point x="354" y="78"/>
      <point x="286" y="29"/>
      <point x="219" y="29" type="curve" smooth="yes"/>
      <point x="132" y="29"/>
      <point x="77" y="93"/>
      <point x="77" y="217" type="curve" smooth="yes"/>
      <point x="77" y="362"/>
      <point x="243" y="527"/>
      <point x="483" y="527" type="curve" smooth="yes"/>
      <point x="693" y="527"/>
      <point x="843" y="427"/>
      <point x="843" y="237" type="curve" smooth="yes"/>
      <point x="843" y="114"/>
      <point x="768" y="21"/>
      <point x="659" y="21" type="curve" smooth="yes"/>
      <point x="540" y="21"/>
      <point x="544" y="160"/>
      <point x="627" y="256" type="curve"/>
      <point x="600" y="281" type="line"/>
      <point x="415" y="143"/>
      <point x="399" y="-67"/>
      <point x="571" y="-120" type="curve"/>
      <point x="570" y="-124" type="line"/>
      <point x="415" y="-160"/>
      <point x="350" y="-341"/>
      <point x="177" y="-341" type="curve" smooth="yes"/>
      <point x="85" y="-341"/>
      <point x="35" y="-281"/>
      <point x="63" y="-182" type="curve"/>
      <point x="35" y="-178" type="line"/>
      <point x="5" y="-291"/>
      <point x="64" y="-369"/>
    </contour>
    <contour>
      <point x="109" y="-251" type="line"/>
      <point x="133" y="-251" type="line"/>
      <point x="163" y="-108" type="line"/>
      <point x="140" y="-108" type="line"/>
    </contour>
    <contour>
      <point x="117" y="-251" type="line"/>
      <point x="297" y="-251" type="line"/>
      <point x="301" y="-229" type="line"/>
      <point x="122" y="-229" type="line"/>
    </contour>
    <contour>
      <point x="196" y="-251" type="line"/>
      <point x="218" y="-251" type="line"/>
      <point x="235" y="-168" type="line" smooth="yes"/>
      <point x="239" y="-147"/>
      <point x="252" y="-127"/>
      <point x="275" y="-127" type="curve" smooth="yes"/>
      <point x="299" y="-127"/>
      <point x="309" y="-147"/>
      <point x="303" y="-175" type="curve" smooth="yes"/>
      <point x="287" y="-251" type="line"/>
      <point x="310" y="-251" type="line"/>
      <point x="326" y="-177" type="line" smooth="yes"/>
      <point x="336" y="-132"/>
      <point x="313" y="-105"/>
      <point x="278" y="-105" type="curve" smooth="yes"/>
      <point x="243" y="-105"/>
      <point x="221" y="-130"/>
      <point x="213" y="-168" type="curve" smooth="yes"/>
    </contour>
    <contour>
      <point x="245" y="-73" type="curve" smooth="yes"/>
      <point x="258" y="-73"/>
      <point x="268" y="-62"/>
      <point x="268" y="-50" type="curve" smooth="yes"/>
      <point x="268" y="-39"/>
      <point x="258" y="-28"/>
      <point x="245" y="-28" type="curve" smooth="yes"/>
      <point x="232" y="-28"/>
      <point x="221" y="-39"/>
      <point x="221" y="-50" type="curve" smooth="yes"/>
      <point x="221" y="-62"/>
      <point x="232" y="-73"/>
    </contour>
  </outline>
</glyph>
<glyph name="zero-tamil" format="2">
  <advance width="571"/>
  <unicode hex="0BE6"/>
  <note>
uni0BE6
</note>
  <outline>
    <contour>
      <point x="238" y="-4" type="curve" smooth="yes"/>
      <point x="410" y="-4"/>
      <point x="514" y="153"/>
      <point x="514" y="338" type="curve" smooth="yes"/>
      <point x="514" y="463"/>
      <point x="444" y="550"/>
      <point x="322" y="550" type="curve" smooth="yes"/>
      <point x="150" y="550"/>
      <point x="58" y="375"/>
      <point x="58" y="217" type="curve" smooth="yes"/>
      <point x="58" y="97"/>
      <point x="120" y="-4"/>
    </contour>
    <contour>
      <point x="238" y="21" type="curve" smooth="yes"/>
      <point x="139" y="21"/>
      <point x="85" y="112"/>
      <point x="85" y="222" type="curve" smooth="yes"/>
      <point x="85" y="360"/>
      <point x="167" y="526"/>
      <point x="319" y="526" type="curve" smooth="yes"/>
      <point x="425" y="526"/>
      <point x="486" y="448"/>
      <point x="486" y="333" type="curve" smooth="yes"/>
      <point x="486" y="170"/>
      <point x="392" y="21"/>
    </contour>
  </outline>
</glyph>
<glyph name="two-tamil" format="2">
  <advance width="895"/>
  <unicode hex="0BE8"/>
  <note>
uni0BE8
</note>
  <outline>
    <contour>
      <point x="97" y="0" type="curve" smooth="yes"/>
      <point x="819" y="0" type="line"/>
      <point x="824" y="23" type="line"/>
      <point x="99" y="23" type="line" smooth="yes"/>
      <point x="58" y="23"/>
      <point x="37" y="50"/>
      <point x="37" y="80" type="curve" smooth="yes"/>
      <point x="37" y="122"/>
      <point x="69" y="146"/>
      <point x="121" y="146" type="curve" smooth="yes"/>
      <point x="373" y="146" type="line" smooth="yes"/>
      <point x="524" y="146"/>
      <point x="649" y="219"/>
      <point x="649" y="369" type="curve" smooth="yes"/>
      <point x="649" y="487"/>
      <point x="552" y="551"/>
      <point x="413" y="551" type="curve" smooth="yes"/>
      <point x="265" y="551"/>
      <point x="148" y="462"/>
      <point x="148" y="330" type="curve" smooth="yes"/>
      <point x="148" y="217"/>
      <point x="235" y="151"/>
      <point x="358" y="151" type="curve"/>
      <point x="363" y="170" type="line"/>
      <point x="255" y="170"/>
      <point x="175" y="230"/>
      <point x="175" y="333" type="curve" smooth="yes"/>
      <point x="175" y="447"/>
      <point x="278" y="527"/>
      <point x="411" y="527" type="curve" smooth="yes"/>
      <point x="532" y="527"/>
      <point x="619" y="471"/>
      <point x="619" y="366" type="curve" smooth="yes"/>
      <point x="619" y="233"/>
      <point x="502" y="170"/>
      <point x="373" y="170" type="curve" smooth="yes"/>
      <point x="126" y="170" type="line" smooth="yes"/>
      <point x="58" y="170"/>
      <point x="10" y="142"/>
      <point x="10" y="77" type="curve" smooth="yes"/>
      <point x="10" y="38"/>
      <point x="40" y="0"/>
    </contour>
  </outline>
</glyph>
<glyph name="five-tamil" format="2">
  <advance width="1031"/>
  <unicode hex="0BEB"/>
  <note>
uni0BEB
</note>
  <outline>
    <contour>
      <point x="402" y="-278" type="curve" smooth="yes"/>
      <point x="682" y="-278"/>
      <point x="855" y="-81"/>
      <point x="855" y="164" type="curve" smooth="yes"/>
      <point x="855" y="269"/>
      <point x="799" y="328"/>
      <point x="713" y="328" type="curve" smooth="yes"/>
      <point x="627" y="328"/>
      <point x="573" y="270"/>
      <point x="551" y="169" type="curve" smooth="yes"/>
      <point x="548" y="155" type="line"/>
      <point x="566" y="155" type="line"/>
      <point x="569" y="169" type="line" smooth="yes"/>
      <point x="587" y="251"/>
      <point x="630" y="304"/>
      <point x="711" y="304" type="curve" smooth="yes"/>
      <point x="782" y="304"/>
      <point x="825" y="256"/>
      <point x="825" y="163" type="curve" smooth="yes"/>
      <point x="825" y="-70"/>
      <point x="652" y="-252"/>
      <point x="402" y="-252" type="curve" smooth="yes"/>
      <point x="190" y="-252"/>
      <point x="59" y="-89"/>
      <point x="59" y="142" type="curve" smooth="yes"/>
      <point x="59" y="443"/>
      <point x="226" y="761"/>
      <point x="565" y="761" type="curve" smooth="yes"/>
      <point x="789" y="761"/>
      <point x="948" y="627"/>
      <point x="954" y="393" type="curve"/>
      <point x="982" y="393" type="line"/>
      <point x="982" y="650"/>
      <point x="804" y="792"/>
      <point x="569" y="792" type="curve" smooth="yes"/>
      <point x="206" y="792"/>
      <point x="31" y="459"/>
      <point x="31" y="135" type="curve" smooth="yes"/>
      <point x="31" y="-101"/>
      <point x="167" y="-278"/>
    </contour>
    <contour>
      <point x="244" y="0" type="line"/>
      <point x="269" y="0" type="line"/>
      <point x="379" y="519" type="line"/>
      <point x="616" y="519" type="line"/>
      <point x="506" y="0" type="line"/>
      <point x="533" y="0" type="line"/>
      <point x="643" y="519" type="line"/>
      <point x="805" y="519" type="line"/>
      <point x="810" y="542" type="line"/>
      <point x="359" y="542" type="line"/>
    </contour>
  </outline>
</glyph>
<glyph name="ten-tamil" format="2">
  <advance width="796"/>
  <unicode hex="0BF0"/>
  <note>
uni0BF0
</note>
  <outline>
    <contour>
      <point x="437" y="-5" type="curve" smooth="yes"/>
      <point x="609" y="-5"/>
      <point x="730" y="187"/>
      <point x="730" y="406" type="curve" smooth="yes"/>
      <point x="730" y="613"/>
      <point x="621" y="728"/>
      <point x="434" y="778" type="curve"/>
      <point x="423" y="750" type="line"/>
      <point x="602" y="701"/>
      <point x="702" y="596"/>
      <point x="702" y="403" type="curve" smooth="yes"/>
      <point x="702" y="206"/>
      <point x="589" y="21"/>
      <point x="439" y="21" type="curve" smooth="yes"/>
      <point x="360" y="21"/>
      <point x="333" y="71"/>
      <point x="350" y="149" type="curve" smooth="yes"/>
      <point x="434" y="542" type="line"/>
      <point x="404" y="542" type="line"/>
      <point x="323" y="158" type="line" smooth="yes"/>
      <point x="302" y="58"/>
      <point x="340" y="-5"/>
    </contour>
    <contour>
      <point x="176" y="-5" type="curve" smooth="yes"/>
      <point x="234" y="-5"/>
      <point x="314" y="35"/>
      <point x="335" y="133" type="curve" smooth="yes"/>
      <point x="343" y="171" type="line"/>
      <point x="326" y="171" type="line"/>
      <point x="320" y="141" type="line" smooth="yes"/>
      <point x="308" y="80"/>
      <point x="249" y="21"/>
      <point x="181" y="21" type="curve" smooth="yes"/>
      <point x="118" y="21"/>
      <point x="85" y="68"/>
      <point x="100" y="140" type="curve" smooth="yes"/>
      <point x="185" y="542" type="line"/>
      <point x="157" y="542" type="line"/>
      <point x="72" y="145" type="line" smooth="yes"/>
      <point x="52" y="51"/>
      <point x="103" y="-5"/>
    </contour>
  </outline>
</glyph>
<glyph name="onehundred-tamil" format="2">
  <advance width="908"/>
  <unicode hex="0BF1"/>
  <note>
uni0BF1
</note>
  <outline>
    <contour>
      <point x="284" y="0" type="line"/>
      <point x="309" y="0" type="line"/>
      <point x="419" y="519" type="line"/>
      <point x="702" y="519" type="line"/>
      <point x="592" y="0" type="line"/>
      <point x="620" y="0" type="line"/>
      <point x="731" y="519" type="line"/>
      <point x="933" y="519" type="line"/>
      <point x="938" y="542" type="line"/>
      <point x="399" y="542" type="line"/>
    </contour>
    <contour>
      <point x="43" y="0" type="line"/>
      <point x="68" y="0" type="line"/>
      <point x="155" y="407" type="line" smooth="yes"/>
      <point x="170" y="475"/>
      <point x="208" y="521"/>
      <point x="274" y="521" type="curve" smooth="yes"/>
      <point x="338" y="521"/>
      <point x="385" y="477"/>
      <point x="368" y="393" type="curve"/>
      <point x="385" y="393" type="line"/>
      <point x="407" y="498"/>
      <point x="346" y="547"/>
      <point x="278" y="547" type="curve" smooth="yes"/>
      <point x="195" y="547"/>
      <point x="147" y="489"/>
      <point x="130" y="411" type="curve" smooth="yes"/>
    </contour>
  </outline>
</glyph>
<glyph name="onethousand-tamil" format="2">
  <advance width="1053"/>
  <unicode hex="0BF2"/>
  <note>
uni0BF2
</note>
  <outline>
    <contour>
      <point x="183" y="-4" type="curve" smooth="yes"/>
      <point x="290" y="-4"/>
      <point x="354" y="56"/>
      <point x="382" y="182" type="curve" smooth="yes"/>
      <point x="403" y="275" type="line"/>
      <point x="904" y="275" type="line"/>
      <point x="908" y="299" type="line"/>
      <point x="408" y="299" type="line"/>
      <point x="455" y="519" type="line"/>
      <point x="629" y="519" type="line"/>
      <point x="634" y="542" type="line"/>
      <point x="209" y="542" type="line"/>
      <point x="154" y="284" type="line"/>
      <point x="179" y="284" type="line"/>
      <point x="229" y="519" type="line"/>
      <point x="427" y="519" type="line"/>
      <point x="380" y="299" type="line"/>
      <point x="224" y="299" type="line" smooth="yes"/>
      <point x="106" y="299"/>
      <point x="26" y="232"/>
      <point x="26" y="135" type="curve" smooth="yes"/>
      <point x="26" y="52"/>
      <point x="87" y="-4"/>
    </contour>
    <contour>
      <point x="184" y="21" type="curve" smooth="yes"/>
      <point x="107" y="21"/>
      <point x="60" y="65"/>
      <point x="60" y="139" type="curve" smooth="yes"/>
      <point x="60" y="215"/>
      <point x="116" y="275"/>
      <point x="222" y="275" type="curve" smooth="yes"/>
      <point x="375" y="275" type="line"/>
      <point x="354" y="179" type="line" smooth="yes"/>
      <point x="333" y="81"/>
      <point x="275" y="21"/>
    </contour>
    <contour>
      <point x="279" y="-244" type="curve"/>
      <point x="287" y="-208"/>
      <point x="314" y="-171"/>
      <point x="371" y="-171" type="curve" smooth="yes"/>
      <point x="685" y="-171" type="line" smooth="yes"/>
      <point x="823" y="-171"/>
      <point x="942" y="-111"/>
      <point x="942" y="30" type="curve" smooth="yes"/>
      <point x="942" y="128"/>
      <point x="869" y="164"/>
      <point x="780" y="164" type="curve" smooth="yes"/>
      <point x="638" y="164" type="line" smooth="yes"/>
      <point x="549" y="164"/>
      <point x="487" y="122"/>
      <point x="487" y="46" type="curve" smooth="yes"/>
      <point x="487" y="-10"/>
      <point x="533" y="-56"/>
      <point x="601" y="-56" type="curve" smooth="yes"/>
      <point x="672" y="-56"/>
      <point x="723" y="-22"/>
      <point x="743" y="74" type="curve" smooth="yes"/>
      <point x="789" y="291" type="line"/>
      <point x="763" y="291" type="line"/>
      <point x="717" y="75" type="line" smooth="yes"/>
      <point x="701" y="1"/>
      <point x="662" y="-31"/>
      <point x="603" y="-31" type="curve" smooth="yes"/>
      <point x="546" y="-31"/>
      <point x="514" y="6"/>
      <point x="514" y="50" type="curve" smooth="yes"/>
      <point x="514" y="110"/>
      <point x="559" y="139"/>
      <point x="634" y="139" type="curve" smooth="yes"/>
      <point x="775" y="139" type="line" smooth="yes"/>
      <point x="852" y="139"/>
      <point x="914" y="113"/>
      <point x="914" y="28" type="curve" smooth="yes"/>
      <point x="914" y="-94"/>
      <point x="806" y="-146"/>
      <point x="681" y="-146" type="curve" smooth="yes"/>
      <point x="341" y="-146" type="line" smooth="yes"/>
      <point x="284" y="-146"/>
      <point x="243" y="-172"/>
      <point x="243" y="-208" type="curve" smooth="yes"/>
      <point x="243" y="-230"/>
      <point x="255" y="-244"/>
    </contour>
  </outline>
</glyph>
<glyph name="day-tamil" format="2">
  <advance width="980"/>
  <unicode hex="0BF3"/>
  <note>
uni0BF3
</note>
  <outline>
    <contour>
      <point x="224" y="-4" type="curve" smooth="yes"/>
      <point x="312" y="-4"/>
      <point x="378" y="55"/>
      <point x="378" y="155" type="curve" smooth="yes"/>
      <point x="378" y="229"/>
      <point x="331" y="283"/>
      <point x="255" y="283" type="curve" smooth="yes"/>
      <point x="161" y="283"/>
      <point x="104" y="208"/>
      <point x="74" y="133" type="curve"/>
      <point x="85" y="108" type="line"/>
      <point x="121" y="188"/>
      <point x="166" y="258"/>
      <point x="248" y="258" type="curve" smooth="yes"/>
      <point x="318" y="258"/>
      <point x="349" y="213"/>
      <point x="349" y="153" type="curve" smooth="yes"/>
      <point x="349" y="72"/>
      <point x="294" y="21"/>
      <point x="226" y="21" type="curve" smooth="yes"/>
      <point x="138" y="21"/>
      <point x="78" y="88"/>
      <point x="78" y="212" type="curve" smooth="yes"/>
      <point x="78" y="369"/>
      <point x="220" y="527"/>
      <point x="408" y="527" type="curve" smooth="yes"/>
      <point x="542" y="527"/>
      <point x="672" y="446"/>
      <point x="672" y="294" type="curve" smooth="yes"/>
      <point x="672" y="165"/>
      <point x="595" y="86"/>
      <point x="522" y="19" type="curve"/>
      <point x="528" y="0" type="line"/>
      <point x="899" y="0" type="line"/>
      <point x="904" y="23" type="line"/>
      <point x="560" y="23" type="line"/>
      <point x="624" y="80"/>
      <point x="700" y="161"/>
      <point x="700" y="297" type="curve" smooth="yes"/>
      <point x="700" y="463"/>
      <point x="565" y="551"/>
      <point x="409" y="551" type="curve" smooth="yes"/>
      <point x="196" y="551"/>
      <point x="51" y="380"/>
      <point x="51" y="210" type="curve" smooth="yes"/>
      <point x="51" y="73"/>
      <point x="124" y="-4"/>
    </contour>
  </outline>
</glyph>
<glyph name="year-tamil" format="2">
  <advance width="2070"/>
  <unicode hex="0BF5"/>
  <note>
uni0BF5
</note>
  <anchor x="752" y="0" name="bottom"/>
  <anchor x="1363" y="542" name="imatra"/>
  <anchor x="751" y="0" name="nukta"/>
  <anchor x="904" y="542" name="top"/>
  <anchor x="889" y="542" name="vedic"/>
  <outline>
    <contour>
      <point x="701" y="-278" type="curve" smooth="yes"/>
      <point x="1097" y="-278"/>
      <point x="1433" y="-130"/>
      <point x="1433" y="167" type="curve" smooth="yes"/>
      <point x="1433" y="274"/>
      <point x="1377" y="328"/>
      <point x="1292" y="328" type="curve" smooth="yes"/>
      <point x="1203" y="328"/>
      <point x="1145" y="266"/>
      <point x="1125" y="172" type="curve" smooth="yes"/>
      <point x="1122" y="158" type="line"/>
      <point x="1139" y="158" type="line"/>
      <point x="1142" y="172" type="line" smooth="yes"/>
      <point x="1158" y="245"/>
      <point x="1205" y="304"/>
      <point x="1287" y="304" type="curve" smooth="yes"/>
      <point x="1358" y="304"/>
      <point x="1403" y="259"/>
      <point x="1403" y="167" type="curve" smooth="yes"/>
      <point x="1403" y="-115"/>
      <point x="1068" y="-252"/>
      <point x="699" y="-252" type="curve" smooth="yes"/>
      <point x="337" y="-252"/>
      <point x="100" y="-87"/>
      <point x="100" y="192" type="curve" smooth="yes"/>
      <point x="100" y="541"/>
      <point x="454" y="785"/>
      <point x="934" y="785" type="curve" smooth="yes"/>
      <point x="1372" y="785"/>
      <point x="1714" y="637"/>
      <point x="1639" y="294" type="curve" smooth="yes"/>
      <point x="1612" y="170" type="line" smooth="yes"/>
      <point x="1590" y="69"/>
      <point x="1635" y="-4"/>
      <point x="1737" y="-4" type="curve" smooth="yes"/>
      <point x="1893" y="-4"/>
      <point x="2013" y="148"/>
      <point x="2013" y="345" type="curve" smooth="yes"/>
      <point x="2013" y="425"/>
      <point x="1994" y="487"/>
      <point x="1954" y="547" type="curve"/>
      <point x="1928" y="530" type="line"/>
      <point x="1963" y="479"/>
      <point x="1984" y="410"/>
      <point x="1984" y="344" type="curve" smooth="yes"/>
      <point x="1984" y="168"/>
      <point x="1876" y="20"/>
      <point x="1738" y="20" type="curve" smooth="yes"/>
      <point x="1655" y="20"/>
      <point x="1621" y="79"/>
      <point x="1640" y="168" type="curve" smooth="yes"/>
      <point x="1666" y="289" type="line" smooth="yes"/>
      <point x="1745" y="656"/>
      <point x="1390" y="811"/>
      <point x="937" y="811" type="curve" smooth="yes"/>
      <point x="431" y="811"/>
      <point x="70" y="545"/>
      <point x="70" y="189" type="curve" smooth="yes"/>
      <point x="70" y="-102"/>
      <point x="319" y="-278"/>
    </contour>
    <component base="lla-tamil" xOffset="218"/>
  </outline>
</glyph>
<glyph name="debit-tamil" format="2">
  <advance width="1120"/>
  <unicode hex="0BF6"/>
  <note>
uni0BF6
</note>
  <outline>
    <contour>
      <point x="273" y="-364" type="curve" smooth="yes"/>
      <point x="450" y="-364"/>
      <point x="621" y="-264"/>
      <point x="673" y="-16" type="curve" smooth="yes"/>
      <point x="791" y="542" type="line"/>
      <point x="763" y="542" type="line"/>
      <point x="645" y="-12" type="line" smooth="yes"/>
      <point x="596" y="-243"/>
      <point x="435" y="-338"/>
      <point x="272" y="-338" type="curve" smooth="yes"/>
      <point x="112" y="-338"/>
      <point x="20" y="-238"/>
      <point x="20" y="-156" type="curve" smooth="yes"/>
      <point x="20" y="-126"/>
      <point x="36" y="-108"/>
      <point x="66" y="-108" type="curve" smooth="yes"/>
      <point x="911" y="-108" type="line"/>
      <point x="1049" y="542" type="line"/>
      <point x="1023" y="542" type="line"/>
      <point x="890" y="-84" type="line"/>
      <point x="67" y="-84" type="line" smooth="yes"/>
      <point x="21" y="-84"/>
      <point x="-7" y="-109"/>
      <point x="-7" y="-158" type="curve" smooth="yes"/>
      <point x="-7" y="-247"/>
      <point x="92" y="-364"/>
    </contour>
    <contour>
      <point x="68" y="11" type="line"/>
      <point x="663" y="11" type="line"/>
      <point x="668" y="35" type="line"/>
      <point x="102" y="35" type="line"/>
      <point x="209" y="542" type="line"/>
      <point x="181" y="542" type="line"/>
    </contour>
  </outline>
</glyph>
<glyph name="rupee-tamil" format="2">
  <advance width="971"/>
  <unicode hex="0BF9"/>
  <note>
uni0BF9
</note>
  <outline>
    <contour>
      <point x="411" y="-277" type="curve" smooth="yes"/>
      <point x="697" y="-277"/>
      <point x="880" y="-62"/>
      <point x="880" y="177" type="curve" smooth="yes"/>
      <point x="880" y="281"/>
      <point x="826" y="328"/>
      <point x="748" y="328" type="curve" smooth="yes"/>
      <point x="662" y="328"/>
      <point x="606" y="260"/>
      <point x="586" y="166" type="curve" smooth="yes"/>
      <point x="583" y="152" type="line"/>
      <point x="596" y="152" type="line"/>
      <point x="599" y="166" type="line" smooth="yes"/>
      <point x="615" y="239"/>
      <point x="668" y="304"/>
      <point x="746" y="304" type="curve" smooth="yes"/>
      <point x="808" y="304"/>
      <point x="851" y="268"/>
      <point x="851" y="177" type="curve" smooth="yes"/>
      <point x="851" y="-46"/>
      <point x="675" y="-251"/>
      <point x="409" y="-251" type="curve" smooth="yes"/>
      <point x="175" y="-251"/>
      <point x="84" y="-74"/>
      <point x="84" y="137" type="curve" smooth="yes"/>
      <point x="84" y="420"/>
      <point x="242" y="809"/>
      <point x="511" y="809" type="curve" smooth="yes"/>
      <point x="580" y="809"/>
      <point x="632" y="782"/>
      <point x="632" y="719" type="curve" smooth="yes"/>
      <point x="632" y="664"/>
      <point x="590" y="623"/>
      <point x="536" y="623" type="curve" smooth="yes"/>
      <point x="494" y="623"/>
      <point x="465" y="652"/>
      <point x="465" y="709" type="curve" smooth="yes"/>
      <point x="465" y="776"/>
      <point x="538" y="864"/>
      <point x="652" y="864" type="curve" smooth="yes"/>
      <point x="729" y="864"/>
      <point x="793" y="828"/>
      <point x="793" y="752" type="curve" smooth="yes"/>
      <point x="793" y="698"/>
      <point x="760" y="656"/>
      <point x="721" y="620" type="curve"/>
      <point x="724" y="606" type="line"/>
      <point x="868" y="606" type="line"/>
      <point x="873" y="629" type="line"/>
      <point x="749" y="629" type="line"/>
      <point x="746" y="616" type="line"/>
      <point x="788" y="655"/>
      <point x="821" y="695"/>
      <point x="821" y="758" type="curve" smooth="yes"/>
      <point x="821" y="845"/>
      <point x="741" y="886"/>
      <point x="654" y="886" type="curve" smooth="yes"/>
      <point x="543" y="886"/>
      <point x="440" y="801"/>
      <point x="440" y="703" type="curve" smooth="yes"/>
      <point x="440" y="640"/>
      <point x="476" y="601"/>
      <point x="535" y="601" type="curve" smooth="yes"/>
      <point x="605" y="601"/>
      <point x="658" y="650"/>
      <point x="658" y="722" type="curve" smooth="yes"/>
      <point x="658" y="797"/>
      <point x="590" y="834"/>
      <point x="515" y="834" type="curve" smooth="yes"/>
      <point x="229" y="834"/>
      <point x="54" y="437"/>
      <point x="54" y="135" type="curve" smooth="yes"/>
      <point x="54" y="-89"/>
      <point x="160" y="-277"/>
    </contour>
    <contour>
      <point x="269" y="0" type="line"/>
      <point x="294" y="0" type="line"/>
      <point x="404" y="519" type="line"/>
      <point x="646" y="519" type="line"/>
      <point x="536" y="0" type="line"/>
      <point x="564" y="0" type="line"/>
      <point x="675" y="519" type="line"/>
      <point x="849" y="519" type="line"/>
      <point x="854" y="542" type="line"/>
      <point x="384" y="542" type="line"/>
    </contour>
  </outline>
</glyph>
<glyph name="number-tamil" format="2">
  <advance width="885"/>
  <unicode hex="0BFA"/>
  <note>
uni0BFA
</note>
  <anchor x="331" y="0" name="bottom"/>
  <anchor x="580" y="542" name="imatra"/>
  <anchor x="307" y="-171" name="nukta"/>
  <anchor x="471" y="542" name="top"/>
  <anchor x="461" y="542" name="vedic"/>
  <outline>
    <contour>
      <point x="810" y="519" type="line"/>
      <point x="963" y="519" type="line"/>
      <point x="968" y="542" type="line"/>
      <point x="835" y="542" type="line"/>
      <point x="835" y="529" type="line"/>
      <point x="906" y="589"/>
      <point x="964" y="656"/>
      <point x="964" y="754" type="curve" smooth="yes"/>
      <point x="964" y="843"/>
      <point x="900" y="898"/>
      <point x="815" y="898" type="curve" smooth="yes"/>
      <point x="699" y="898"/>
      <point x="619" y="809"/>
      <point x="619" y="698" type="curve" smooth="yes"/>
      <point x="619" y="638"/>
      <point x="643" y="584"/>
      <point x="708" y="584" type="curve" smooth="yes"/>
      <point x="771" y="584"/>
      <point x="820" y="633"/>
      <point x="820" y="703" type="curve" smooth="yes"/>
      <point x="820" y="779"/>
      <point x="763" y="824"/>
      <point x="677" y="824" type="curve" smooth="yes"/>
      <point x="568" y="824"/>
      <point x="497" y="742"/>
      <point x="497" y="651" type="curve" smooth="yes"/>
      <point x="497" y="580"/>
      <point x="538" y="524"/>
      <point x="615" y="524" type="curve"/>
      <point x="618" y="542" type="line"/>
      <point x="551" y="542"/>
      <point x="523" y="595"/>
      <point x="523" y="651" type="curve" smooth="yes"/>
      <point x="523" y="734"/>
      <point x="582" y="803"/>
      <point x="675" y="803" type="curve" smooth="yes"/>
      <point x="743" y="803"/>
      <point x="795" y="769"/>
      <point x="795" y="702" type="curve" smooth="yes"/>
      <point x="795" y="646"/>
      <point x="758" y="605"/>
      <point x="708" y="605" type="curve" smooth="yes"/>
      <point x="658" y="605"/>
      <point x="643" y="651"/>
      <point x="643" y="702" type="curve" smooth="yes"/>
      <point x="643" y="794"/>
      <point x="707" y="876"/>
      <point x="812" y="876" type="curve" smooth="yes"/>
      <point x="885" y="876"/>
      <point x="936" y="828"/>
      <point x="936" y="751" type="curve" smooth="yes"/>
      <point x="936" y="654"/>
      <point x="878" y="591"/>
      <point x="806" y="532" type="curve"/>
    </contour>
    <component base="na-tamil"/>
  </outline>
</glyph>
<glyph name="doubleSvarita-vedic" format="2">
  <unicode hex="1CDA"/>
  <note>
uni1CDA
</note>
  <anchor x="56" y="542" name="_vedic"/>
  <outline>
    <contour>
      <point x="71" y="907" type="line"/>
      <point x="98" y="907" type="line"/>
      <point x="137" y="1091" type="line"/>
      <point x="110" y="1091" type="line"/>
    </contour>
    <contour>
      <point x="170" y="907" type="line"/>
      <point x="198" y="907" type="line"/>
      <point x="237" y="1091" type="line"/>
      <point x="209" y="1091" type="line"/>
    </contour>
  </outline>
</glyph>
<glyph name="endash" format="2">
  <advance width="500"/>
  <unicode hex="2013"/>
  <outline>
    <contour>
      <point x="-6" y="265" type="line"/>
      <point x="505" y="265" type="line"/>
      <point x="511" y="290" type="line"/>
      <point x="-1" y="290" type="line"/>
    </contour>
  </outline>
</glyph>
<glyph name="quotedblleft" format="2">
  <advance width="315"/>
  <unicode hex="201C"/>
  <outline>
    <contour>
      <point x="275" y="510" type="curve" smooth="yes"/>
      <point x="296" y="510"/>
      <point x="319" y="524"/>
      <point x="319" y="552" type="curve" smooth="yes"/>
      <point x="319" y="583"/>
      <point x="274" y="586"/>
      <point x="274" y="612" type="curve" smooth="yes"/>
      <point x="274" y="637"/>
      <point x="304" y="679"/>
      <point x="339" y="692" type="curve"/>
      <point x="333" y="708" type="line"/>
      <point x="276" y="681"/>
      <point x="235" y="619"/>
      <point x="235" y="557" type="curve" smooth="yes"/>
      <point x="235" y="524"/>
      <point x="253" y="510"/>
    </contour>
    <contour>
      <point x="135" y="510" type="curve" smooth="yes"/>
      <point x="156" y="510"/>
      <point x="179" y="524"/>
      <point x="179" y="552" type="curve" smooth="yes"/>
      <point x="179" y="583"/>
      <point x="134" y="586"/>
      <point x="134" y="612" type="curve" smooth="yes"/>
      <point x="134" y="637"/>
      <point x="164" y="679"/>
      <point x="199" y="692" type="curve"/>
      <point x="193" y="708" type="line"/>
      <point x="136" y="681"/>
      <point x="95" y="619"/>
      <point x="95" y="557" type="curve" smooth="yes"/>
      <point x="95" y="524"/>
      <point x="113" y="510"/>
    </contour>
  </outline>
</glyph>
<glyph name="ellipsis" format="2">
  <advance width="539"/>
  <unicode hex="2026"/>
  <outline>
    <contour>
      <point x="391" y="-5" type="curve" smooth="yes"/>
      <point x="406" y="-5"/>
      <point x="421" y="7"/>
      <point x="421" y="38" type="curve" smooth="yes"/>
      <point x="421" y="62"/>
      <point x="408" y="73"/>
      <point x="392" y="73" type="curve" smooth="yes"/>
      <point x="373" y="73"/>
      <point x="362" y="56"/>
      <point x="362" y="30" type="curve" smooth="yes"/>
      <point x="362" y="6"/>
      <point x="374" y="-5"/>
    </contour>
    <contour>
      <point x="33" y="-5" type="curve" smooth="yes"/>
      <point x="48" y="-5"/>
      <point x="63" y="7"/>
      <point x="63" y="38" type="curve" smooth="yes"/>
      <point x="63" y="62"/>
      <point x="50" y="73"/>
      <point x="34" y="73" type="curve" smooth="yes"/>
      <point x="15" y="73"/>
      <point x="4" y="56"/>
      <point x="4" y="30" type="curve" smooth="yes"/>
      <point x="4" y="6"/>
      <point x="16" y="-5"/>
    </contour>
    <contour>
      <point x="212" y="-5" type="curve" smooth="yes"/>
      <point x="227" y="-5"/>
      <point x="242" y="7"/>
      <point x="242" y="38" type="curve" smooth="yes"/>
      <point x="242" y="62"/>
      <point x="229" y="73"/>
      <point x="213" y="73" type="curve" smooth="yes"/>
      <point x="194" y="73"/>
      <point x="183" y="56"/>
      <point x="183" y="30" type="curve" smooth="yes"/>
      <point x="183" y="6"/>
      <point x="195" y="-5"/>
    </contour>
  </outline>
</glyph>
<glyph name="rupeeIndian" format="2">
  <advance width="548"/>
  <unicode hex="20B9"/>
  <outline>
    <contour>
      <point x="325" y="0" type="curve" smooth="yes"/>
      <point x="347" y="0" type="line"/>
      <point x="353" y="28" type="line"/>
      <point x="330" y="28" type="line" smooth="yes"/>
      <point x="279" y="28"/>
      <point x="256" y="57"/>
      <point x="234" y="108" type="curve" smooth="yes"/>
      <point x="138" y="326" type="line"/>
      <point x="331" y="326"/>
      <point x="412" y="412"/>
      <point x="438" y="511" type="curve"/>
      <point x="530" y="511" type="line"/>
      <point x="535" y="536" type="line"/>
      <point x="442" y="536" type="line"/>
      <point x="453" y="597"/>
      <point x="434" y="672"/>
      <point x="378" y="689" type="curve"/>
      <point x="568" y="689" type="line"/>
      <point x="573" y="714" type="line"/>
      <point x="170" y="714" type="line"/>
      <point x="165" y="689" type="line"/>
      <point x="263" y="689" type="line" smooth="yes"/>
      <point x="416" y="689"/>
      <point x="422" y="596"/>
      <point x="415" y="536" type="curve"/>
      <point x="133" y="536" type="line"/>
      <point x="127" y="511" type="line"/>
      <point x="410" y="511" type="line"/>
      <point x="390" y="423"/>
      <point x="309" y="351"/>
      <point x="154" y="351" type="curve" smooth="yes"/>
      <point x="99" y="351" type="line"/>
      <point x="98" y="346" type="line"/>
      <point x="206" y="94" type="line" smooth="yes"/>
      <point x="229" y="40"/>
      <point x="260" y="0"/>
    </contour>
  </outline>
</glyph>
<glyph name="dottedCircle" format="2">
  <advance width="594"/>
  <unicode hex="25CC"/>
  <anchor x="299" y="300" name="bottom"/>
  <anchor x="350" y="554" name="imatra"/>
  <anchor x="233" y="0" name="nukta"/>
  <anchor x="340" y="554" name="top"/>
  <anchor x="289" y="304" name="vedic"/>
  <outline>
    <contour>
      <point x="386" y="472" type="curve" smooth="yes"/>
      <point x="399" y="472"/>
      <point x="411" y="483"/>
      <point x="411" y="496" type="curve" smooth="yes"/>
      <point x="411" y="509"/>
      <point x="399" y="521"/>
      <point x="386" y="521" type="curve" smooth="yes"/>
      <point x="373" y="521"/>
      <point x="361" y="509"/>
      <point x="361" y="496" type="curve" smooth="yes"/>
      <point x="361" y="483"/>
      <point x="373" y="472"/>
    </contour>
    <contour>
      <point x="144" y="108" type="curve" smooth="yes"/>
      <point x="157" y="108"/>
      <point x="169" y="120"/>
      <point x="169" y="133" type="curve" smooth="yes"/>
      <point x="169" y="146"/>
      <point x="157" y="158"/>
      <point x="144" y="158" type="curve" smooth="yes"/>
      <point x="131" y="158"/>
      <point x="119" y="146"/>
      <point x="119" y="133" type="curve" smooth="yes"/>
      <point x="119" y="120"/>
      <point x="131" y="108"/>
    </contour>
    <contour>
      <point x="97" y="183" type="curve" smooth="yes"/>
      <point x="110" y="183"/>
      <point x="122" y="194"/>
      <point x="122" y="207" type="curve" smooth="yes"/>
      <point x="122" y="220"/>
      <point x="110" y="231"/>
      <point x="97" y="231" type="curve" smooth="yes"/>
      <point x="84" y="231"/>
      <point x="72" y="220"/>
      <point x="72" y="207" type="curve" smooth="yes"/>
      <point x="72" y="194"/>
      <point x="84" y="183"/>
    </contour>
    <contour>
      <point x="218" y="62" type="curve" smooth="yes"/>
      <point x="231" y="62"/>
      <point x="242" y="73"/>
      <point x="242" y="86" type="curve" smooth="yes"/>
      <point x="242" y="99"/>
      <point x="231" y="110"/>
      <point x="218" y="110" type="curve" smooth="yes"/>
      <point x="205" y="110"/>
      <point x="193" y="99"/>
      <point x="193" y="86" type="curve" smooth="yes"/>
      <point x="193" y="73"/>
      <point x="205" y="62"/>
    </contour>
    <contour>
      <point x="79" y="267" type="curve" smooth="yes"/>
      <point x="92" y="267"/>
      <point x="104" y="278"/>
      <point x="104" y="291" type="curve" smooth="yes"/>
      <point x="104" y="304"/>
      <point x="92" y="315"/>
      <point x="79" y="315" type="curve" smooth="yes"/>
      <point x="66" y="315"/>
      <point x="54" y="304"/>
      <point x="54" y="291" type="curve" smooth="yes"/>
      <point x="54" y="278"/>
      <point x="66" y="267"/>
    </contour>
    <contour>
      <point x="302" y="43" type="curve" smooth="yes"/>
      <point x="315" y="43"/>
      <point x="327" y="55"/>
      <point x="327" y="68" type="curve" smooth="yes"/>
      <point x="327" y="81"/>
      <point x="315" y="93"/>
      <point x="302" y="93" type="curve" smooth="yes"/>
      <point x="289" y="93"/>
      <point x="277" y="81"/>
      <point x="277" y="68" type="curve" smooth="yes"/>
      <point x="277" y="55"/>
      <point x="289" y="43"/>
    </contour>
    <contour>
      <point x="97" y="351" type="curve" smooth="yes"/>
      <point x="110" y="351"/>
      <point x="122" y="362"/>
      <point x="122" y="375" type="curve" smooth="yes"/>
      <point x="122" y="388"/>
      <point x="110" y="399"/>
      <point x="97" y="399" type="curve" smooth="yes"/>
      <point x="84" y="399"/>
      <point x="72" y="388"/>
      <point x="72" y="375" type="curve" smooth="yes"/>
      <point x="72" y="362"/>
      <point x="84" y="351"/>
    </contour>
    <contour>
      <point x="386" y="62" type="curve" smooth="yes"/>
      <point x="399" y="62"/>
      <point x="411" y="73"/>
      <point x="411" y="86" type="curve" smooth="yes"/>
      <point x="411" y="99"/>
      <point x="399" y="110"/>
      <point x="386" y="110" type="curve" smooth="yes"/>
      <point x="373" y="110"/>
      <point x="361" y="99"/>
      <point x="361" y="86" type="curve" smooth="yes"/>
      <point x="361" y="73"/>
      <point x="373" y="62"/>
    </contour>
    <contour>
      <point x="460" y="108" type="curve" smooth="yes"/>
      <point x="473" y="108"/>
      <point x="484" y="120"/>
      <point x="484" y="133" type="curve" smooth="yes"/>
      <point x="484" y="146"/>
      <point x="473" y="158"/>
      <point x="460" y="158" type="curve" smooth="yes"/>
      <point x="447" y="158"/>
      <point x="436" y="146"/>
      <point x="436" y="133" type="curve" smooth="yes"/>
      <point x="436" y="120"/>
      <point x="447" y="108"/>
    </contour>
    <contour>
      <point x="144" y="424" type="curve" smooth="yes"/>
      <point x="157" y="424"/>
      <point x="169" y="436"/>
      <point x="169" y="449" type="curve" smooth="yes"/>
      <point x="169" y="462"/>
      <point x="157" y="474"/>
      <point x="144" y="474" type="curve" smooth="yes"/>
      <point x="131" y="474"/>
      <point x="119" y="462"/>
      <point x="119" y="449" type="curve" smooth="yes"/>
      <point x="119" y="436"/>
      <point x="131" y="424"/>
    </contour>
    <contour>
      <point x="218" y="472" type="curve" smooth="yes"/>
      <point x="231" y="472"/>
      <point x="242" y="483"/>
      <point x="242" y="496" type="curve" smooth="yes"/>
      <point x="242" y="509"/>
      <point x="231" y="521"/>
      <point x="218" y="521" type="curve" smooth="yes"/>
      <point x="205" y="521"/>
      <point x="193" y="509"/>
      <point x="193" y="496" type="curve" smooth="yes"/>
      <point x="193" y="483"/>
      <point x="205" y="472"/>
    </contour>
    <contour>
      <point x="507" y="183" type="curve" smooth="yes"/>
      <point x="520" y="183"/>
      <point x="531" y="194"/>
      <point x="531" y="207" type="curve" smooth="yes"/>
      <point x="531" y="220"/>
      <point x="520" y="231"/>
      <point x="507" y="231" type="curve" smooth="yes"/>
      <point x="494" y="231"/>
      <point x="483" y="220"/>
      <point x="483" y="207" type="curve" smooth="yes"/>
      <point x="483" y="194"/>
      <point x="494" y="183"/>
    </contour>
    <contour>
      <point x="302" y="489" type="curve" smooth="yes"/>
      <point x="315" y="489"/>
      <point x="327" y="501"/>
      <point x="327" y="514" type="curve" smooth="yes"/>
      <point x="327" y="527"/>
      <point x="315" y="539"/>
      <point x="302" y="539" type="curve" smooth="yes"/>
      <point x="289" y="539"/>
      <point x="277" y="527"/>
      <point x="277" y="514" type="curve" smooth="yes"/>
      <point x="277" y="501"/>
      <point x="289" y="489"/>
    </contour>
    <contour>
      <point x="525" y="267" type="curve" smooth="yes"/>
      <point x="538" y="267"/>
      <point x="549" y="278"/>
      <point x="549" y="291" type="curve" smooth="yes"/>
      <point x="549" y="304"/>
      <point x="538" y="315"/>
      <point x="525" y="315" type="curve" smooth="yes"/>
      <point x="512" y="315"/>
      <point x="501" y="304"/>
      <point x="501" y="291" type="curve" smooth="yes"/>
      <point x="501" y="278"/>
      <point x="512" y="267"/>
    </contour>
    <contour>
      <point x="507" y="351" type="curve" smooth="yes"/>
      <point x="520" y="351"/>
      <point x="531" y="362"/>
      <point x="531" y="375" type="curve" smooth="yes"/>
      <point x="531" y="388"/>
      <point x="520" y="399"/>
      <point x="507" y="399" type="curve" smooth="yes"/>
      <point x="494" y="399"/>
      <point x="483" y="388"/>
      <point x="483" y="375" type="curve" smooth="yes"/>
      <point x="483" y="362"/>
      <point x="494" y="351"/>
    </contour>
    <contour>
      <point x="460" y="424" type="curve" smooth="yes"/>
      <point x="473" y="424"/>
      <point x="484" y="436"/>
      <point x="484" y="449" type="curve" smooth="yes"/>
      <point x="484" y="462"/>
      <point x="473" y="474"/>
      <point x="460" y="474" type="curve" smooth="yes"/>
      <point x="447" y="474"/>
      <point x="436" y="462"/>
      <point x="436" y="449" type="curve" smooth="yes"/>
      <point x="436" y="436"/>
      <point x="447" y="424"/>
    </contour>
  </outline>
</glyph>
<glyph name="candrabinduhalant-deva" format="2">
  <advance width="474"/>
  <unicode hex="A8F3"/>
  <note>
uniA8F3
</note>
  <outline>
    <contour>
      <point x="257" y="362" type="curve" smooth="yes"/>
      <point x="351" y="362"/>
      <point x="430" y="408"/>
      <point x="477" y="534" type="curve"/>
      <point x="429" y="552" type="line"/>
      <point x="392" y="449"/>
      <point x="331" y="412"/>
      <point x="261" y="412" type="curve" smooth="yes"/>
      <point x="186" y="412"/>
      <point x="147" y="464"/>
      <point x="140" y="543" type="curve"/>
      <point x="108" y="537" type="line"/>
      <point x="113" y="419"/>
      <point x="179" y="362"/>
    </contour>
    <contour>
      <point x="275" y="492" type="curve" smooth="yes"/>
      <point x="305" y="492"/>
      <point x="317" y="513"/>
      <point x="317" y="540" type="curve" smooth="yes"/>
      <point x="317" y="559"/>
      <point x="303" y="568"/>
      <point x="287" y="568" type="curve" smooth="yes"/>
      <point x="257" y="568"/>
      <point x="245" y="548"/>
      <point x="245" y="521" type="curve" smooth="yes"/>
      <point x="245" y="502"/>
      <point x="259" y="492"/>
    </contour>
    <contour>
      <point x="342" y="70" type="curve"/>
      <point x="371" y="85" type="line"/>
      <point x="283" y="256"/>
      <point x="258" y="279"/>
      <point x="178" y="279" type="curve" smooth="yes"/>
      <point x="155" y="279"/>
      <point x="130" y="274"/>
      <point x="117" y="271" type="curve"/>
      <point x="126" y="213" type="line"/>
      <point x="144" y="218"/>
      <point x="165" y="221"/>
      <point x="187" y="221" type="curve" smooth="yes"/>
      <point x="232" y="221"/>
      <point x="266" y="203"/>
    </contour>
  </outline>
</glyph>
<glyph name="u11301" format="2">
  <unicode hex="11301"/>
  <anchor x="56" y="542" name="_vedic"/>
  <outline>
    <contour>
      <point x="138" y="913" type="curve" smooth="yes"/>
      <point x="245" y="913"/>
      <point x="303" y="974"/>
      <point x="303" y="1053" type="curve" smooth="yes"/>
      <point x="303" y="1073"/>
      <point x="295" y="1084"/>
      <point x="284" y="1084" type="curve" smooth="yes"/>
      <point x="281" y="1084"/>
      <point x="278" y="1083"/>
      <point x="275" y="1082" type="curve"/>
      <point x="277" y="1075"/>
      <point x="278" y="1068"/>
      <point x="278" y="1053" type="curve" smooth="yes"/>
      <point x="278" y="989"/>
      <point x="226" y="937"/>
      <point x="140" y="937" type="curve" smooth="yes"/>
      <point x="72" y="937"/>
      <point x="44" y="968"/>
      <point x="44" y="1011" type="curve" smooth="yes"/>
      <point x="44" y="1038"/>
      <point x="53" y="1062"/>
      <point x="67" y="1082" type="curve"/>
      <point x="64" y="1083"/>
      <point x="61" y="1084"/>
      <point x="58" y="1084" type="curve" smooth="yes"/>
      <point x="34" y="1084"/>
      <point x="16" y="1045"/>
      <point x="16" y="1010" type="curve" smooth="yes"/>
      <point x="16" y="960"/>
      <point x="45" y="913"/>
    </contour>
    <contour>
      <point x="163" y="1023" type="curve" smooth="yes"/>
      <point x="186" y="1023"/>
      <point x="189" y="1037"/>
      <point x="189" y="1054" type="curve" smooth="yes"/>
      <point x="189" y="1070"/>
      <point x="186" y="1085"/>
      <point x="163" y="1085" type="curve" smooth="yes"/>
      <point x="142" y="1085"/>
      <point x="137" y="1070"/>
      <point x="137" y="1054" type="curve" smooth="yes"/>
      <point x="137" y="1037"/>
      <point x="142" y="1023"/>
    </contour>
  </outline>
</glyph>
<glyph name="visarga-grantha" format="2">
  <advance width="233"/>
  <unicode hex="11303"/>
  <outline>
    <contour>
      <point x="85" y="-4" type="curve" smooth="yes"/>
      <point x="150" y="-4"/>
      <point x="194" y="43"/>
      <point x="194" y="106" type="curve" smooth="yes"/>
      <point x="194" y="170"/>
      <point x="150" y="217"/>
      <point x="85" y="217" type="curve" smooth="yes"/>
      <point x="20" y="217"/>
      <point x="-24" y="170"/>
      <point x="-24" y="106" type="curve" smooth="yes"/>
      <point x="-24" y="43"/>
      <point x="20" y="-4"/>
    </contour>
    <contour>
      <point x="85" y="18" type="curve" smooth="yes"/>
      <point x="35" y="18"/>
      <point x="2" y="57"/>
      <point x="2" y="106" type="curve" smooth="yes"/>
      <point x="2" y="156"/>
      <point x="35" y="195"/>
      <point x="85" y="195" type="curve" smooth="yes"/>
      <point x="135" y="195"/>
      <point x="168" y="156"/>
      <point x="168" y="106" type="curve" smooth="yes"/>
      <point x="168" y="57"/>
      <point x="135" y="18"/>
    </contour>
    <contour>
      <point x="155" y="329" type="curve" smooth="yes"/>
      <point x="220" y="329"/>
      <point x="264" y="376"/>
      <point x="264" y="440" type="curve" smooth="yes"/>
      <point x="264" y="503"/>
      <point x="220" y="551"/>
      <point x="155" y="551" type="curve" smooth="yes"/>
      <point x="90" y="551"/>
      <point x="46" y="503"/>
      <point x="46" y="440" type="curve" smooth="yes"/>
      <point x="46" y="376"/>
      <point x="90" y="329"/>
    </contour>
    <contour>
      <point x="155" y="351" type="curve" smooth="yes"/>
      <point x="105" y="351"/>
      <point x="72" y="390"/>
      <point x="72" y="440" type="curve" smooth="yes"/>
      <point x="72" y="490"/>
      <point x="105" y="529"/>
      <point x="155" y="529" type="curve" smooth="yes"/>
      <point x="205" y="529"/>
      <point x="238" y="490"/>
      <point x="238" y="440" type="curve" smooth="yes"/>
      <point x="238" y="390"/>
      <point x="205" y="351"/>
    </contour>
  </outline>
</glyph>
<glyph name="u1133B" format="2">
  <unicode hex="1133B"/>
  <anchor x="-59" y="0" name="_nukta"/>
  <outline>
    <contour>
      <point x="-79" y="-136" type="curve" smooth="yes"/>
      <point x="-58" y="-136"/>
      <point x="-41" y="-119"/>
      <point x="-41" y="-99" type="curve" smooth="yes"/>
      <point x="-41" y="-79"/>
      <point x="-58" y="-62"/>
      <point x="-79" y="-62" type="curve" smooth="yes"/>
      <point x="-100" y="-62"/>
      <point x="-117" y="-79"/>
      <point x="-117" y="-99" type="curve" smooth="yes"/>
      <point x="-117" y="-119"/>
      <point x="-100" y="-136"/>
    </contour>
  </outline>
</glyph>
<glyph name="nukta-grantha" format="2">
  <unicode hex="1133C"/>
  <anchor x="-59" y="0" name="_nukta"/>
  <outline>
    <contour>
      <point x="-149" y="-136" type="curve" smooth="yes"/>
      <point x="-128" y="-136"/>
      <point x="-111" y="-119"/>
      <point x="-111" y="-99" type="curve" smooth="yes"/>
      <point x="-111" y="-79"/>
      <point x="-128" y="-62"/>
      <point x="-149" y="-62" type="curve" smooth="yes"/>
      <point x="-170" y="-62"/>
      <point x="-187" y="-79"/>
      <point x="-187" y="-99" type="curve" smooth="yes"/>
      <point x="-187" y="-119"/>
      <point x="-170" y="-136"/>
    </contour>
    <contour>
      <point x="-7" y="-136" type="curve" smooth="yes"/>
      <point x="14" y="-136"/>
      <point x="31" y="-119"/>
      <point x="31" y="-99" type="curve" smooth="yes"/>
      <point x="31" y="-79"/>
      <point x="14" y="-62"/>
      <point x="-7" y="-62" type="curve" smooth="yes"/>
      <point x="-28" y="-62"/>
      <point x="-45" y="-79"/>
      <point x="-45" y="-99" type="curve" smooth="yes"/>
      <point x="-45" y="-119"/>
      <point x="-28" y="-136"/>
    </contour>
  </outline>
</glyph>
<glyph name="anusvara-tamil.alt" format="2">
  <note>
uni0B82
</note>
  <anchor x="32" y="422" name="_top"/>
  <outline>
    <contour>
      <point x="101" y="650" type="curve" smooth="yes"/>
      <point x="157" y="650"/>
      <point x="196" y="692"/>
      <point x="196" y="746" type="curve" smooth="yes"/>
      <point x="196" y="799"/>
      <point x="157" y="841"/>
      <point x="101" y="841" type="curve" smooth="yes"/>
      <point x="45" y="841"/>
      <point x="6" y="799"/>
      <point x="6" y="746" type="curve" smooth="yes"/>
      <point x="6" y="692"/>
      <point x="45" y="650"/>
    </contour>
    <contour>
      <point x="101" y="674" type="curve" smooth="yes"/>
      <point x="60" y="674"/>
      <point x="33" y="705"/>
      <point x="33" y="746" type="curve" smooth="yes"/>
      <point x="33" y="786"/>
      <point x="60" y="817"/>
      <point x="101" y="817" type="curve" smooth="yes"/>
      <point x="142" y="817"/>
      <point x="169" y="786"/>
      <point x="169" y="746" type="curve" smooth="yes"/>
      <point x="169" y="705"/>
      <point x="142" y="674"/>
    </contour>
  </outline>
</glyph>
<glyph name="cu-tamil" format="2">
  <advance width="813"/>
  <note>
g106
</note>
  <anchor x="368" y="0" name="bottom"/>
  <anchor x="368" y="0" name="nukta"/>
  <anchor x="492" y="542" name="top"/>
  <anchor x="480" y="542" name="vedic"/>
  <outline>
    <contour>
      <point x="195" y="-4" type="curve" smooth="yes"/>
      <point x="302" y="-4"/>
      <point x="366" y="56"/>
      <point x="394" y="182" type="curve" smooth="yes"/>
      <point x="415" y="275" type="line"/>
      <point x="604" y="275" type="line"/>
      <point x="546" y="0" type="line"/>
      <point x="572" y="0" type="line"/>
      <point x="631" y="275" type="line"/>
      <point x="785" y="275" type="line"/>
      <point x="789" y="299" type="line"/>
      <point x="420" y="299" type="line"/>
      <point x="467" y="519" type="line"/>
      <point x="641" y="519" type="line"/>
      <point x="646" y="542" type="line"/>
      <point x="221" y="542" type="line"/>
      <point x="166" y="284" type="line"/>
      <point x="191" y="284" type="line"/>
      <point x="241" y="519" type="line"/>
      <point x="439" y="519" type="line"/>
      <point x="392" y="299" type="line"/>
      <point x="236" y="299" type="line" smooth="yes"/>
      <point x="118" y="299"/>
      <point x="38" y="232"/>
      <point x="38" y="135" type="curve" smooth="yes"/>
      <point x="38" y="52"/>
      <point x="99" y="-4"/>
    </contour>
    <contour>
      <point x="196" y="21" type="curve" smooth="yes"/>
      <point x="119" y="21"/>
      <point x="72" y="65"/>
      <point x="72" y="139" type="curve" smooth="yes"/>
      <point x="72" y="215"/>
      <point x="128" y="275"/>
      <point x="234" y="275" type="curve" smooth="yes"/>
      <point x="387" y="275" type="line"/>
      <point x="366" y="179" type="line" smooth="yes"/>
      <point x="345" y="81"/>
      <point x="287" y="21"/>
    </contour>
  </outline>
</glyph>
<glyph name="cuu-tamil" format="2">
  <advance width="1059"/>
  <note>
g107
</note>
  <anchor x="497" y="-2" name="bottom"/>
  <anchor x="461" y="-278" name="nukta"/>
  <anchor x="667" y="542" name="top"/>
  <anchor x="645" y="542" name="vedic"/>
  <outline>
    <contour>
      <point x="376" y="-4" type="curve" smooth="yes"/>
      <point x="483" y="-4"/>
      <point x="547" y="56"/>
      <point x="575" y="182" type="curve" smooth="yes"/>
      <point x="596" y="275" type="line"/>
      <point x="917" y="275" type="line"/>
      <point x="922" y="299" type="line"/>
      <point x="601" y="299" type="line"/>
      <point x="648" y="519" type="line"/>
      <point x="822" y="519" type="line"/>
      <point x="827" y="542" type="line"/>
      <point x="402" y="542" type="line"/>
      <point x="347" y="284" type="line"/>
      <point x="372" y="284" type="line"/>
      <point x="422" y="519" type="line"/>
      <point x="620" y="519" type="line"/>
      <point x="573" y="299" type="line"/>
      <point x="417" y="299" type="line" smooth="yes"/>
      <point x="299" y="299"/>
      <point x="219" y="232"/>
      <point x="219" y="135" type="curve" smooth="yes"/>
      <point x="219" y="52"/>
      <point x="280" y="-4"/>
    </contour>
    <contour>
      <point x="377" y="21" type="curve" smooth="yes"/>
      <point x="300" y="21"/>
      <point x="253" y="65"/>
      <point x="253" y="139" type="curve" smooth="yes"/>
      <point x="253" y="215"/>
      <point x="309" y="275"/>
      <point x="415" y="275" type="curve" smooth="yes"/>
      <point x="568" y="275" type="line"/>
      <point x="547" y="179" type="line" smooth="yes"/>
      <point x="526" y="81"/>
      <point x="468" y="21"/>
    </contour>
    <contour>
      <point x="710" y="0" type="line"/>
      <point x="735" y="0" type="line"/>
      <point x="796" y="288" type="line"/>
      <point x="772" y="288" type="line"/>
    </contour>
    <contour>
      <point x="461" y="-278" type="curve" smooth="yes"/>
      <point x="718" y="-278"/>
      <point x="955" y="-160"/>
      <point x="955" y="60" type="curve" smooth="yes"/>
      <point x="955" y="137"/>
      <point x="909" y="170"/>
      <point x="855" y="170" type="curve" smooth="yes"/>
      <point x="793" y="170"/>
      <point x="745" y="126"/>
      <point x="729" y="51" type="curve" smooth="yes"/>
      <point x="725" y="32" type="line"/>
      <point x="742" y="32" type="line"/>
      <point x="745" y="46" type="line" smooth="yes"/>
      <point x="759" y="110"/>
      <point x="796" y="143"/>
      <point x="848" y="143" type="curve" smooth="yes"/>
      <point x="894" y="143"/>
      <point x="925" y="117"/>
      <point x="925" y="56" type="curve" smooth="yes"/>
      <point x="925" y="-140"/>
      <point x="691" y="-252"/>
      <point x="462" y="-252" type="curve" smooth="yes"/>
      <point x="223" y="-252"/>
      <point x="59" y="-115"/>
      <point x="59" y="92" type="curve" smooth="yes"/>
      <point x="59" y="243"/>
      <point x="118" y="335"/>
      <point x="237" y="459" type="curve"/>
      <point x="217" y="478" type="line"/>
      <point x="94" y="350"/>
      <point x="29" y="248"/>
      <point x="29" y="89" type="curve" smooth="yes"/>
      <point x="29" y="-131"/>
      <point x="205" y="-278"/>
    </contour>
  </outline>
</glyph>
<glyph name="iMatra-tamil.alt01" format="2">
  <advance width="229"/>
  <note>
uni0BBF
</note>
  <outline>
    <contour>
      <point x="37" y="0" type="line"/>
      <point x="66" y="0" type="line"/>
      <point x="178" y="529" type="line" smooth="yes"/>
      <point x="183" y="552"/>
      <point x="185" y="574"/>
      <point x="185" y="595" type="curve" smooth="yes"/>
      <point x="185" y="712"/>
      <point x="114" y="800"/>
      <point x="-21" y="800" type="curve" smooth="yes"/>
      <point x="-151" y="800"/>
      <point x="-217" y="713"/>
      <point x="-217" y="616" type="curve" smooth="yes"/>
      <point x="-217" y="572"/>
      <point x="-203" y="549"/>
      <point x="-188" y="526" type="curve"/>
      <point x="-160" y="526" type="line"/>
      <point x="-178" y="550"/>
      <point x="-191" y="575"/>
      <point x="-191" y="613" type="curve" smooth="yes"/>
      <point x="-191" y="697"/>
      <point x="-134" y="770"/>
      <point x="-22" y="770" type="curve" smooth="yes"/>
      <point x="92" y="770"/>
      <point x="154" y="692"/>
      <point x="154" y="584" type="curve" smooth="yes"/>
      <point x="154" y="563"/>
      <point x="152" y="540"/>
      <point x="147" y="517" type="curve" smooth="yes"/>
    </contour>
  </outline>
</glyph>
<glyph name="iMatra-tamil.alt02" format="2">
  <advance width="229"/>
  <note>
uni0BBF
</note>
  <anchor x="-101" y="800" name="top"/>
  <outline>
    <contour>
      <point x="37" y="0" type="line"/>
      <point x="66" y="0" type="line"/>
      <point x="171" y="496" type="line" smooth="yes"/>
      <point x="212" y="692"/>
      <point x="82" y="800"/>
      <point x="-101" y="800" type="curve" smooth="yes"/>
      <point x="-267" y="800"/>
      <point x="-349" y="698"/>
      <point x="-351" y="617" type="curve" smooth="yes"/>
      <point x="-352" y="564"/>
      <point x="-335" y="538"/>
      <point x="-309" y="505" type="curve"/>
      <point x="-291" y="517" type="line"/>
      <point x="-313" y="547"/>
      <point x="-324" y="567"/>
      <point x="-324" y="612" type="curve" smooth="yes"/>
      <point x="-324" y="679"/>
      <point x="-250" y="770"/>
      <point x="-103" y="770" type="curve" smooth="yes"/>
      <point x="65" y="770"/>
      <point x="181" y="676"/>
      <point x="140" y="484" type="curve" smooth="yes"/>
    </contour>
  </outline>
</glyph>
<glyph name="iiMatra-tamil.alt01" format="2">
  <note>
uni0BC0
</note>
  <outline>
    <contour>
      <point x="-192" y="518" type="curve"/>
      <point x="-182" y="537" type="line"/>
      <point x="-227" y="563"/>
      <point x="-253" y="605"/>
      <point x="-253" y="670" type="curve" smooth="yes"/>
      <point x="-253" y="768"/>
      <point x="-175" y="850"/>
      <point x="-55" y="850" type="curve" smooth="yes"/>
      <point x="16" y="850"/>
      <point x="80" y="817"/>
      <point x="80" y="744" type="curve" smooth="yes"/>
      <point x="80" y="687"/>
      <point x="40" y="645"/>
      <point x="-21" y="645" type="curve" smooth="yes"/>
      <point x="-82" y="645"/>
      <point x="-111" y="682"/>
      <point x="-111" y="733" type="curve" smooth="yes"/>
      <point x="-111" y="769"/>
      <point x="-96" y="813"/>
      <point x="-67" y="855" type="curve"/>
      <point x="-87" y="859" type="line"/>
      <point x="-121" y="815"/>
      <point x="-137" y="768"/>
      <point x="-137" y="728" type="curve" smooth="yes"/>
      <point x="-137" y="667"/>
      <point x="-99" y="622"/>
      <point x="-23" y="622" type="curve" smooth="yes"/>
      <point x="54" y="622"/>
      <point x="108" y="670"/>
      <point x="108" y="748" type="curve" smooth="yes"/>
      <point x="108" y="830"/>
      <point x="35" y="872"/>
      <point x="-54" y="872" type="curve" smooth="yes"/>
      <point x="-190" y="872"/>
      <point x="-283" y="778"/>
      <point x="-283" y="669" type="curve" smooth="yes"/>
      <point x="-283" y="598"/>
      <point x="-247" y="545"/>
    </contour>
  </outline>
</glyph>
<glyph name="iiMatra-tamil.alt02" format="2">
  <note>
uni0BC0
</note>
  <outline>
    <contour>
      <point x="-337" y="518" type="curve"/>
      <point x="-327" y="537" type="line"/>
      <point x="-372" y="563"/>
      <point x="-398" y="605"/>
      <point x="-398" y="670" type="curve" smooth="yes"/>
      <point x="-398" y="768"/>
      <point x="-320" y="850"/>
      <point x="-200" y="850" type="curve" smooth="yes"/>
      <point x="-129" y="850"/>
      <point x="-65" y="817"/>
      <point x="-65" y="744" type="curve" smooth="yes"/>
      <point x="-65" y="687"/>
      <point x="-105" y="645"/>
      <point x="-166" y="645" type="curve" smooth="yes"/>
      <point x="-227" y="645"/>
      <point x="-256" y="682"/>
      <point x="-256" y="733" type="curve" smooth="yes"/>
      <point x="-256" y="769"/>
      <point x="-241" y="813"/>
      <point x="-212" y="855" type="curve"/>
      <point x="-232" y="859" type="line"/>
      <point x="-266" y="815"/>
      <point x="-282" y="768"/>
      <point x="-282" y="728" type="curve" smooth="yes"/>
      <point x="-282" y="667"/>
      <point x="-244" y="622"/>
      <point x="-168" y="622" type="curve" smooth="yes"/>
      <point x="-91" y="622"/>
      <point x="-37" y="670"/>
      <point x="-37" y="748" type="curve" smooth="yes"/>
      <point x="-37" y="830"/>
      <point x="-110" y="872"/>
      <point x="-199" y="872" type="curve" smooth="yes"/>
      <point x="-335" y="872"/>
      <point x="-428" y="778"/>
      <point x="-428" y="669" type="curve" smooth="yes"/>
      <point x="-428" y="598"/>
      <point x="-392" y="545"/>
    </contour>
  </outline>
</glyph>
<glyph name="jii-tamil" format="2">
  <advance width="939"/>
  <note>
uni0B9C
</note>
  <anchor x="424" y="0" name="bottom"/>
  <anchor x="365" y="-278" name="nukta"/>
  <anchor x="921" y="872" name="top"/>
  <anchor x="542" y="542" name="vedic"/>
  <outline>
    <contour>
      <point x="140" y="-278" type="curve" smooth="yes"/>
      <point x="340" y="-278"/>
      <point x="424" y="2"/>
      <point x="635" y="2" type="curve" smooth="yes"/>
      <point x="714" y="2"/>
      <point x="758" y="-47"/>
      <point x="758" y="-115" type="curve" smooth="yes"/>
      <point x="758" y="-201"/>
      <point x="691" y="-254"/>
      <point x="609" y="-254" type="curve" smooth="yes"/>
      <point x="562" y="-254"/>
      <point x="528" y="-239"/>
      <point x="498" y="-217" type="curve"/>
      <point x="482" y="-238" type="line"/>
      <point x="516" y="-263"/>
      <point x="551" y="-278"/>
      <point x="610" y="-278" type="curve" smooth="yes"/>
      <point x="709" y="-278"/>
      <point x="788" y="-214"/>
      <point x="788" y="-113" type="curve" smooth="yes"/>
      <point x="788" y="-32"/>
      <point x="735" y="26"/>
      <point x="637" y="26" type="curve" smooth="yes"/>
      <point x="409" y="26"/>
      <point x="323" y="-254"/>
      <point x="142" y="-254" type="curve" smooth="yes"/>
      <point x="63" y="-254"/>
      <point x="23" y="-202"/>
      <point x="23" y="-129" type="curve" smooth="yes"/>
      <point x="23" y="40"/>
      <point x="194" y="70"/>
      <point x="440" y="91" type="curve" smooth="yes"/>
      <point x="686" y="112"/>
      <point x="886" y="160"/>
      <point x="886" y="386" type="curve" smooth="yes"/>
      <point x="886" y="496"/>
      <point x="811" y="551"/>
      <point x="717" y="551" type="curve" smooth="yes"/>
      <point x="609" y="551"/>
      <point x="547" y="484"/>
      <point x="511" y="414" type="curve"/>
      <point x="495" y="488"/>
      <point x="436" y="551"/>
      <point x="317" y="551" type="curve" smooth="yes"/>
      <point x="177" y="551"/>
      <point x="72" y="449"/>
      <point x="72" y="314" type="curve" smooth="yes"/>
      <point x="72" y="238"/>
      <point x="119" y="164"/>
      <point x="204" y="164" type="curve" smooth="yes"/>
      <point x="275" y="164"/>
      <point x="338" y="211"/>
      <point x="338" y="296" type="curve" smooth="yes"/>
      <point x="338" y="352"/>
      <point x="301" y="398"/>
      <point x="235" y="398" type="curve" smooth="yes"/>
      <point x="159" y="398"/>
      <point x="114" y="336"/>
      <point x="87" y="269" type="curve"/>
      <point x="100" y="248" type="line"/>
      <point x="131" y="319"/>
      <point x="169" y="374"/>
      <point x="230" y="374" type="curve" smooth="yes"/>
      <point x="283" y="374"/>
      <point x="310" y="340"/>
      <point x="310" y="294" type="curve" smooth="yes"/>
      <point x="310" y="232"/>
      <point x="265" y="190"/>
      <point x="205" y="190" type="curve" smooth="yes"/>
      <point x="132" y="190"/>
      <point x="99" y="251"/>
      <point x="99" y="315" type="curve" smooth="yes"/>
      <point x="99" y="432"/>
      <point x="191" y="526"/>
      <point x="312" y="526" type="curve" smooth="yes"/>
      <point x="433" y="526"/>
      <point x="510" y="447"/>
      <point x="486" y="335" type="curve"/>
      <point x="460" y="208" type="line"/>
      <point x="484" y="208" type="line"/>
      <point x="514" y="352" type="line" smooth="yes"/>
      <point x="530" y="427"/>
      <point x="601" y="527"/>
      <point x="713" y="527" type="curve" smooth="yes"/>
      <point x="795" y="527"/>
      <point x="855" y="476"/>
      <point x="855" y="382" type="curve" smooth="yes"/>
      <point x="855" y="176"/>
      <point x="680" y="133"/>
      <point x="433" y="113" type="curve" smooth="yes"/>
      <point x="178" y="92"/>
      <point x="-6" y="54"/>
      <point x="-6" y="-131" type="curve" smooth="yes"/>
      <point x="-6" y="-215"/>
      <point x="50" y="-278"/>
    </contour>
    <component base="iiMatra-tamil.alt01" xOffset="975"/>
  </outline>
</glyph>
<glyph name="kii-tamil" format="2">
  <advance width="768"/>
  <note>
uni0B95
</note>
  <anchor x="343" y="0" name="bottom"/>
  <anchor x="348" y="0" name="nukta"/>
  <anchor x="647" y="872" name="top"/>
  <anchor x="459" y="542" name="vedic"/>
  <outline>
    <contour>
      <point x="195" y="-4" type="curve" smooth="yes"/>
      <point x="302" y="-4"/>
      <point x="366" y="56"/>
      <point x="394" y="182" type="curve" smooth="yes"/>
      <point x="415" y="275" type="line"/>
      <point x="511" y="275" type="line" smooth="yes"/>
      <point x="613" y="275"/>
      <point x="653" y="226"/>
      <point x="653" y="155" type="curve" smooth="yes"/>
      <point x="653" y="73"/>
      <point x="582" y="21"/>
      <point x="500" y="21" type="curve" smooth="yes"/>
      <point x="452" y="21" type="line"/>
      <point x="448" y="-2" type="line"/>
      <point x="501" y="-2" type="line" smooth="yes"/>
      <point x="601" y="-2"/>
      <point x="681" y="56"/>
      <point x="681" y="160" type="curve" smooth="yes"/>
      <point x="681" y="244"/>
      <point x="628" y="299"/>
      <point x="515" y="299" type="curve" smooth="yes"/>
      <point x="420" y="299" type="line"/>
      <point x="467" y="519" type="line"/>
      <point x="643" y="519" type="line"/>
      <point x="648" y="542" type="line"/>
      <point x="221" y="542" type="line"/>
      <point x="166" y="284" type="line"/>
      <point x="191" y="284" type="line"/>
      <point x="241" y="519" type="line"/>
      <point x="439" y="519" type="line"/>
      <point x="392" y="299" type="line"/>
      <point x="236" y="299" type="line" smooth="yes"/>
      <point x="118" y="299"/>
      <point x="38" y="232"/>
      <point x="38" y="135" type="curve" smooth="yes"/>
      <point x="38" y="52"/>
      <point x="99" y="-4"/>
    </contour>
    <contour>
      <point x="196" y="21" type="curve" smooth="yes"/>
      <point x="119" y="21"/>
      <point x="72" y="65"/>
      <point x="72" y="139" type="curve" smooth="yes"/>
      <point x="72" y="215"/>
      <point x="128" y="275"/>
      <point x="234" y="275" type="curve" smooth="yes"/>
      <point x="387" y="275" type="line"/>
      <point x="366" y="179" type="line" smooth="yes"/>
      <point x="345" y="81"/>
      <point x="287" y="21"/>
    </contour>
    <component base="iiMatra-tamil" xOffset="524"/>
  </outline>
</glyph>
<glyph name="kssa-tamil" format="2">
  <advance width="1780"/>
  <note>
g76
</note>
  <anchor x="845" y="0" name="bottom"/>
  <anchor x="791" y="0" name="nukta"/>
  <anchor x="965" y="542" name="top"/>
  <anchor x="959" y="542" name="vedic"/>
  <outline>
    <contour>
      <point x="686" y="-4" type="curve" smooth="yes"/>
      <point x="778" y="-4"/>
      <point x="849" y="56"/>
      <point x="849" y="155" type="curve" smooth="yes"/>
      <point x="849" y="271"/>
      <point x="756" y="299"/>
      <point x="635" y="299" type="curve" smooth="yes"/>
      <point x="420" y="299" type="line"/>
      <point x="467" y="519" type="line"/>
      <point x="641" y="519" type="line"/>
      <point x="646" y="542" type="line"/>
      <point x="221" y="542" type="line"/>
      <point x="166" y="284" type="line"/>
      <point x="191" y="284" type="line"/>
      <point x="241" y="519" type="line"/>
      <point x="439" y="519" type="line"/>
      <point x="392" y="299" type="line"/>
      <point x="236" y="299" type="line" smooth="yes"/>
      <point x="118" y="299"/>
      <point x="38" y="232"/>
      <point x="38" y="135" type="curve" smooth="yes"/>
      <point x="38" y="52"/>
      <point x="99" y="-4"/>
      <point x="195" y="-4" type="curve" smooth="yes"/>
      <point x="302" y="-4"/>
      <point x="366" y="56"/>
      <point x="394" y="182" type="curve" smooth="yes"/>
      <point x="415" y="275" type="line"/>
      <point x="630" y="275" type="line" smooth="yes"/>
      <point x="733" y="275"/>
      <point x="821" y="257"/>
      <point x="821" y="152" type="curve" smooth="yes"/>
      <point x="821" y="72"/>
      <point x="760" y="21"/>
      <point x="687" y="21" type="curve" smooth="yes"/>
      <point x="624" y="21"/>
      <point x="577" y="66"/>
      <point x="577" y="142" type="curve" smooth="yes"/>
      <point x="577" y="279"/>
      <point x="701" y="390"/>
      <point x="861" y="390" type="curve" smooth="yes"/>
      <point x="976" y="390"/>
      <point x="1076" y="331"/>
      <point x="1076" y="216" type="curve" smooth="yes"/>
      <point x="1076" y="141"/>
      <point x="1044" y="82"/>
      <point x="973" y="19" type="curve"/>
      <point x="979" y="0" type="line"/>
      <point x="1651" y="0" type="line"/>
      <point x="1724" y="341" type="line"/>
      <point x="1694" y="333" type="line"/>
      <point x="1628" y="23" type="line"/>
      <point x="1000" y="23" type="line"/>
      <point x="1005" y="16" type="line"/>
      <point x="1070" y="76"/>
      <point x="1105" y="134"/>
      <point x="1105" y="218" type="curve" smooth="yes"/>
      <point x="1105" y="345"/>
      <point x="997" y="414"/>
      <point x="863" y="414" type="curve" smooth="yes"/>
      <point x="686" y="414"/>
      <point x="551" y="292"/>
      <point x="551" y="137" type="curve" smooth="yes"/>
      <point x="551" y="49"/>
      <point x="609" y="-4"/>
    </contour>
    <contour>
      <point x="196" y="21" type="curve" smooth="yes"/>
      <point x="119" y="21"/>
      <point x="72" y="65"/>
      <point x="72" y="139" type="curve" smooth="yes"/>
      <point x="72" y="215"/>
      <point x="128" y="275"/>
      <point x="234" y="275" type="curve" smooth="yes"/>
      <point x="387" y="275" type="line"/>
      <point x="366" y="179" type="line" smooth="yes"/>
      <point x="345" y="81"/>
      <point x="287" y="21"/>
    </contour>
    <contour>
      <point x="1331" y="-278" type="line"/>
      <point x="1359" y="-278" type="line"/>
      <point x="1506" y="414" type="line" smooth="yes"/>
      <point x="1524" y="497"/>
      <point x="1485" y="551"/>
      <point x="1409" y="551" type="curve" smooth="yes"/>
      <point x="1319" y="551"/>
      <point x="1257" y="469"/>
      <point x="1257" y="383" type="curve" smooth="yes"/>
      <point x="1257" y="292"/>
      <point x="1326" y="221"/>
      <point x="1438" y="221" type="curve" smooth="yes"/>
      <point x="1547" y="221"/>
      <point x="1634" y="264"/>
      <point x="1723" y="336" type="curve"/>
      <point x="1725" y="347" type="line"/>
      <point x="1713" y="358" type="line"/>
      <point x="1621" y="286"/>
      <point x="1542" y="245"/>
      <point x="1439" y="245" type="curve" smooth="yes"/>
      <point x="1344" y="245"/>
      <point x="1285" y="302"/>
      <point x="1285" y="385" type="curve" smooth="yes"/>
      <point x="1285" y="457"/>
      <point x="1333" y="527"/>
      <point x="1407" y="527" type="curve" smooth="yes"/>
      <point x="1467" y="527"/>
      <point x="1494" y="483"/>
      <point x="1479" y="415" type="curve" smooth="yes"/>
    </contour>
  </outline>
</glyph>
<glyph name="ku-tamil" format="2">
  <advance width="964"/>
  <note>
g101
</note>
  <anchor x="447" y="0" name="bottom"/>
  <anchor x="420" y="-278" name="nukta"/>
  <anchor x="618" y="542" name="top"/>
  <anchor x="601" y="542" name="vedic"/>
  <outline>
    <contour>
      <point x="420" y="-278" type="curve" smooth="yes"/>
      <point x="628" y="-278"/>
      <point x="855" y="-173"/>
      <point x="855" y="84" type="curve" smooth="yes"/>
      <point x="855" y="245"/>
      <point x="754" y="299"/>
      <point x="604" y="299" type="curve" smooth="yes"/>
      <point x="411" y="299" type="line" smooth="yes"/>
      <point x="293" y="299"/>
      <point x="213" y="232"/>
      <point x="213" y="135" type="curve" smooth="yes"/>
      <point x="213" y="52"/>
      <point x="274" y="-4"/>
      <point x="370" y="-4" type="curve" smooth="yes"/>
      <point x="477" y="-4"/>
      <point x="542" y="58"/>
      <point x="569" y="182" type="curve" smooth="yes"/>
      <point x="642" y="519" type="line"/>
      <point x="818" y="519" type="line"/>
      <point x="823" y="542" type="line"/>
      <point x="396" y="542" type="line"/>
      <point x="341" y="284" type="line"/>
      <point x="366" y="284" type="line"/>
      <point x="416" y="519" type="line"/>
      <point x="614" y="519" type="line"/>
      <point x="541" y="179" type="line" smooth="yes"/>
      <point x="520" y="81"/>
      <point x="462" y="21"/>
      <point x="371" y="21" type="curve" smooth="yes"/>
      <point x="294" y="21"/>
      <point x="247" y="65"/>
      <point x="247" y="139" type="curve" smooth="yes"/>
      <point x="247" y="215"/>
      <point x="303" y="275"/>
      <point x="409" y="275" type="curve" smooth="yes"/>
      <point x="600" y="275" type="line" smooth="yes"/>
      <point x="738" y="275"/>
      <point x="827" y="230"/>
      <point x="827" y="83" type="curve" smooth="yes"/>
      <point x="827" y="-157"/>
      <point x="601" y="-252"/>
      <point x="421" y="-252" type="curve" smooth="yes"/>
      <point x="210" y="-252"/>
      <point x="58" y="-124"/>
      <point x="58" y="77" type="curve" smooth="yes"/>
      <point x="58" y="247"/>
      <point x="116" y="336"/>
      <point x="243" y="467" type="curve"/>
      <point x="224" y="486" type="line"/>
      <point x="92" y="352"/>
      <point x="28" y="252"/>
      <point x="28" y="74" type="curve" smooth="yes"/>
      <point x="28" y="-140"/>
      <point x="190" y="-278"/>
    </contour>
  </outline>
</glyph>
<glyph name="kuu-tamil" format="2">
  <advance width="1284"/>
  <note>
g102
</note>
  <anchor x="575" y="0" name="bottom"/>
  <anchor x="575" y="0" name="nukta"/>
  <anchor x="460" y="542" name="top"/>
  <anchor x="712" y="542" name="vedic"/>
  <outline>
    <contour>
      <point x="694" y="-4" type="curve" smooth="yes"/>
      <point x="786" y="-4"/>
      <point x="859" y="56"/>
      <point x="859" y="155" type="curve" smooth="yes"/>
      <point x="859" y="271"/>
      <point x="766" y="299"/>
      <point x="645" y="299" type="curve" smooth="yes"/>
      <point x="420" y="299" type="line"/>
      <point x="467" y="519" type="line"/>
      <point x="641" y="519" type="line"/>
      <point x="646" y="542" type="line"/>
      <point x="221" y="542" type="line"/>
      <point x="166" y="284" type="line"/>
      <point x="191" y="284" type="line"/>
      <point x="241" y="519" type="line"/>
      <point x="439" y="519" type="line"/>
      <point x="392" y="299" type="line"/>
      <point x="236" y="299" type="line" smooth="yes"/>
      <point x="118" y="299"/>
      <point x="38" y="232"/>
      <point x="38" y="135" type="curve" smooth="yes"/>
      <point x="38" y="52"/>
      <point x="99" y="-4"/>
      <point x="195" y="-4" type="curve" smooth="yes"/>
      <point x="302" y="-4"/>
      <point x="366" y="56"/>
      <point x="394" y="182" type="curve" smooth="yes"/>
      <point x="415" y="275" type="line"/>
      <point x="640" y="275" type="line" smooth="yes"/>
      <point x="743" y="275"/>
      <point x="831" y="257"/>
      <point x="831" y="152" type="curve" smooth="yes"/>
      <point x="831" y="72"/>
      <point x="768" y="21"/>
      <point x="695" y="21" type="curve" smooth="yes"/>
      <point x="632" y="21"/>
      <point x="587" y="66"/>
      <point x="587" y="142" type="curve" smooth="yes"/>
      <point x="587" y="279"/>
      <point x="711" y="390"/>
      <point x="871" y="390" type="curve" smooth="yes"/>
      <point x="990" y="390"/>
      <point x="1086" y="331"/>
      <point x="1086" y="216" type="curve" smooth="yes"/>
      <point x="1086" y="141"/>
      <point x="1051" y="82"/>
      <point x="985" y="19" type="curve"/>
      <point x="991" y="0" type="line"/>
      <point x="1204" y="0" type="line"/>
      <point x="1209" y="23" type="line"/>
      <point x="1010" y="23" type="line"/>
      <point x="1015" y="16" type="line"/>
      <point x="1080" y="76"/>
      <point x="1115" y="134"/>
      <point x="1115" y="218" type="curve" smooth="yes"/>
      <point x="1115" y="345"/>
      <point x="1011" y="414"/>
      <point x="873" y="414" type="curve" smooth="yes"/>
      <point x="696" y="414"/>
      <point x="561" y="292"/>
      <point x="561" y="137" type="curve" smooth="yes"/>
      <point x="561" y="49"/>
      <point x="617" y="-4"/>
    </contour>
    <contour>
      <point x="196" y="21" type="curve" smooth="yes"/>
      <point x="119" y="21"/>
      <point x="72" y="65"/>
      <point x="72" y="139" type="curve" smooth="yes"/>
      <point x="72" y="215"/>
      <point x="128" y="275"/>
      <point x="234" y="275" type="curve" smooth="yes"/>
      <point x="387" y="275" type="line"/>
      <point x="366" y="179" type="line" smooth="yes"/>
      <point x="345" y="81"/>
      <point x="287" y="21"/>
    </contour>
  </outline>
</glyph>
<glyph name="li-tamil" format="2">
  <advance width="1204"/>
  <note>
g134
</note>
  <anchor x="444" y="0" name="bottom"/>
  <anchor x="444" y="0" name="nukta"/>
  <anchor x="998" y="800" name="top"/>
  <anchor x="612" y="542" name="vedic"/>
  <outline>
    <contour>
      <point x="225" y="-4" type="curve" smooth="yes"/>
      <point x="313" y="-4"/>
      <point x="379" y="55"/>
      <point x="379" y="155" type="curve" smooth="yes"/>
      <point x="379" y="229"/>
      <point x="332" y="283"/>
      <point x="256" y="283" type="curve" smooth="yes"/>
      <point x="162" y="283"/>
      <point x="105" y="208"/>
      <point x="75" y="133" type="curve"/>
      <point x="86" y="108" type="line"/>
      <point x="122" y="188"/>
      <point x="167" y="258"/>
      <point x="249" y="258" type="curve" smooth="yes"/>
      <point x="319" y="258"/>
      <point x="350" y="213"/>
      <point x="350" y="153" type="curve" smooth="yes"/>
      <point x="350" y="72"/>
      <point x="295" y="21"/>
      <point x="227" y="21" type="curve" smooth="yes"/>
      <point x="139" y="21"/>
      <point x="79" y="88"/>
      <point x="79" y="212" type="curve" smooth="yes"/>
      <point x="79" y="369"/>
      <point x="192" y="527"/>
      <point x="376" y="527" type="curve" smooth="yes"/>
      <point x="515" y="527"/>
      <point x="589" y="434"/>
      <point x="561" y="303" type="curve" smooth="yes"/>
      <point x="533" y="170" type="line" smooth="yes"/>
      <point x="512" y="70"/>
      <point x="565" y="-4"/>
      <point x="669" y="-4" type="curve" smooth="yes"/>
      <point x="801" y="-4"/>
      <point x="906" y="97"/>
      <point x="906" y="252" type="curve" smooth="yes"/>
      <point x="906" y="400"/>
      <point x="832" y="473"/>
      <point x="832" y="605" type="curve" smooth="yes"/>
      <point x="832" y="696"/>
      <point x="895" y="770"/>
      <point x="994" y="770" type="curve" smooth="yes"/>
      <point x="1098" y="770"/>
      <point x="1161" y="699"/>
      <point x="1133" y="569" type="curve" smooth="yes"/>
      <point x="1012" y="0" type="line"/>
      <point x="1041" y="0" type="line"/>
      <point x="1163" y="573" type="line" smooth="yes"/>
      <point x="1194" y="720"/>
      <point x="1114" y="800"/>
      <point x="998" y="800" type="curve" smooth="yes"/>
      <point x="868" y="800"/>
      <point x="804" y="704"/>
      <point x="804" y="601" type="curve" smooth="yes"/>
      <point x="804" y="461"/>
      <point x="877" y="386"/>
      <point x="877" y="247" type="curve" smooth="yes"/>
      <point x="877" y="113"/>
      <point x="777" y="20"/>
      <point x="670" y="20" type="curve" smooth="yes"/>
      <point x="586" y="20"/>
      <point x="542" y="79"/>
      <point x="561" y="168" type="curve" smooth="yes"/>
      <point x="589" y="301" type="line" smooth="yes"/>
      <point x="620" y="448"/>
      <point x="541" y="551"/>
      <point x="377" y="551" type="curve" smooth="yes"/>
      <point x="168" y="551"/>
      <point x="52" y="380"/>
      <point x="52" y="210" type="curve" smooth="yes"/>
      <point x="52" y="73"/>
      <point x="125" y="-4"/>
    </contour>
  </outline>
</glyph>
